<svg width="350" height="313" viewBox="0 0 350 313" fill="none" xmlns="http://www.w3.org/2000/svg">
<rect x="0.5" y="0.5" width="349" height="312" rx="1.5" fill="white"/>
<rect x="0.5" y="0.5" width="349" height="312" rx="1.5" stroke="#E8EBEF"/>
<path d="M235.675 27.872C236.283 28.096 236.779 28.416 237.147 28.864C237.499 29.312 237.691 29.904 237.691 30.64C237.691 31.28 237.515 31.856 237.179 32.384C236.827 32.912 236.315 33.328 235.643 33.648C234.971 33.968 234.155 34.128 233.211 34.128C232.219 34.128 231.387 33.952 230.715 33.568C230.043 33.184 229.531 32.688 229.211 32.064C228.891 31.44 228.731 30.768 228.731 30.032H230.331C230.347 30.736 230.571 31.36 231.019 31.904C231.467 32.448 232.187 32.72 233.211 32.72C234.203 32.72 234.923 32.528 235.371 32.128C235.803 31.728 236.027 31.264 236.027 30.736C236.027 30.224 235.819 29.84 235.403 29.552C234.987 29.264 234.251 29.056 233.195 28.928C231.835 28.768 230.811 28.448 230.139 27.936C229.451 27.44 229.115 26.72 229.115 25.776C229.115 25.184 229.275 24.64 229.595 24.16C229.915 23.68 230.395 23.312 231.019 23.024C231.643 22.752 232.379 22.608 233.227 22.608C234.107 22.608 234.843 22.784 235.451 23.104C236.043 23.44 236.491 23.872 236.779 24.416C237.067 24.96 237.227 25.552 237.259 26.192H235.707C235.707 25.84 235.611 25.488 235.451 25.152C235.275 24.832 235.003 24.56 234.619 24.336C234.235 24.128 233.771 24.016 233.195 24.016C232.331 24.016 231.723 24.192 231.339 24.512C230.955 24.848 230.763 25.232 230.763 25.68C230.763 26.096 230.923 26.448 231.275 26.736C231.627 27.024 232.315 27.232 233.355 27.36C234.283 27.488 235.067 27.664 235.675 27.872ZM241.659 29.152L242.587 29.104C243.291 29.088 243.803 29.04 244.123 28.944C244.443 28.864 244.603 28.672 244.603 28.368C244.571 27.472 243.883 27.024 242.523 27.024C241.835 27.024 241.339 27.152 241.035 27.376C240.715 27.6 240.539 27.936 240.475 28.368H238.971C239.099 27.472 239.499 26.8 240.139 26.352C240.779 25.904 241.595 25.68 242.587 25.68C243.659 25.68 244.523 25.952 245.163 26.48C245.803 27.008 246.139 27.952 246.139 29.328V34H244.603V33.216C244.603 32.928 244.651 32.608 244.779 32.256C244.779 32.224 244.795 32.192 244.811 32.128C244.811 32.08 244.811 32.032 244.811 32C244.811 31.968 244.795 31.952 244.763 31.936L244.715 31.92C244.651 31.92 244.619 31.952 244.603 32C244.587 32.064 244.571 32.096 244.571 32.096C244.331 32.72 243.947 33.216 243.419 33.584C242.875 33.952 242.251 34.128 241.531 34.128C241.019 34.128 240.539 34.032 240.107 33.824C239.675 33.616 239.339 33.328 239.083 32.96C238.827 32.592 238.715 32.176 238.715 31.712C238.715 30.144 239.691 29.296 241.659 29.152ZM243.835 30.048C243.515 30.144 243.035 30.224 242.395 30.304C242.267 30.32 242.059 30.352 241.755 30.384C241.243 30.464 240.859 30.608 240.619 30.8C240.363 30.992 240.251 31.28 240.251 31.632C240.251 31.952 240.363 32.224 240.603 32.432C240.843 32.656 241.195 32.752 241.675 32.752C242.171 32.752 242.635 32.656 243.083 32.432C243.531 32.208 243.883 31.872 244.171 31.392C244.459 30.912 244.603 30.32 244.603 29.584C244.411 29.808 244.155 29.968 243.835 30.048ZM249.591 22.48V34H248.055V22.48H249.591ZM258.503 30.352H252.391C252.439 31.04 252.695 31.6 253.143 32.048C253.591 32.496 254.167 32.72 254.887 32.72C255.415 32.72 255.831 32.608 256.135 32.352C256.439 32.096 256.663 31.728 256.823 31.232H258.407C258.215 32.064 257.831 32.768 257.223 33.312C256.615 33.856 255.831 34.128 254.855 34.128C254.023 34.128 253.303 33.952 252.695 33.568C252.087 33.2 251.639 32.688 251.335 32.048C251.015 31.408 250.871 30.704 250.871 29.904C250.871 29.104 251.031 28.368 251.367 27.728C251.687 27.088 252.151 26.592 252.759 26.224C253.367 25.872 254.055 25.68 254.823 25.68C255.463 25.68 256.055 25.84 256.631 26.128C257.207 26.416 257.671 26.88 258.023 27.488C258.375 28.112 258.551 28.88 258.551 29.792C258.551 29.984 258.535 30.176 258.503 30.352ZM257.015 29.072C256.951 28.464 256.743 27.968 256.375 27.584C255.991 27.216 255.511 27.024 254.903 27.024C254.183 27.024 253.623 27.216 253.239 27.584C252.855 27.968 252.599 28.464 252.471 29.072H257.015ZM261.303 31.888C261.431 32.144 261.671 32.352 261.991 32.528C262.311 32.704 262.711 32.784 263.207 32.784C263.911 32.784 264.423 32.672 264.743 32.448C265.047 32.224 265.207 31.952 265.207 31.632C265.207 31.392 265.111 31.2 264.951 31.056C264.791 30.912 264.519 30.8 264.167 30.704C263.815 30.624 263.303 30.544 262.647 30.48C261.639 30.384 260.919 30.128 260.487 29.712C260.039 29.312 259.831 28.816 259.831 28.208C259.831 27.792 259.959 27.376 260.215 26.992C260.471 26.608 260.839 26.288 261.351 26.048C261.863 25.808 262.471 25.68 263.191 25.68C264.183 25.68 264.967 25.936 265.543 26.448C266.119 26.96 266.423 27.6 266.487 28.4H264.983C264.951 28.048 264.791 27.744 264.519 27.456C264.231 27.168 263.783 27.024 263.143 27.024C262.535 27.024 262.087 27.136 261.799 27.344C261.511 27.552 261.367 27.808 261.367 28.096C261.367 28.384 261.495 28.624 261.783 28.784C262.055 28.96 262.615 29.088 263.447 29.168C264.567 29.296 265.399 29.52 265.943 29.872C266.471 30.224 266.743 30.736 266.743 31.392C266.743 32.224 266.407 32.896 265.767 33.392C265.127 33.888 264.247 34.128 263.143 34.128C262.039 34.128 261.174 33.872 260.567 33.328C259.943 32.8 259.607 32.08 259.575 31.152H261.079C261.079 31.392 261.159 31.632 261.303 31.888ZM278.951 26.24C279.559 26.624 280.023 27.136 280.343 27.776C280.663 28.416 280.823 29.136 280.823 29.904C280.823 30.688 280.663 31.408 280.343 32.048C280.023 32.688 279.559 33.2 278.951 33.568C278.343 33.952 277.655 34.128 276.855 34.128C276.055 34.128 275.351 33.952 274.743 33.568C274.135 33.2 273.687 32.688 273.367 32.048C273.047 31.408 272.887 30.688 272.887 29.904C272.887 29.136 273.047 28.416 273.367 27.776C273.687 27.136 274.135 26.624 274.743 26.24C275.351 25.872 276.055 25.68 276.855 25.68C277.655 25.68 278.343 25.872 278.951 26.24ZM278.631 31.92C279.063 31.376 279.287 30.704 279.287 29.904C279.287 29.104 279.063 28.448 278.631 27.904C278.183 27.36 277.591 27.088 276.855 27.088C276.103 27.088 275.511 27.36 275.079 27.904C274.631 28.448 274.423 29.104 274.423 29.904C274.423 30.704 274.631 31.376 275.079 31.92C275.511 32.464 276.103 32.72 276.855 32.72C277.591 32.72 278.183 32.464 278.631 31.92ZM284.918 32.304C284.998 32.56 285.046 32.816 285.046 33.072C285.046 33.216 285.078 33.28 285.174 33.28C285.254 33.28 285.302 33.216 285.302 33.072C285.302 32.816 285.334 32.56 285.43 32.304L287.606 25.808H289.27L286.326 34H284.022L281.078 25.808H282.742L284.918 32.304ZM297.16 30.352H291.048C291.096 31.04 291.352 31.6 291.8 32.048C292.248 32.496 292.824 32.72 293.544 32.72C294.072 32.72 294.488 32.608 294.792 32.352C295.096 32.096 295.32 31.728 295.48 31.232H297.064C296.872 32.064 296.488 32.768 295.88 33.312C295.272 33.856 294.488 34.128 293.512 34.128C292.68 34.128 291.96 33.952 291.352 33.568C290.744 33.2 290.296 32.688 289.992 32.048C289.672 31.408 289.528 30.704 289.528 29.904C289.528 29.104 289.688 28.368 290.024 27.728C290.344 27.088 290.808 26.592 291.416 26.224C292.024 25.872 292.712 25.68 293.48 25.68C294.12 25.68 294.712 25.84 295.288 26.128C295.864 26.416 296.328 26.88 296.68 27.488C297.032 28.112 297.208 28.88 297.208 29.792C297.208 29.984 297.192 30.176 297.16 30.352ZM295.672 29.072C295.608 28.464 295.4 27.968 295.032 27.584C294.648 27.216 294.168 27.024 293.56 27.024C292.84 27.024 292.28 27.216 291.896 27.584C291.512 27.968 291.256 28.464 291.128 29.072H295.672ZM299.917 27.712C299.965 27.712 300.013 27.664 300.061 27.568C300.253 27.088 300.445 26.72 300.653 26.464C300.845 26.208 301.133 26 301.517 25.872C301.901 25.744 302.429 25.68 303.101 25.68V27.248C302.973 27.248 302.797 27.232 302.573 27.232C301.613 27.232 300.957 27.456 300.589 27.904C300.205 28.352 300.029 29.072 300.029 30.08V34H298.493V25.808H300.029V26.352C300.029 26.672 299.965 27.04 299.853 27.424C299.821 27.52 299.821 27.568 299.821 27.6C299.821 27.664 299.837 27.712 299.901 27.712H299.917ZM307.449 32.304C307.529 32.56 307.577 32.816 307.577 33.072C307.577 33.216 307.609 33.28 307.705 33.28C307.785 33.28 307.833 33.216 307.833 33.072C307.833 32.816 307.865 32.56 307.961 32.304L310.137 25.808H311.801L308.857 34H306.553L303.609 25.808H305.273L307.449 32.304ZM312.632 22.48H314.296V24.272H312.632V22.48ZM312.696 25.808H314.232V34H312.696V25.808ZM323.144 30.352H317.032C317.08 31.04 317.336 31.6 317.784 32.048C318.232 32.496 318.808 32.72 319.528 32.72C320.056 32.72 320.472 32.608 320.776 32.352C321.08 32.096 321.304 31.728 321.464 31.232H323.048C322.856 32.064 322.472 32.768 321.864 33.312C321.256 33.856 320.472 34.128 319.496 34.128C318.664 34.128 317.944 33.952 317.336 33.568C316.728 33.2 316.28 32.688 315.976 32.048C315.656 31.408 315.512 30.704 315.512 29.904C315.512 29.104 315.672 28.368 316.008 27.728C316.328 27.088 316.792 26.592 317.4 26.224C318.008 25.872 318.696 25.68 319.464 25.68C320.104 25.68 320.696 25.84 321.272 26.128C321.848 26.416 322.312 26.88 322.664 27.488C323.016 28.112 323.192 28.88 323.192 29.792C323.192 29.984 323.176 30.176 323.144 30.352ZM321.656 29.072C321.592 28.464 321.384 27.968 321.016 27.584C320.632 27.216 320.152 27.024 319.544 27.024C318.824 27.024 318.264 27.216 317.88 27.584C317.496 27.968 317.24 28.464 317.112 29.072H321.656ZM326.797 31.936C326.861 32.24 326.909 32.56 326.909 32.88C326.909 33.008 326.941 33.072 327.037 33.072C327.117 33.072 327.165 33.008 327.165 32.88C327.165 32.56 327.197 32.24 327.277 31.936L328.829 25.808H330.621L332.173 31.936C332.237 32.24 332.285 32.56 332.285 32.88C332.285 33.008 332.317 33.072 332.413 33.072C332.493 33.072 332.541 33.008 332.541 32.88C332.541 32.56 332.573 32.24 332.653 31.936L334.333 25.808H335.997L333.501 34H331.453L329.933 28.176C329.869 27.92 329.853 27.632 329.853 27.312C329.853 27.248 329.837 27.2 329.821 27.168C329.805 27.136 329.773 27.104 329.725 27.104C329.661 27.104 329.629 27.136 329.613 27.168C329.597 27.2 329.597 27.248 329.597 27.312C329.597 27.632 329.565 27.92 329.517 28.176L327.997 34H325.949L323.453 25.808H325.117L326.797 31.936Z" fill="#444444"/>
<path d="M18.0882 58.552V67H16.9362V61H15.0162V60.136C15.6402 60.136 16.0722 60.1 16.3362 60.016C16.6002 59.944 16.7682 59.8 16.8642 59.608C16.9602 59.416 17.0442 59.056 17.1282 58.552H18.0882ZM25.0457 59.02C25.5257 59.392 25.8977 59.908 26.1497 60.556C26.4017 61.204 26.5337 61.948 26.5337 62.776C26.5337 63.616 26.4017 64.36 26.1497 65.008C25.8977 65.656 25.5257 66.172 25.0457 66.544C24.5537 66.916 23.9657 67.096 23.2697 67.096C22.5737 67.096 21.9737 66.916 21.4937 66.544C21.0017 66.172 20.6297 65.656 20.3777 65.008C20.1257 64.36 20.0057 63.616 20.0057 62.776C20.0057 61.948 20.1257 61.204 20.3777 60.556C20.6297 59.908 21.0017 59.392 21.4937 59.02C21.9737 58.648 22.5737 58.456 23.2697 58.456C23.9657 58.456 24.5537 58.648 25.0457 59.02ZM24.8297 65.152C25.1897 64.564 25.3817 63.772 25.3817 62.776C25.3817 61.792 25.1897 61 24.8297 60.4C24.4697 59.812 23.9417 59.512 23.2697 59.512C22.5857 59.512 22.0577 59.812 21.6977 60.4C21.3377 61 21.1577 61.792 21.1577 62.776C21.1577 63.772 21.3377 64.564 21.6977 65.152C22.0577 65.752 22.5857 66.04 23.2697 66.04C23.9417 66.04 24.4697 65.752 24.8297 65.152ZM32.7215 59.02C33.2015 59.392 33.5735 59.908 33.8255 60.556C34.0775 61.204 34.2095 61.948 34.2095 62.776C34.2095 63.616 34.0775 64.36 33.8255 65.008C33.5735 65.656 33.2015 66.172 32.7215 66.544C32.2295 66.916 31.6415 67.096 30.9455 67.096C30.2495 67.096 29.6495 66.916 29.1695 66.544C28.6775 66.172 28.3055 65.656 28.0535 65.008C27.8015 64.36 27.6815 63.616 27.6815 62.776C27.6815 61.948 27.8015 61.204 28.0535 60.556C28.3055 59.908 28.6775 59.392 29.1695 59.02C29.6495 58.648 30.2495 58.456 30.9455 58.456C31.6415 58.456 32.2295 58.648 32.7215 59.02ZM32.5055 65.152C32.8655 64.564 33.0575 63.772 33.0575 62.776C33.0575 61.792 32.8655 61 32.5055 60.4C32.1455 59.812 31.6175 59.512 30.9455 59.512C30.2615 59.512 29.7335 59.812 29.3735 60.4C29.0135 61 28.8335 61.792 28.8335 62.776C28.8335 63.772 29.0135 64.564 29.3735 65.152C29.7335 65.752 30.2615 66.04 30.9455 66.04C31.6175 66.04 32.1455 65.752 32.5055 65.152ZM40.3973 59.02C40.8773 59.392 41.2493 59.908 41.5013 60.556C41.7533 61.204 41.8853 61.948 41.8853 62.776C41.8853 63.616 41.7533 64.36 41.5013 65.008C41.2493 65.656 40.8773 66.172 40.3973 66.544C39.9053 66.916 39.3173 67.096 38.6213 67.096C37.9253 67.096 37.3253 66.916 36.8453 66.544C36.3533 66.172 35.9813 65.656 35.7293 65.008C35.4773 64.36 35.3573 63.616 35.3573 62.776C35.3573 61.948 35.4773 61.204 35.7293 60.556C35.9813 59.908 36.3533 59.392 36.8453 59.02C37.3253 58.648 37.9253 58.456 38.6213 58.456C39.3173 58.456 39.9053 58.648 40.3973 59.02ZM40.1813 65.152C40.5413 64.564 40.7333 63.772 40.7333 62.776C40.7333 61.792 40.5413 61 40.1813 60.4C39.8213 59.812 39.2933 59.512 38.6213 59.512C37.9373 59.512 37.4093 59.812 37.0493 60.4C36.6893 61 36.5093 61.792 36.5093 62.776C36.5093 63.772 36.6893 64.564 37.0493 65.152C37.4093 65.752 37.9373 66.04 38.6213 66.04C39.2933 66.04 39.8213 65.752 40.1813 65.152ZM48.073 59.02C48.553 59.392 48.925 59.908 49.177 60.556C49.429 61.204 49.561 61.948 49.561 62.776C49.561 63.616 49.429 64.36 49.177 65.008C48.925 65.656 48.553 66.172 48.073 66.544C47.581 66.916 46.993 67.096 46.297 67.096C45.601 67.096 45.001 66.916 44.521 66.544C44.029 66.172 43.657 65.656 43.405 65.008C43.153 64.36 43.033 63.616 43.033 62.776C43.033 61.948 43.153 61.204 43.405 60.556C43.657 59.908 44.029 59.392 44.521 59.02C45.001 58.648 45.601 58.456 46.297 58.456C46.993 58.456 47.581 58.648 48.073 59.02ZM47.857 65.152C48.217 64.564 48.409 63.772 48.409 62.776C48.409 61.792 48.217 61 47.857 60.4C47.497 59.812 46.969 59.512 46.297 59.512C45.613 59.512 45.085 59.812 44.725 60.4C44.365 61 44.185 61.792 44.185 62.776C44.185 63.772 44.365 64.564 44.725 65.152C45.085 65.752 45.613 66.04 46.297 66.04C46.969 66.04 47.497 65.752 47.857 65.152ZM51.1888 67V63.916H50.2528V63.148H51.1888V62.164H50.2528V61.396H51.1888V58.432H52.4368L53.5768 61.396H54.9928V58.432H55.9408V61.396H56.8768V62.164H55.9408V63.148H56.8768V63.916H55.9408V67H54.6808L53.5408 63.916H52.1248V67H51.1888ZM52.1248 63.148H53.2528L52.8928 62.164H52.1008L52.1248 63.148ZM54.9928 65.308H55.0408L55.0048 63.916H54.5008L54.9928 65.308ZM52.1008 61.396H52.6048L52.1008 59.908H52.0528L52.1008 61.396ZM54.2128 63.148H55.0168L54.9928 62.164H53.8528L54.2128 63.148Z" fill="#979797"/>
<path d="M25.9505 103.436C26.2025 103.784 26.3345 104.18 26.3345 104.636C26.3345 105.104 26.2025 105.524 25.9625 105.896C25.7105 106.268 25.3505 106.556 24.8705 106.772C24.3905 106.988 23.8145 107.096 23.1665 107.096C22.5065 107.096 21.9425 106.988 21.4625 106.772C20.9825 106.556 20.6105 106.268 20.3705 105.896C20.1185 105.524 19.9985 105.104 19.9985 104.636C19.9985 104.192 20.1185 103.796 20.3825 103.448C20.6345 103.112 20.9945 102.848 21.4625 102.68C21.4745 102.68 21.5105 102.68 21.5585 102.656C21.6065 102.644 21.6425 102.608 21.6425 102.548C21.6425 102.5 21.6065 102.464 21.5585 102.452C21.5105 102.44 21.4745 102.428 21.4745 102.416C21.1025 102.26 20.8145 102.032 20.5985 101.732C20.3825 101.432 20.2865 101.096 20.2865 100.712C20.2865 100.292 20.3945 99.908 20.6225 99.56C20.8385 99.224 21.1745 98.948 21.6065 98.756C22.0385 98.564 22.5665 98.456 23.1665 98.456C23.7665 98.456 24.2825 98.564 24.7145 98.756C25.1465 98.948 25.4825 99.224 25.7105 99.56C25.9265 99.908 26.0465 100.292 26.0465 100.712C26.0465 101.096 25.9385 101.432 25.7225 101.744C25.5065 102.056 25.2185 102.272 24.8585 102.416C24.8465 102.428 24.8105 102.44 24.7625 102.452C24.7145 102.464 24.6905 102.5 24.6905 102.548C24.6905 102.608 24.7145 102.644 24.7625 102.656C24.8105 102.68 24.8465 102.68 24.8705 102.68C25.3265 102.836 25.6865 103.088 25.9505 103.436ZM21.8705 101.72C22.1585 101.96 22.5905 102.08 23.1665 102.08C23.7425 102.08 24.1745 101.96 24.4625 101.72C24.7505 101.48 24.8945 101.168 24.8945 100.772C24.8945 100.388 24.7505 100.064 24.4625 99.824C24.1745 99.584 23.7425 99.464 23.1665 99.464C22.5905 99.464 22.1585 99.584 21.8705 99.824C21.5825 100.064 21.4385 100.388 21.4385 100.772C21.4385 101.168 21.5825 101.48 21.8705 101.72ZM24.6665 105.668C25.0025 105.392 25.1825 105.032 25.1825 104.588C25.1825 104.156 25.0025 103.808 24.6425 103.52C24.2825 103.232 23.7905 103.088 23.1665 103.088C22.5425 103.088 22.0505 103.232 21.6905 103.52C21.3305 103.808 21.1505 104.156 21.1505 104.588C21.1505 105.032 21.3185 105.392 21.6665 105.668C22.0025 105.956 22.5065 106.088 23.1665 106.088C23.8145 106.088 24.3185 105.956 24.6665 105.668ZM32.7215 99.02C33.2015 99.392 33.5735 99.908 33.8255 100.556C34.0775 101.204 34.2095 101.948 34.2095 102.776C34.2095 103.616 34.0775 104.36 33.8255 105.008C33.5735 105.656 33.2015 106.172 32.7215 106.544C32.2295 106.916 31.6415 107.096 30.9455 107.096C30.2495 107.096 29.6495 106.916 29.1695 106.544C28.6775 106.172 28.3055 105.656 28.0535 105.008C27.8015 104.36 27.6815 103.616 27.6815 102.776C27.6815 101.948 27.8015 101.204 28.0535 100.556C28.3055 99.908 28.6775 99.392 29.1695 99.02C29.6495 98.648 30.2495 98.456 30.9455 98.456C31.6415 98.456 32.2295 98.648 32.7215 99.02ZM32.5055 105.152C32.8655 104.564 33.0575 103.772 33.0575 102.776C33.0575 101.792 32.8655 101 32.5055 100.4C32.1455 99.812 31.6175 99.512 30.9455 99.512C30.2615 99.512 29.7335 99.812 29.3735 100.4C29.0135 101 28.8335 101.792 28.8335 102.776C28.8335 103.772 29.0135 104.564 29.3735 105.152C29.7335 105.752 30.2615 106.04 30.9455 106.04C31.6175 106.04 32.1455 105.752 32.5055 105.152ZM40.3973 99.02C40.8773 99.392 41.2493 99.908 41.5013 100.556C41.7533 101.204 41.8853 101.948 41.8853 102.776C41.8853 103.616 41.7533 104.36 41.5013 105.008C41.2493 105.656 40.8773 106.172 40.3973 106.544C39.9053 106.916 39.3173 107.096 38.6213 107.096C37.9253 107.096 37.3253 106.916 36.8453 106.544C36.3533 106.172 35.9813 105.656 35.7293 105.008C35.4773 104.36 35.3573 103.616 35.3573 102.776C35.3573 101.948 35.4773 101.204 35.7293 100.556C35.9813 99.908 36.3533 99.392 36.8453 99.02C37.3253 98.648 37.9253 98.456 38.6213 98.456C39.3173 98.456 39.9053 98.648 40.3973 99.02ZM40.1813 105.152C40.5413 104.564 40.7333 103.772 40.7333 102.776C40.7333 101.792 40.5413 101 40.1813 100.4C39.8213 99.812 39.2933 99.512 38.6213 99.512C37.9373 99.512 37.4093 99.812 37.0493 100.4C36.6893 101 36.5093 101.792 36.5093 102.776C36.5093 103.772 36.6893 104.564 37.0493 105.152C37.4093 105.752 37.9373 106.04 38.6213 106.04C39.2933 106.04 39.8213 105.752 40.1813 105.152ZM48.073 99.02C48.553 99.392 48.925 99.908 49.177 100.556C49.429 101.204 49.561 101.948 49.561 102.776C49.561 103.616 49.429 104.36 49.177 105.008C48.925 105.656 48.553 106.172 48.073 106.544C47.581 106.916 46.993 107.096 46.297 107.096C45.601 107.096 45.001 106.916 44.521 106.544C44.029 106.172 43.657 105.656 43.405 105.008C43.153 104.36 43.033 103.616 43.033 102.776C43.033 101.948 43.153 101.204 43.405 100.556C43.657 99.908 44.029 99.392 44.521 99.02C45.001 98.648 45.601 98.456 46.297 98.456C46.993 98.456 47.581 98.648 48.073 99.02ZM47.857 105.152C48.217 104.564 48.409 103.772 48.409 102.776C48.409 101.792 48.217 101 47.857 100.4C47.497 99.812 46.969 99.512 46.297 99.512C45.613 99.512 45.085 99.812 44.725 100.4C44.365 101 44.185 101.792 44.185 102.776C44.185 103.772 44.365 104.564 44.725 105.152C45.085 105.752 45.613 106.04 46.297 106.04C46.969 106.04 47.497 105.752 47.857 105.152ZM51.1888 107V103.916H50.2528V103.148H51.1888V102.164H50.2528V101.396H51.1888V98.432H52.4368L53.5768 101.396H54.9928V98.432H55.9408V101.396H56.8768V102.164H55.9408V103.148H56.8768V103.916H55.9408V107H54.6808L53.5408 103.916H52.1248V107H51.1888ZM52.1248 103.148H53.2528L52.8928 102.164H52.1008L52.1248 103.148ZM54.9928 105.308H55.0408L55.0048 103.916H54.5008L54.9928 105.308ZM52.1008 101.396H52.6048L52.1008 99.908H52.0528L52.1008 101.396ZM54.2128 103.148H55.0168L54.9928 102.164H53.8528L54.2128 103.148Z" fill="#979797"/>
<path d="M20.9417 139.776C21.4457 138.9 22.2737 138.456 23.4257 138.456C23.9657 138.456 24.4337 138.564 24.8417 138.756C25.2377 138.948 25.5497 139.212 25.7657 139.548C25.9817 139.884 26.1137 140.256 26.1497 140.664H25.0457C24.9857 140.364 24.8297 140.1 24.5777 139.86C24.3257 139.632 23.9417 139.512 23.4377 139.512C22.2977 139.512 21.6377 140.22 21.4577 141.636C21.4337 141.756 21.3857 141.888 21.3137 142.032C21.2897 142.068 21.2777 142.104 21.2537 142.14C21.2297 142.188 21.2057 142.224 21.2057 142.248C21.2057 142.272 21.2177 142.296 21.2537 142.308H21.2777C21.3017 142.308 21.3377 142.284 21.3977 142.224C21.6137 141.972 21.9017 141.768 22.2617 141.612C22.6217 141.456 23.0417 141.372 23.5457 141.372C24.0977 141.372 24.5897 141.492 25.0217 141.708C25.4417 141.936 25.7657 142.248 25.9937 142.656C26.2217 143.064 26.3417 143.544 26.3417 144.072C26.3417 144.648 26.2097 145.164 25.9577 145.62C25.6937 146.076 25.3457 146.436 24.8897 146.7C24.4337 146.964 23.9057 147.096 23.3177 147.096C22.3457 147.096 21.5777 146.796 21.0257 146.196C20.4737 145.596 20.1977 144.696 20.1977 143.484C20.1977 141.9 20.4377 140.664 20.9417 139.776ZM21.8657 145.512C22.2017 145.872 22.6697 146.04 23.2697 146.04C23.8577 146.04 24.3257 145.872 24.6737 145.512C25.0097 145.164 25.1897 144.72 25.1897 144.18C25.1897 143.616 25.0217 143.172 24.6857 142.86C24.3497 142.548 23.8697 142.392 23.2697 142.392C22.6697 142.392 22.1897 142.56 21.8537 142.884C21.5177 143.22 21.3497 143.652 21.3497 144.18C21.3497 144.72 21.5177 145.164 21.8657 145.512ZM32.7215 139.02C33.2015 139.392 33.5735 139.908 33.8255 140.556C34.0775 141.204 34.2095 141.948 34.2095 142.776C34.2095 143.616 34.0775 144.36 33.8255 145.008C33.5735 145.656 33.2015 146.172 32.7215 146.544C32.2295 146.916 31.6415 147.096 30.9455 147.096C30.2495 147.096 29.6495 146.916 29.1695 146.544C28.6775 146.172 28.3055 145.656 28.0535 145.008C27.8015 144.36 27.6815 143.616 27.6815 142.776C27.6815 141.948 27.8015 141.204 28.0535 140.556C28.3055 139.908 28.6775 139.392 29.1695 139.02C29.6495 138.648 30.2495 138.456 30.9455 138.456C31.6415 138.456 32.2295 138.648 32.7215 139.02ZM32.5055 145.152C32.8655 144.564 33.0575 143.772 33.0575 142.776C33.0575 141.792 32.8655 141 32.5055 140.4C32.1455 139.812 31.6175 139.512 30.9455 139.512C30.2615 139.512 29.7335 139.812 29.3735 140.4C29.0135 141 28.8335 141.792 28.8335 142.776C28.8335 143.772 29.0135 144.564 29.3735 145.152C29.7335 145.752 30.2615 146.04 30.9455 146.04C31.6175 146.04 32.1455 145.752 32.5055 145.152ZM40.3973 139.02C40.8773 139.392 41.2493 139.908 41.5013 140.556C41.7533 141.204 41.8853 141.948 41.8853 142.776C41.8853 143.616 41.7533 144.36 41.5013 145.008C41.2493 145.656 40.8773 146.172 40.3973 146.544C39.9053 146.916 39.3173 147.096 38.6213 147.096C37.9253 147.096 37.3253 146.916 36.8453 146.544C36.3533 146.172 35.9813 145.656 35.7293 145.008C35.4773 144.36 35.3573 143.616 35.3573 142.776C35.3573 141.948 35.4773 141.204 35.7293 140.556C35.9813 139.908 36.3533 139.392 36.8453 139.02C37.3253 138.648 37.9253 138.456 38.6213 138.456C39.3173 138.456 39.9053 138.648 40.3973 139.02ZM40.1813 145.152C40.5413 144.564 40.7333 143.772 40.7333 142.776C40.7333 141.792 40.5413 141 40.1813 140.4C39.8213 139.812 39.2933 139.512 38.6213 139.512C37.9373 139.512 37.4093 139.812 37.0493 140.4C36.6893 141 36.5093 141.792 36.5093 142.776C36.5093 143.772 36.6893 144.564 37.0493 145.152C37.4093 145.752 37.9373 146.04 38.6213 146.04C39.2933 146.04 39.8213 145.752 40.1813 145.152ZM48.073 139.02C48.553 139.392 48.925 139.908 49.177 140.556C49.429 141.204 49.561 141.948 49.561 142.776C49.561 143.616 49.429 144.36 49.177 145.008C48.925 145.656 48.553 146.172 48.073 146.544C47.581 146.916 46.993 147.096 46.297 147.096C45.601 147.096 45.001 146.916 44.521 146.544C44.029 146.172 43.657 145.656 43.405 145.008C43.153 144.36 43.033 143.616 43.033 142.776C43.033 141.948 43.153 141.204 43.405 140.556C43.657 139.908 44.029 139.392 44.521 139.02C45.001 138.648 45.601 138.456 46.297 138.456C46.993 138.456 47.581 138.648 48.073 139.02ZM47.857 145.152C48.217 144.564 48.409 143.772 48.409 142.776C48.409 141.792 48.217 141 47.857 140.4C47.497 139.812 46.969 139.512 46.297 139.512C45.613 139.512 45.085 139.812 44.725 140.4C44.365 141 44.185 141.792 44.185 142.776C44.185 143.772 44.365 144.564 44.725 145.152C45.085 145.752 45.613 146.04 46.297 146.04C46.969 146.04 47.497 145.752 47.857 145.152ZM51.1888 147V143.916H50.2528V143.148H51.1888V142.164H50.2528V141.396H51.1888V138.432H52.4368L53.5768 141.396H54.9928V138.432H55.9408V141.396H56.8768V142.164H55.9408V143.148H56.8768V143.916H55.9408V147H54.6808L53.5408 143.916H52.1248V147H51.1888ZM52.1248 143.148H53.2528L52.8928 142.164H52.1008L52.1248 143.148ZM54.9928 145.308H55.0408L55.0048 143.916H54.5008L54.9928 145.308ZM52.1008 141.396H52.6048L52.1008 139.908H52.0528L52.1008 141.396ZM54.2128 143.148H55.0168L54.9928 142.164H53.8528L54.2128 143.148Z" fill="#979797"/>
<path d="M19.811 184.024L23.411 178.552H25.187V184.216H26.339V185.224H25.187V187H24.035V185.224H19.811V184.024ZM20.795 184.456C20.783 184.492 20.795 184.516 20.819 184.54C20.843 184.564 20.867 184.564 20.879 184.564C20.903 184.564 20.939 184.54 20.999 184.48C21.095 184.396 21.191 184.336 21.311 184.288C21.431 184.24 21.587 184.216 21.779 184.216H24.035V180.16C24.035 179.944 24.071 179.74 24.143 179.548C24.143 179.524 24.155 179.5 24.167 179.464C24.179 179.44 24.179 179.416 24.179 179.392C24.179 179.368 24.167 179.356 24.143 179.332C24.131 179.332 24.119 179.32 24.095 179.32C24.059 179.32 24.023 179.344 23.999 179.392L20.843 184.36C20.819 184.396 20.795 184.432 20.795 184.456ZM32.7215 179.02C33.2015 179.392 33.5735 179.908 33.8255 180.556C34.0775 181.204 34.2095 181.948 34.2095 182.776C34.2095 183.616 34.0775 184.36 33.8255 185.008C33.5735 185.656 33.2015 186.172 32.7215 186.544C32.2295 186.916 31.6415 187.096 30.9455 187.096C30.2495 187.096 29.6495 186.916 29.1695 186.544C28.6775 186.172 28.3055 185.656 28.0535 185.008C27.8015 184.36 27.6815 183.616 27.6815 182.776C27.6815 181.948 27.8015 181.204 28.0535 180.556C28.3055 179.908 28.6775 179.392 29.1695 179.02C29.6495 178.648 30.2495 178.456 30.9455 178.456C31.6415 178.456 32.2295 178.648 32.7215 179.02ZM32.5055 185.152C32.8655 184.564 33.0575 183.772 33.0575 182.776C33.0575 181.792 32.8655 181 32.5055 180.4C32.1455 179.812 31.6175 179.512 30.9455 179.512C30.2615 179.512 29.7335 179.812 29.3735 180.4C29.0135 181 28.8335 181.792 28.8335 182.776C28.8335 183.772 29.0135 184.564 29.3735 185.152C29.7335 185.752 30.2615 186.04 30.9455 186.04C31.6175 186.04 32.1455 185.752 32.5055 185.152ZM40.3973 179.02C40.8773 179.392 41.2493 179.908 41.5013 180.556C41.7533 181.204 41.8853 181.948 41.8853 182.776C41.8853 183.616 41.7533 184.36 41.5013 185.008C41.2493 185.656 40.8773 186.172 40.3973 186.544C39.9053 186.916 39.3173 187.096 38.6213 187.096C37.9253 187.096 37.3253 186.916 36.8453 186.544C36.3533 186.172 35.9813 185.656 35.7293 185.008C35.4773 184.36 35.3573 183.616 35.3573 182.776C35.3573 181.948 35.4773 181.204 35.7293 180.556C35.9813 179.908 36.3533 179.392 36.8453 179.02C37.3253 178.648 37.9253 178.456 38.6213 178.456C39.3173 178.456 39.9053 178.648 40.3973 179.02ZM40.1813 185.152C40.5413 184.564 40.7333 183.772 40.7333 182.776C40.7333 181.792 40.5413 181 40.1813 180.4C39.8213 179.812 39.2933 179.512 38.6213 179.512C37.9373 179.512 37.4093 179.812 37.0493 180.4C36.6893 181 36.5093 181.792 36.5093 182.776C36.5093 183.772 36.6893 184.564 37.0493 185.152C37.4093 185.752 37.9373 186.04 38.6213 186.04C39.2933 186.04 39.8213 185.752 40.1813 185.152ZM48.073 179.02C48.553 179.392 48.925 179.908 49.177 180.556C49.429 181.204 49.561 181.948 49.561 182.776C49.561 183.616 49.429 184.36 49.177 185.008C48.925 185.656 48.553 186.172 48.073 186.544C47.581 186.916 46.993 187.096 46.297 187.096C45.601 187.096 45.001 186.916 44.521 186.544C44.029 186.172 43.657 185.656 43.405 185.008C43.153 184.36 43.033 183.616 43.033 182.776C43.033 181.948 43.153 181.204 43.405 180.556C43.657 179.908 44.029 179.392 44.521 179.02C45.001 178.648 45.601 178.456 46.297 178.456C46.993 178.456 47.581 178.648 48.073 179.02ZM47.857 185.152C48.217 184.564 48.409 183.772 48.409 182.776C48.409 181.792 48.217 181 47.857 180.4C47.497 179.812 46.969 179.512 46.297 179.512C45.613 179.512 45.085 179.812 44.725 180.4C44.365 181 44.185 181.792 44.185 182.776C44.185 183.772 44.365 184.564 44.725 185.152C45.085 185.752 45.613 186.04 46.297 186.04C46.969 186.04 47.497 185.752 47.857 185.152ZM51.1888 187V183.916H50.2528V183.148H51.1888V182.164H50.2528V181.396H51.1888V178.432H52.4368L53.5768 181.396H54.9928V178.432H55.9408V181.396H56.8768V182.164H55.9408V183.148H56.8768V183.916H55.9408V187H54.6808L53.5408 183.916H52.1248V187H51.1888ZM52.1248 183.148H53.2528L52.8928 182.164H52.1008L52.1248 183.148ZM54.9928 185.308H55.0408L55.0048 183.916H54.5008L54.9928 185.308ZM52.1008 181.396H52.6048L52.1008 179.908H52.0528L52.1008 181.396ZM54.2128 183.148H55.0168L54.9928 182.164H53.8528L54.2128 183.148Z" fill="#979797"/>
<path d="M21.5372 224.804C22.4252 224.3 23.1092 223.892 23.5892 223.568C24.0692 223.244 24.4532 222.884 24.7412 222.476C25.0292 222.068 25.1852 221.612 25.1852 221.084C25.1852 220.64 25.0412 220.268 24.7532 219.968C24.4652 219.668 24.0092 219.512 23.3852 219.512C22.7372 219.512 22.2572 219.704 21.9692 220.076C21.6812 220.46 21.5372 220.94 21.5372 221.516H20.3852C20.3852 220.94 20.4932 220.424 20.7212 219.968C20.9372 219.512 21.2732 219.14 21.7292 218.864C22.1852 218.6 22.7372 218.456 23.3852 218.456C24.3452 218.456 25.0772 218.708 25.5812 219.2C26.0852 219.692 26.3372 220.352 26.3372 221.18C26.3372 221.852 26.1572 222.428 25.7972 222.932C25.4372 223.436 25.0052 223.868 24.4892 224.228C23.9612 224.588 23.2772 224.996 22.4132 225.464L21.4532 226.004C21.3572 226.064 21.3332 226.112 21.3692 226.16C21.3692 226.184 21.3932 226.184 21.4292 226.184C21.4532 226.184 21.4892 226.172 21.5612 226.136C21.6692 226.076 21.7892 226.04 21.9212 226.016C22.0412 226.004 22.2212 225.992 22.4612 225.992H26.5292V227H20.3852V225.464C21.0692 225.068 21.4532 224.852 21.5372 224.804ZM32.7215 219.02C33.2015 219.392 33.5735 219.908 33.8255 220.556C34.0775 221.204 34.2095 221.948 34.2095 222.776C34.2095 223.616 34.0775 224.36 33.8255 225.008C33.5735 225.656 33.2015 226.172 32.7215 226.544C32.2295 226.916 31.6415 227.096 30.9455 227.096C30.2495 227.096 29.6495 226.916 29.1695 226.544C28.6775 226.172 28.3055 225.656 28.0535 225.008C27.8015 224.36 27.6815 223.616 27.6815 222.776C27.6815 221.948 27.8015 221.204 28.0535 220.556C28.3055 219.908 28.6775 219.392 29.1695 219.02C29.6495 218.648 30.2495 218.456 30.9455 218.456C31.6415 218.456 32.2295 218.648 32.7215 219.02ZM32.5055 225.152C32.8655 224.564 33.0575 223.772 33.0575 222.776C33.0575 221.792 32.8655 221 32.5055 220.4C32.1455 219.812 31.6175 219.512 30.9455 219.512C30.2615 219.512 29.7335 219.812 29.3735 220.4C29.0135 221 28.8335 221.792 28.8335 222.776C28.8335 223.772 29.0135 224.564 29.3735 225.152C29.7335 225.752 30.2615 226.04 30.9455 226.04C31.6175 226.04 32.1455 225.752 32.5055 225.152ZM40.3973 219.02C40.8773 219.392 41.2493 219.908 41.5013 220.556C41.7533 221.204 41.8853 221.948 41.8853 222.776C41.8853 223.616 41.7533 224.36 41.5013 225.008C41.2493 225.656 40.8773 226.172 40.3973 226.544C39.9053 226.916 39.3173 227.096 38.6213 227.096C37.9253 227.096 37.3253 226.916 36.8453 226.544C36.3533 226.172 35.9813 225.656 35.7293 225.008C35.4773 224.36 35.3573 223.616 35.3573 222.776C35.3573 221.948 35.4773 221.204 35.7293 220.556C35.9813 219.908 36.3533 219.392 36.8453 219.02C37.3253 218.648 37.9253 218.456 38.6213 218.456C39.3173 218.456 39.9053 218.648 40.3973 219.02ZM40.1813 225.152C40.5413 224.564 40.7333 223.772 40.7333 222.776C40.7333 221.792 40.5413 221 40.1813 220.4C39.8213 219.812 39.2933 219.512 38.6213 219.512C37.9373 219.512 37.4093 219.812 37.0493 220.4C36.6893 221 36.5093 221.792 36.5093 222.776C36.5093 223.772 36.6893 224.564 37.0493 225.152C37.4093 225.752 37.9373 226.04 38.6213 226.04C39.2933 226.04 39.8213 225.752 40.1813 225.152ZM48.073 219.02C48.553 219.392 48.925 219.908 49.177 220.556C49.429 221.204 49.561 221.948 49.561 222.776C49.561 223.616 49.429 224.36 49.177 225.008C48.925 225.656 48.553 226.172 48.073 226.544C47.581 226.916 46.993 227.096 46.297 227.096C45.601 227.096 45.001 226.916 44.521 226.544C44.029 226.172 43.657 225.656 43.405 225.008C43.153 224.36 43.033 223.616 43.033 222.776C43.033 221.948 43.153 221.204 43.405 220.556C43.657 219.908 44.029 219.392 44.521 219.02C45.001 218.648 45.601 218.456 46.297 218.456C46.993 218.456 47.581 218.648 48.073 219.02ZM47.857 225.152C48.217 224.564 48.409 223.772 48.409 222.776C48.409 221.792 48.217 221 47.857 220.4C47.497 219.812 46.969 219.512 46.297 219.512C45.613 219.512 45.085 219.812 44.725 220.4C44.365 221 44.185 221.792 44.185 222.776C44.185 223.772 44.365 224.564 44.725 225.152C45.085 225.752 45.613 226.04 46.297 226.04C46.969 226.04 47.497 225.752 47.857 225.152ZM51.1888 227V223.916H50.2528V223.148H51.1888V222.164H50.2528V221.396H51.1888V218.432H52.4368L53.5768 221.396H54.9928V218.432H55.9408V221.396H56.8768V222.164H55.9408V223.148H56.8768V223.916H55.9408V227H54.6808L53.5408 223.916H52.1248V227H51.1888ZM52.1248 223.148H53.2528L52.8928 222.164H52.1008L52.1248 223.148ZM54.9928 225.308H55.0408L55.0048 223.916H54.5008L54.9928 225.308ZM52.1008 221.396H52.6048L52.1008 219.908H52.0528L52.1008 221.396ZM54.2128 223.148H55.0168L54.9928 222.164H53.8528L54.2128 223.148Z" fill="#979797"/>
<path d="M54.9402 259.02C55.4202 259.392 55.7922 259.908 56.0442 260.556C56.2962 261.204 56.4282 261.948 56.4282 262.776C56.4282 263.616 56.2962 264.36 56.0442 265.008C55.7922 265.656 55.4202 266.172 54.9402 266.544C54.4482 266.916 53.8602 267.096 53.1642 267.096C52.4682 267.096 51.8682 266.916 51.3882 266.544C50.8962 266.172 50.5242 265.656 50.2722 265.008C50.0202 264.36 49.9002 263.616 49.9002 262.776C49.9002 261.948 50.0202 261.204 50.2722 260.556C50.5242 259.908 50.8962 259.392 51.3882 259.02C51.8682 258.648 52.4682 258.456 53.1642 258.456C53.8602 258.456 54.4482 258.648 54.9402 259.02ZM54.7242 265.152C55.0842 264.564 55.2762 263.772 55.2762 262.776C55.2762 261.792 55.0842 261 54.7242 260.4C54.3642 259.812 53.8362 259.512 53.1642 259.512C52.4802 259.512 51.9522 259.812 51.5922 260.4C51.2322 261 51.0522 261.792 51.0522 262.776C51.0522 263.772 51.2322 264.564 51.5922 265.152C51.9522 265.752 52.4802 266.04 53.1642 266.04C53.8362 266.04 54.3642 265.752 54.7242 265.152Z" fill="#979797"/>
<line x1="61" y1="61.5" x2="336" y2="61.5" stroke="#E8EBEF"/>
<line x1="61" y1="101.5" x2="336" y2="101.5" stroke="#E8EBEF"/>
<line x1="61" y1="141.5" x2="336" y2="141.5" stroke="#E8EBEF"/>
<line x1="61" y1="181.5" x2="336" y2="181.5" stroke="#E8EBEF"/>
<line x1="61" y1="221.5" x2="336" y2="221.5" stroke="#E8EBEF"/>
<line x1="61" y1="261.5" x2="336" y2="261.5" stroke="#E8EBEF"/>
<rect width="16" height="134" transform="translate(71 128)" fill="#4E38B2"/>
<rect width="16" height="76" transform="translate(111 186)" fill="#4E38B2"/>
<rect width="16" height="170" transform="translate(151 92)" fill="#4E38B2"/>
<rect width="16" height="19" transform="translate(191 243)" fill="#4E38B2"/>
<rect width="16" height="108" transform="translate(231 154)" fill="#4E38B2"/>
<rect width="16" height="44" transform="translate(271 218)" fill="#4E38B2"/>
<rect width="16" height="93" transform="translate(311 169)" fill="#4E38B2"/>
<path d="M76.5521 286.404C77.0081 286.572 77.3801 286.812 77.6561 287.148C77.9201 287.484 78.0641 287.928 78.0641 288.48C78.0641 288.96 77.9321 289.392 77.6801 289.788C77.4161 290.184 77.0321 290.496 76.5281 290.736C76.0241 290.976 75.4121 291.096 74.7041 291.096C73.9601 291.096 73.3361 290.964 72.8321 290.676C72.3281 290.388 71.9441 290.016 71.7041 289.548C71.4641 289.08 71.3441 288.576 71.3441 288.024H72.5441C72.5561 288.552 72.7241 289.02 73.0601 289.428C73.3961 289.836 73.9361 290.04 74.7041 290.04C75.4481 290.04 75.9881 289.896 76.3241 289.596C76.6481 289.296 76.8161 288.948 76.8161 288.552C76.8161 288.168 76.6601 287.88 76.3481 287.664C76.0361 287.448 75.4841 287.292 74.6921 287.196C73.6721 287.076 72.9041 286.836 72.4001 286.452C71.8841 286.08 71.6321 285.54 71.6321 284.832C71.6321 284.388 71.7521 283.98 71.9921 283.62C72.2321 283.26 72.5921 282.984 73.0601 282.768C73.5281 282.564 74.0801 282.456 74.7161 282.456C75.3761 282.456 75.9281 282.588 76.3841 282.828C76.8281 283.08 77.1641 283.404 77.3801 283.812C77.5961 284.22 77.7161 284.664 77.7401 285.144H76.5761C76.5761 284.88 76.5041 284.616 76.3841 284.364C76.2521 284.124 76.0481 283.92 75.7601 283.752C75.4721 283.596 75.1241 283.512 74.6921 283.512C74.0441 283.512 73.5881 283.644 73.3001 283.884C73.0121 284.136 72.8681 284.424 72.8681 284.76C72.8681 285.072 72.9881 285.336 73.2521 285.552C73.5161 285.768 74.0321 285.924 74.8121 286.02C75.5081 286.116 76.0961 286.248 76.5521 286.404ZM79.6124 290.46C79.2164 290.04 79.0244 289.392 79.0244 288.504V284.856H80.1764V288.264C80.1764 288.936 80.2964 289.416 80.5484 289.68C80.8004 289.956 81.1484 290.088 81.5924 290.088C81.8924 290.088 82.1804 289.992 82.4684 289.8C82.7564 289.608 82.9844 289.32 83.1644 288.96C83.3444 288.6 83.4404 288.192 83.4404 287.724V284.856H84.5924V291H83.4404V290.592C83.4404 290.304 83.4764 290.04 83.5724 289.776C83.5964 289.704 83.6204 289.644 83.6204 289.608C83.6204 289.572 83.5964 289.548 83.5604 289.524H83.5364C83.5004 289.524 83.4644 289.56 83.4284 289.632C83.2364 290.004 82.9604 290.34 82.6004 290.64C82.2284 290.952 81.7964 291.096 81.3044 291.096C80.5724 291.096 80.0084 290.892 79.6124 290.46ZM91.0047 285.396C91.4007 285.828 91.6047 286.476 91.6047 287.352V291H90.4527V287.592C90.4527 286.92 90.3207 286.452 90.0687 286.176C89.8167 285.912 89.4687 285.768 89.0367 285.768C88.7247 285.768 88.4367 285.876 88.1487 286.068C87.8607 286.26 87.6327 286.536 87.4527 286.896C87.2727 287.256 87.1887 287.676 87.1887 288.132V291H86.0367V284.856H87.1887V285.264C87.1887 285.552 87.1407 285.828 87.0567 286.08C87.0327 286.164 87.0087 286.224 87.0087 286.26C87.0087 286.308 87.0207 286.332 87.0687 286.332H87.0927C87.1287 286.332 87.1647 286.296 87.2007 286.224C87.2847 286.008 87.4287 285.792 87.6327 285.564C87.8247 285.336 88.0767 285.144 88.3647 284.988C88.6527 284.844 88.9767 284.76 89.3247 284.76C90.0447 284.76 90.6087 284.976 91.0047 285.396Z" fill="#979797"/>
<path d="M111.832 282.552L113.8 289.416C113.848 289.608 113.884 289.824 113.896 290.04C113.896 290.088 113.896 290.124 113.908 290.148C113.92 290.172 113.944 290.184 113.992 290.184C114.028 290.184 114.052 290.172 114.064 290.148C114.076 290.124 114.088 290.088 114.088 290.04C114.088 289.824 114.124 289.608 114.184 289.416L116.152 282.552H118.408V291H117.16V284.1C117.16 283.884 117.196 283.644 117.268 283.38C117.28 283.32 117.292 283.272 117.292 283.248C117.292 283.224 117.268 283.2 117.232 283.188H117.208C117.16 283.188 117.136 283.224 117.112 283.284L114.808 291H113.176L110.872 283.284C110.848 283.224 110.812 283.188 110.776 283.188C110.716 283.188 110.692 283.212 110.692 283.26C110.692 283.284 110.692 283.32 110.716 283.38C110.788 283.644 110.824 283.884 110.824 284.1V291H109.576V282.552H111.832ZM124.111 285.18C124.567 285.468 124.915 285.852 125.155 286.332C125.395 286.812 125.515 287.352 125.515 287.928C125.515 288.516 125.395 289.056 125.155 289.536C124.915 290.016 124.567 290.4 124.111 290.676C123.655 290.964 123.139 291.096 122.539 291.096C121.939 291.096 121.411 290.964 120.955 290.676C120.499 290.4 120.163 290.016 119.923 289.536C119.683 289.056 119.563 288.516 119.563 287.928C119.563 287.352 119.683 286.812 119.923 286.332C120.163 285.852 120.499 285.468 120.955 285.18C121.411 284.904 121.939 284.76 122.539 284.76C123.139 284.76 123.655 284.904 124.111 285.18ZM123.871 289.44C124.195 289.032 124.363 288.528 124.363 287.928C124.363 287.328 124.195 286.836 123.871 286.428C123.535 286.02 123.091 285.816 122.539 285.816C121.975 285.816 121.531 286.02 121.207 286.428C120.871 286.836 120.715 287.328 120.715 287.928C120.715 288.528 120.871 289.032 121.207 289.44C121.531 289.848 121.975 290.04 122.539 290.04C123.091 290.04 123.535 289.848 123.871 289.44ZM131.443 285.396C131.839 285.828 132.043 286.476 132.043 287.352V291H130.891V287.592C130.891 286.92 130.759 286.452 130.507 286.176C130.255 285.912 129.907 285.768 129.475 285.768C129.163 285.768 128.875 285.876 128.587 286.068C128.299 286.26 128.071 286.536 127.891 286.896C127.711 287.256 127.627 287.676 127.627 288.132V291H126.475V284.856H127.627V285.264C127.627 285.552 127.579 285.828 127.495 286.08C127.471 286.164 127.447 286.224 127.447 286.26C127.447 286.308 127.459 286.332 127.507 286.332H127.531C127.567 286.332 127.603 286.296 127.639 286.224C127.723 286.008 127.867 285.792 128.071 285.564C128.263 285.336 128.515 285.144 128.803 284.988C129.091 284.844 129.415 284.76 129.763 284.76C130.483 284.76 131.047 284.976 131.443 285.396Z" fill="#979797"/>
<path d="M156.779 282.552V283.608H154.139V291H152.891V283.608H150.251V282.552H156.779ZM157.757 290.46C157.361 290.04 157.169 289.392 157.169 288.504V284.856H158.321V288.264C158.321 288.936 158.441 289.416 158.693 289.68C158.945 289.956 159.293 290.088 159.737 290.088C160.037 290.088 160.325 289.992 160.613 289.8C160.901 289.608 161.129 289.32 161.309 288.96C161.489 288.6 161.585 288.192 161.585 287.724V284.856H162.737V291H161.585V290.592C161.585 290.304 161.621 290.04 161.717 289.776C161.741 289.704 161.765 289.644 161.765 289.608C161.765 289.572 161.741 289.548 161.705 289.524H161.681C161.645 289.524 161.609 289.56 161.573 289.632C161.381 290.004 161.105 290.34 160.745 290.64C160.373 290.952 159.941 291.096 159.449 291.096C158.717 291.096 158.153 290.892 157.757 290.46ZM169.428 288.264H164.844C164.88 288.78 165.072 289.2 165.408 289.536C165.744 289.872 166.176 290.04 166.716 290.04C167.112 290.04 167.424 289.956 167.652 289.764C167.88 289.572 168.048 289.296 168.168 288.924H169.356C169.212 289.548 168.924 290.076 168.468 290.484C168.012 290.892 167.424 291.096 166.692 291.096C166.068 291.096 165.528 290.964 165.072 290.676C164.616 290.4 164.28 290.016 164.052 289.536C163.812 289.056 163.704 288.528 163.704 287.928C163.704 287.328 163.824 286.776 164.076 286.296C164.316 285.816 164.664 285.444 165.12 285.168C165.576 284.904 166.092 284.76 166.668 284.76C167.148 284.76 167.592 284.88 168.024 285.096C168.456 285.312 168.804 285.66 169.068 286.116C169.332 286.584 169.464 287.16 169.464 287.844C169.464 287.988 169.452 288.132 169.428 288.264ZM168.312 287.304C168.264 286.848 168.108 286.476 167.832 286.188C167.544 285.912 167.184 285.768 166.728 285.768C166.188 285.768 165.768 285.912 165.48 286.188C165.192 286.476 165 286.848 164.904 287.304H168.312Z" fill="#979797"/>
<path d="M190.043 289.2C190.091 289.44 190.127 289.776 190.151 290.208C190.151 290.292 190.175 290.328 190.247 290.328C190.307 290.328 190.343 290.292 190.343 290.208C190.343 289.788 190.367 289.452 190.427 289.2L191.879 282.552H193.223L194.675 289.2C194.723 289.452 194.759 289.788 194.759 290.208C194.759 290.292 194.783 290.328 194.855 290.328C194.915 290.328 194.951 290.292 194.951 290.208C194.963 289.776 194.999 289.44 195.059 289.2L196.583 282.552H197.927L195.815 291H193.991L192.719 284.964C192.683 284.82 192.659 284.568 192.647 284.232C192.647 284.16 192.611 284.112 192.551 284.112C192.479 284.112 192.455 284.16 192.455 284.232C192.431 284.568 192.407 284.82 192.383 284.964L191.111 291H189.287L187.175 282.552H188.519L190.043 289.2ZM203.45 288.264H198.866C198.902 288.78 199.094 289.2 199.43 289.536C199.766 289.872 200.198 290.04 200.738 290.04C201.134 290.04 201.446 289.956 201.674 289.764C201.902 289.572 202.07 289.296 202.19 288.924H203.378C203.234 289.548 202.946 290.076 202.49 290.484C202.034 290.892 201.446 291.096 200.714 291.096C200.09 291.096 199.55 290.964 199.094 290.676C198.638 290.4 198.302 290.016 198.074 289.536C197.834 289.056 197.726 288.528 197.726 287.928C197.726 287.328 197.846 286.776 198.098 286.296C198.338 285.816 198.686 285.444 199.142 285.168C199.598 284.904 200.114 284.76 200.69 284.76C201.17 284.76 201.614 284.88 202.046 285.096C202.478 285.312 202.826 285.66 203.09 286.116C203.354 286.584 203.486 287.16 203.486 287.844C203.486 287.988 203.474 288.132 203.45 288.264ZM202.334 287.304C202.286 286.848 202.13 286.476 201.854 286.188C201.566 285.912 201.206 285.768 200.75 285.768C200.21 285.768 199.79 285.912 199.502 286.188C199.214 286.476 199.022 286.848 198.926 287.304H202.334ZM210.252 291H209.1V290.484C209.1 290.268 209.136 290.052 209.22 289.836C209.244 289.776 209.268 289.728 209.268 289.68C209.268 289.632 209.244 289.608 209.196 289.596H209.172C209.124 289.596 209.1 289.632 209.076 289.704C208.932 290.136 208.668 290.484 208.296 290.724C207.924 290.976 207.492 291.096 207.012 291.096C206.484 291.096 206.016 290.964 205.608 290.688C205.2 290.424 204.876 290.04 204.648 289.56C204.408 289.08 204.3 288.528 204.3 287.928C204.3 287.328 204.408 286.788 204.648 286.308C204.876 285.828 205.2 285.444 205.608 285.168C206.016 284.904 206.484 284.76 207.012 284.76C207.492 284.76 207.924 284.892 208.308 285.132C208.68 285.384 208.932 285.72 209.076 286.128C209.1 286.236 209.148 286.272 209.22 286.248C209.256 286.248 209.28 286.224 209.28 286.176C209.28 286.152 209.268 286.116 209.256 286.08C209.232 286.044 209.22 286.02 209.22 285.996C209.136 285.792 209.1 285.576 209.1 285.336V282.36H210.252V291ZM208.2 289.752C208.488 289.56 208.704 289.308 208.86 288.984C209.016 288.66 209.1 288.312 209.1 287.928C209.1 287.556 209.016 287.208 208.86 286.884C208.704 286.56 208.488 286.296 208.2 286.104C207.912 285.912 207.6 285.816 207.252 285.816C206.676 285.816 206.232 286.02 205.92 286.428C205.608 286.836 205.452 287.328 205.452 287.928C205.452 288.528 205.608 289.032 205.92 289.44C206.232 289.848 206.676 290.04 207.252 290.04C207.6 290.04 207.912 289.944 208.2 289.752Z" fill="#979797"/>
<path d="M234.49 282.552V283.608H231.85V291H230.602V283.608H227.962V282.552H234.49ZM240.615 285.396C241.011 285.828 241.215 286.476 241.215 287.352V291H240.063V287.592C240.063 286.92 239.931 286.452 239.679 286.176C239.427 285.912 239.079 285.768 238.647 285.768C238.335 285.768 238.047 285.876 237.759 286.068C237.471 286.26 237.243 286.536 237.063 286.896C236.883 287.256 236.799 287.676 236.799 288.132V291H235.647V282.36H236.799V285.264C236.799 285.552 236.751 285.828 236.667 286.08C236.643 286.164 236.619 286.224 236.619 286.26C236.619 286.308 236.631 286.332 236.679 286.332H236.703C236.739 286.332 236.775 286.296 236.811 286.224C236.895 286.008 237.039 285.792 237.243 285.564C237.435 285.336 237.687 285.144 237.975 284.988C238.263 284.844 238.587 284.76 238.935 284.76C239.655 284.76 240.219 284.976 240.615 285.396ZM242.957 290.46C242.561 290.04 242.369 289.392 242.369 288.504V284.856H243.521V288.264C243.521 288.936 243.641 289.416 243.893 289.68C244.145 289.956 244.493 290.088 244.937 290.088C245.237 290.088 245.525 289.992 245.813 289.8C246.101 289.608 246.329 289.32 246.509 288.96C246.689 288.6 246.785 288.192 246.785 287.724V284.856H247.937V291H246.785V290.592C246.785 290.304 246.821 290.04 246.917 289.776C246.941 289.704 246.965 289.644 246.965 289.608C246.965 289.572 246.941 289.548 246.905 289.524H246.881C246.845 289.524 246.809 289.56 246.773 289.632C246.581 290.004 246.305 290.34 245.945 290.64C245.573 290.952 245.141 291.096 244.649 291.096C243.917 291.096 243.353 290.892 242.957 290.46Z" fill="#979797"/>
<path d="M271.146 282.552H276.714V283.608H272.394V286.248H275.946V287.304H272.394V291H271.146V282.552ZM278.928 286.284C278.964 286.284 279 286.248 279.036 286.176C279.18 285.816 279.324 285.54 279.48 285.348C279.624 285.156 279.84 285 280.128 284.904C280.416 284.808 280.812 284.76 281.316 284.76V285.936C281.22 285.936 281.088 285.924 280.92 285.924C280.2 285.924 279.708 286.092 279.432 286.428C279.144 286.764 279.012 287.304 279.012 288.06V291H277.86V284.856H279.012V285.264C279.012 285.504 278.964 285.78 278.88 286.068C278.856 286.14 278.856 286.176 278.856 286.2C278.856 286.248 278.868 286.284 278.916 286.284H278.928ZM282.23 282.36H283.478V283.704H282.23V282.36ZM282.278 284.856H283.43V291H282.278V284.856Z" fill="#979797"/>
<path d="M312.71 286.404C313.166 286.572 313.538 286.812 313.814 287.148C314.078 287.484 314.222 287.928 314.222 288.48C314.222 288.96 314.09 289.392 313.838 289.788C313.574 290.184 313.19 290.496 312.686 290.736C312.182 290.976 311.57 291.096 310.862 291.096C310.118 291.096 309.494 290.964 308.99 290.676C308.486 290.388 308.102 290.016 307.862 289.548C307.622 289.08 307.502 288.576 307.502 288.024H308.702C308.714 288.552 308.882 289.02 309.218 289.428C309.554 289.836 310.094 290.04 310.862 290.04C311.606 290.04 312.146 289.896 312.482 289.596C312.806 289.296 312.974 288.948 312.974 288.552C312.974 288.168 312.818 287.88 312.506 287.664C312.194 287.448 311.642 287.292 310.85 287.196C309.83 287.076 309.062 286.836 308.558 286.452C308.042 286.08 307.79 285.54 307.79 284.832C307.79 284.388 307.91 283.98 308.15 283.62C308.39 283.26 308.75 282.984 309.218 282.768C309.686 282.564 310.238 282.456 310.874 282.456C311.534 282.456 312.086 282.588 312.542 282.828C312.986 283.08 313.322 283.404 313.538 283.812C313.754 284.22 313.874 284.664 313.898 285.144H312.734C312.734 284.88 312.662 284.616 312.542 284.364C312.41 284.124 312.206 283.92 311.918 283.752C311.63 283.596 311.282 283.512 310.85 283.512C310.202 283.512 309.746 283.644 309.458 283.884C309.17 284.136 309.026 284.424 309.026 284.76C309.026 285.072 309.146 285.336 309.41 285.552C309.674 285.768 310.19 285.924 310.97 286.02C311.666 286.116 312.254 286.248 312.71 286.404ZM317.198 287.364L317.894 287.328C318.422 287.316 318.806 287.28 319.046 287.208C319.286 287.148 319.406 287.004 319.406 286.776C319.382 286.104 318.866 285.768 317.846 285.768C317.33 285.768 316.958 285.864 316.73 286.032C316.49 286.2 316.358 286.452 316.31 286.776H315.182C315.278 286.104 315.578 285.6 316.058 285.264C316.538 284.928 317.15 284.76 317.894 284.76C318.698 284.76 319.346 284.964 319.826 285.36C320.306 285.756 320.558 286.464 320.558 287.496V291H319.406V290.412C319.406 290.196 319.442 289.956 319.538 289.692C319.538 289.668 319.55 289.644 319.562 289.596C319.562 289.56 319.562 289.524 319.562 289.5C319.562 289.476 319.55 289.464 319.526 289.452L319.49 289.44C319.442 289.44 319.418 289.464 319.406 289.5C319.394 289.548 319.382 289.572 319.382 289.572C319.202 290.04 318.914 290.412 318.518 290.688C318.11 290.964 317.642 291.096 317.102 291.096C316.718 291.096 316.358 291.024 316.034 290.868C315.71 290.712 315.458 290.496 315.266 290.22C315.074 289.944 314.99 289.632 314.99 289.284C314.99 288.108 315.722 287.472 317.198 287.364ZM318.83 288.036C318.59 288.108 318.23 288.168 317.75 288.228C317.654 288.24 317.498 288.264 317.27 288.288C316.886 288.348 316.598 288.456 316.418 288.6C316.226 288.744 316.142 288.96 316.142 289.224C316.142 289.464 316.226 289.668 316.406 289.824C316.586 289.992 316.85 290.064 317.21 290.064C317.582 290.064 317.93 289.992 318.266 289.824C318.602 289.656 318.866 289.404 319.082 289.044C319.298 288.684 319.406 288.24 319.406 287.688C319.262 287.856 319.07 287.976 318.83 288.036ZM323.43 285.864V289.08C323.43 289.44 323.478 289.68 323.586 289.8C323.694 289.932 323.91 289.992 324.246 289.992H325.158V291H324.15C323.502 291 323.022 290.868 322.722 290.592C322.422 290.328 322.278 289.86 322.278 289.2V285.864H321.126V284.856H322.278V283.128H323.43V284.856H325.158V285.864H323.43Z" fill="#979797"/>
</svg>
