<svg width="32" height="32" viewBox="0 0 32 32" fill="none" xmlns="http://www.w3.org/2000/svg">
<path d="M14.693 26H9.99967C9.17301 26 8.43967 25.9733 7.78634 25.88C4.27967 25.4933 3.33301 23.84 3.33301 19.3333V12.6667C3.33301 8.16 4.27967 6.50667 7.78634 6.12C8.43967 6.02667 9.17301 6 9.99967 6H14.613" stroke="black" stroke-width="1.5" stroke-linecap="round" stroke-linejoin="round"/>
<path d="M20.0264 6H21.9997C22.8264 6 23.5597 6.02667 24.213 6.12C27.7197 6.50667 28.6664 8.16 28.6664 12.6667V19.3333C28.6664 23.84 27.7197 25.4933 24.213 25.88C23.5597 25.9733 22.8264 26 21.9997 26H20.0264" stroke="black" stroke-width="1.5" stroke-linecap="round" stroke-linejoin="round"/>
<path d="M20 2.66663V29.3333" stroke="black" stroke-width="1.5" stroke-linecap="round" stroke-linejoin="round"/>
<path d="M10.667 11.3334V20.6667" stroke="black" stroke-width="1.5" stroke-linecap="round" stroke-linejoin="round"/>
</svg>
