<svg width="25" height="24" viewBox="0 0 25 24" fill="none" xmlns="http://www.w3.org/2000/svg">
<path d="M21.8302 8.58003V15.42C21.8302 16.54 21.2302 17.58 20.2602 18.15L14.3202 21.58C13.3502 22.14 12.1502 22.14 11.1702 21.58L5.23016 18.15C4.26016 17.59 3.66016 16.55 3.66016 15.42V8.58003C3.66016 7.46003 4.26016 6.41999 5.23016 5.84999L11.1702 2.42C12.1402 1.86 13.3402 1.86 14.3202 2.42L20.2602 5.84999C21.2302 6.41999 21.8302 7.45003 21.8302 8.58003Z" stroke="#292D32" stroke-width="1.5" stroke-linecap="round" stroke-linejoin="round"/>
<path d="M12.7499 11C14.0367 11 15.0799 9.95681 15.0799 8.66998C15.0799 7.38316 14.0367 6.34003 12.7499 6.34003C11.4631 6.34003 10.4199 7.38316 10.4199 8.66998C10.4199 9.95681 11.4631 11 12.7499 11Z" stroke="#292D32" stroke-width="1.5" stroke-linecap="round" stroke-linejoin="round"/>
<path d="M16.75 16.66C16.75 14.86 14.96 13.4 12.75 13.4C10.54 13.4 8.75 14.86 8.75 16.66" stroke="#292D32" stroke-width="1.5" stroke-linecap="round" stroke-linejoin="round"/>
</svg>
