<svg width="32" height="32" viewBox="0 0 32 32" fill="none" xmlns="http://www.w3.org/2000/svg">
<path d="M22.3203 10.1556L22.3203 13.1267" stroke="black" stroke-width="1.5" stroke-linecap="round" stroke-linejoin="round"/>
<path d="M22.3178 6.54916C22.1687 6.54916 22.0479 6.42722 22.0479 6.27684C22.0479 6.12643 22.1687 6.00452 22.3178 6.00452" stroke="black" stroke-width="1.5" stroke-linecap="round" stroke-linejoin="round"/>
<path d="M22.3223 6.54916C22.4714 6.54916 22.5923 6.42722 22.5923 6.27684C22.5923 6.12643 22.4714 6.00452 22.3223 6.00452" stroke="black" stroke-width="1.5" stroke-linecap="round" stroke-linejoin="round"/>
<path d="M2.61621 28.7742H28.7752" stroke="black" stroke-width="1.5" stroke-linecap="round" stroke-linejoin="round"/>
<path d="M5.08301 15.6276C5.08301 16.7479 5.52806 17.8224 6.32026 18.6146C7.11246 19.4068 8.18692 19.8518 9.30726 19.8518C10.4276 19.8518 11.5021 19.4068 12.2943 18.6146C13.0865 17.8224 13.5315 16.7479 13.5315 15.6276C13.5315 15.0728 13.4222 14.5235 13.21 14.011C12.9977 13.4985 12.6865 13.0328 12.2943 12.6406C11.902 12.2483 11.4363 11.9372 10.9238 11.7249C10.4113 11.5126 9.86199 11.4033 9.30726 11.4033C8.75252 11.4033 8.20322 11.5126 7.69071 11.7249C7.1782 11.9372 6.71252 12.2483 6.32026 12.6406C5.928 13.0328 5.61685 13.4985 5.40456 14.011C5.19227 14.5235 5.08301 15.0728 5.08301 15.6276Z" stroke="black" stroke-width="1.5" stroke-linecap="round" stroke-linejoin="round"/>
<path d="M2.61328 28.7776V26.5465C2.61328 22.8499 5.60993 19.8533 9.30651 19.8533C13.0031 19.8533 15.9997 22.8499 15.9997 26.5465V28.7776" stroke="black" stroke-width="1.5" stroke-linecap="round" stroke-linejoin="round"/>
<path d="M16.8571 15.3812C18.2534 16.7491 20.1655 17.5924 22.2745 17.5924C26.5503 17.5924 30.0166 14.1262 30.0166 9.85048C30.0166 5.5747 26.5503 2.10852 22.2745 2.10852C18.1282 2.10852 14.7432 5.368 14.542 9.46439" stroke="black" stroke-width="1.5" stroke-linecap="round" stroke-linejoin="round"/>
</svg>
