<svg width="16" height="17" viewBox="0 0 16 17" fill="none" xmlns="http://www.w3.org/2000/svg">
<path d="M10.6693 9.0987V11.8987C10.6693 14.232 9.73594 15.1654 7.40261 15.1654H4.60261C2.26927 15.1654 1.33594 14.232 1.33594 11.8987V9.0987C1.33594 6.76536 2.26927 5.83203 4.60261 5.83203H7.40261C9.73594 5.83203 10.6693 6.76536 10.6693 9.0987Z" stroke="black" stroke-width="1.5" stroke-linecap="round" stroke-linejoin="round"/>
<path d="M14.6693 5.0987V7.8987C14.6693 10.232 13.7359 11.1654 11.4026 11.1654H10.6693V9.0987C10.6693 6.76537 9.73594 5.83203 7.40261 5.83203H5.33594V5.0987C5.33594 2.76536 6.26927 1.83203 8.6026 1.83203H11.4026C13.7359 1.83203 14.6693 2.76536 14.6693 5.0987Z" stroke="black" stroke-width="1.5" stroke-linecap="round" stroke-linejoin="round"/>
</svg>
