<svg width="24" height="24" viewBox="0 0 24 24" fill="none" xmlns="http://www.w3.org/2000/svg">
<path d="M6.75329 20.625C6.35798 20.625 6.01959 20.4842 5.73817 20.2026C5.45657 19.9212 5.31579 19.5828 5.31579 19.1875V5.53125H5.05225C4.8486 5.53125 4.67794 5.46191 4.54026 5.32329C4.40241 5.18481 4.3335 5.01311 4.3335 4.80819C4.3335 4.60343 4.40241 4.43316 4.54026 4.2974C4.67794 4.16163 4.8486 4.09375 5.05225 4.09375H8.83766C8.83766 3.88611 8.90657 3.71441 9.04442 3.57865C9.18209 3.44288 9.35277 3.375 9.55641 3.375H14.4439C14.6476 3.375 14.8183 3.44384 14.9561 3.58152C15.0938 3.71936 15.1627 3.8901 15.1627 4.09375H18.9481C19.1517 4.09375 19.3225 4.16307 19.4603 4.30171C19.598 4.44019 19.6668 4.61189 19.6668 4.81681C19.6668 5.02157 19.598 5.19184 19.4603 5.3276C19.3225 5.46335 19.1517 5.53125 18.9481 5.53125H18.6845V19.1875C18.6845 19.5828 18.5438 19.9212 18.2624 20.2026C17.9808 20.4842 17.6424 20.625 17.247 20.625H6.75329ZM17.247 5.53125H6.75329V19.1875H17.247V5.53125ZM10.0159 17.1271C10.2207 17.1271 10.391 17.0582 10.5267 16.9203C10.6625 16.7827 10.7304 16.612 10.7304 16.4083V8.28646C10.7304 8.08281 10.661 7.91209 10.5224 7.77423C10.3839 7.63656 10.2122 7.56771 10.0073 7.56771C9.80256 7.56771 9.63227 7.63656 9.49652 7.77423C9.36077 7.91209 9.29287 8.08281 9.29287 8.28646V16.4083C9.29287 16.612 9.36221 16.7827 9.50083 16.9203C9.63931 17.0582 9.81099 17.1271 10.0159 17.1271ZM13.993 17.1271C14.1978 17.1271 14.3681 17.0582 14.5038 16.9203C14.6396 16.7827 14.7075 16.612 14.7075 16.4083V8.28646C14.7075 8.08281 14.6381 7.91209 14.4995 7.77423C14.361 7.63656 14.1893 7.56771 13.9844 7.56771C13.7796 7.56771 13.6093 7.63656 13.4736 7.77423C13.3379 7.91209 13.27 8.08281 13.27 8.28646V16.4083C13.27 16.612 13.3393 16.7827 13.4779 16.9203C13.6164 17.0582 13.7881 17.1271 13.993 17.1271Z" fill="#CA0F10"/>
</svg>
