<svg width="14" height="14" viewBox="0 0 14 14" fill="none" xmlns="http://www.w3.org/2000/svg">
<g clip-path="url(#clip0_164_2024)">
<path d="M13.1387 8.41667L8.69038 12.865L6.67871 13.1389L6.96204 11.1272L11.4009 6.67889L13.1387 8.41667Z" stroke="black" stroke-width="1.5" stroke-linecap="round" stroke-linejoin="round"/>
<path d="M4.43251 13.1389H2.08911C1.76348 13.1389 1.45119 13.0095 1.22094 12.7792C0.990683 12.549 0.861328 12.2367 0.861328 11.9111V2.08886C0.861328 1.76324 0.990683 1.45095 1.22094 1.22069C1.45119 0.990439 1.76348 0.861084 2.08911 0.861084H11.9113C12.237 0.861084 12.5492 0.990439 12.7795 1.22069C13.0097 1.45095 13.1391 1.76324 13.1391 2.08886V4.87497" stroke="black" stroke-width="1.5" stroke-linecap="round" stroke-linejoin="round"/>
<path d="M8.90223 4.91739C9.55424 4.91739 10.0828 4.38884 10.0828 3.73683C10.0828 3.08483 9.55424 2.55627 8.90223 2.55627C8.25024 2.55627 7.72168 3.08483 7.72168 3.73683C7.72168 4.38884 8.25024 4.91739 8.90223 4.91739Z" stroke="black" stroke-width="1.5" stroke-linecap="round" stroke-linejoin="round"/>
<path d="M0.861328 7.15443C1.42255 7.05297 2.00062 7 2.59108 7C4.17948 7 5.67835 7.38335 7.00022 8.06258" stroke="black" stroke-width="1.5" stroke-linecap="round" stroke-linejoin="round"/>
</g>
<defs>
<clipPath id="clip0_164_2024">
<rect width="14" height="14" fill="white"/>
</clipPath>
</defs>
</svg>
