<svg width="20" height="20" viewBox="0 0 20 20" fill="none" xmlns="http://www.w3.org/2000/svg">
<path d="M4.01042 17.1876C3.69097 17.1876 3.41146 17.0678 3.17188 16.8282C2.93229 16.5886 2.8125 16.3091 2.8125 15.9896V4.01047C2.8125 3.69103 2.93229 3.41151 3.17188 3.17193C3.41146 2.93235 3.69097 2.81255 4.01042 2.81255H10.6589C10.8585 2.81255 11.0082 2.87458 11.1081 2.99863C11.2079 3.12268 11.2578 3.25911 11.2578 3.40792C11.2578 3.55673 11.2067 3.69436 11.1045 3.8208C11.0021 3.94725 10.8536 4.01047 10.6589 4.01047H4.01042V15.9896H15.9896V9.2813C15.9896 9.08165 16.0516 8.93191 16.1757 8.83208C16.2997 8.73226 16.4361 8.68234 16.5849 8.68234C16.7338 8.68234 16.8714 8.73226 16.9978 8.83208C17.1243 8.93191 17.1875 9.08165 17.1875 9.2813V15.9896C17.1875 16.3091 17.0677 16.5886 16.8281 16.8282C16.5885 17.0678 16.309 17.1876 15.9896 17.1876H4.01042ZM7.60417 11.7969V9.50092C7.60417 9.33533 7.63743 9.17748 7.70399 9.02734C7.77056 8.87721 7.85705 8.74891 7.96354 8.64241L15.2309 1.37505C15.3507 1.25526 15.4838 1.16875 15.6302 1.11551C15.7766 1.06227 15.923 1.03564 16.0694 1.03564C16.2159 1.03564 16.3644 1.06559 16.5151 1.12549C16.6656 1.18538 16.8032 1.27523 16.928 1.39502L18.5851 3.0721C18.6997 3.19136 18.7882 3.323 18.8506 3.46702C18.9132 3.61117 18.9444 3.75771 18.9444 3.90665C18.9444 4.05573 18.9145 4.2068 18.8546 4.35986C18.7947 4.51292 18.7049 4.64936 18.5851 4.76915L11.3576 12.0365C11.2511 12.143 11.1228 12.2295 10.9727 12.2961C10.8226 12.3626 10.6647 12.3959 10.4991 12.3959H8.20313C8.03342 12.3959 7.89119 12.3385 7.77647 12.2236C7.66159 12.1089 7.60417 11.9666 7.60417 11.7969ZM8.80208 11.198H10.4991L15.5503 6.14676L14.6918 5.30821L13.8333 4.46967L8.80208 9.48096V11.198Z" fill="black"/>
</svg>
