<svg width="200" height="200" viewBox="0 0 200 200" fill="none" xmlns="http://www.w3.org/2000/svg">
<path fill-rule="evenodd" clip-rule="evenodd" d="M99.9996 6.21753C114.11 6.21753 125.936 6.39465 135.83 6.6787C135.592 11.2114 135.417 17.2626 135.417 25.2681C135.417 33.4318 135.599 39.5617 135.844 44.1205C136.376 54.0047 143.064 62.318 153.557 63.5434C158.621 64.1346 165.503 64.5834 174.744 64.5834C182.462 64.5834 188.535 64.2705 193.278 63.8226C193.568 73.7801 193.749 85.7067 193.749 99.9672C193.749 149.653 191.553 177.503 190.244 189.695C189.338 198.125 179.639 201.448 173.54 196.365L157.258 182.797L146.431 193.624C142.678 197.377 136.703 197.708 132.558 194.392L117.963 182.717L107.365 193.315C103.297 197.383 96.7017 197.383 92.6338 193.315L82.0358 182.717L67.4413 194.392C63.2967 197.708 57.3213 197.377 53.5683 193.624L42.7413 182.797L26.4588 196.365C20.3597 201.448 10.6607 198.125 9.75538 189.695C8.446 177.503 6.25 149.653 6.25 99.9672C6.25 61.7509 7.54892 40.2686 8.76008 28.5213C9.87071 17.7492 17.7817 9.83824 28.5538 8.72761C40.3011 7.51645 61.7838 6.21753 99.9996 6.21753ZM174.418 25.5469C186.722 37.851 190.907 46.5272 192.305 51.3588C187.989 51.7738 182.251 52.0834 174.744 52.0834C165.898 52.0834 159.508 51.6534 155.007 51.1276C151.209 50.6842 148.568 47.9305 148.326 43.4484C148.095 39.1533 147.917 33.2514 147.917 25.2681C147.917 17.6247 148.08 11.8905 148.297 7.64903C153.236 9.04911 162.106 13.2352 174.418 25.5469ZM70.0517 122.28C66.2996 126.277 65.305 131.922 68.9225 136.04C69.5638 136.771 70.2887 137.548 71.1067 138.366C71.925 139.184 72.7013 139.909 73.4317 140.55C77.5508 144.168 83.195 143.173 87.1921 139.421C90.2758 136.526 94.6242 132.363 100.57 126.513C106.515 132.363 110.863 136.526 113.947 139.421C117.944 143.173 123.588 144.168 127.708 140.55C128.438 139.909 129.214 139.184 130.033 138.366C130.85 137.548 131.575 136.771 132.217 136.041C135.834 131.922 134.84 126.278 131.088 122.281C128.193 119.197 124.03 114.848 118.18 108.903C124.03 102.958 128.193 98.6092 131.088 95.5255C134.84 91.5284 135.834 85.8842 132.217 81.7651C131.575 81.0347 130.85 80.2584 130.033 79.4401C129.214 78.6222 128.438 77.8972 127.707 77.2559C123.588 73.6384 117.944 74.633 113.947 78.3851C110.863 81.2801 106.515 85.443 100.57 91.2926C94.6242 85.443 90.2758 81.2801 87.1921 78.3851C83.195 74.633 77.5508 73.6384 73.4317 77.2559C72.7013 77.8976 71.925 78.6222 71.1067 79.4405C70.2887 80.2584 69.5638 81.0351 68.9225 81.7655C65.305 85.8842 66.2996 91.5288 70.0517 95.5255C72.9467 98.6096 77.1096 102.958 82.9588 108.903C77.1096 114.848 72.9467 119.197 70.0517 122.28Z" fill="url(#paint0_linear_145_3212)"/>
<defs>
<linearGradient id="paint0_linear_145_3212" x1="193.117" y1="198.813" x2="-31.725" y2="75.6543" gradientUnits="userSpaceOnUse">
<stop stop-color="#FF51E3"/>
<stop offset="1" stop-color="#1B4DFF"/>
</linearGradient>
</defs>
</svg>
