<svg width="160" height="160" viewBox="0 0 160 160" fill="none" xmlns="http://www.w3.org/2000/svg">
<path fill-rule="evenodd" clip-rule="evenodd" d="M130.289 5.10429C102.385 2.08125 71.1141 2.09922 43.2192 5.2132C42.8496 5.25444 42.485 5.33166 42.1305 5.44374C26.2721 10.4576 18.8224 22.2488 15.6189 36.0994C12.5504 49.3665 13.1764 65.2859 13.7636 80.2172L13.7834 80.7252C14.263 92.9298 14.7072 104.569 13.5216 114.814C12.3352 125.066 9.59904 133.037 4.43265 138.463C3.18716 139.771 2.63355 141.591 2.93964 143.371C3.24573 145.152 4.37549 146.682 5.98641 147.499L8.57129 142.403C5.98641 147.499 5.98456 147.498 5.98641 147.499L6.0034 147.509L6.02698 147.52L6.09384 147.553L6.306 147.656C6.48213 147.741 6.72749 147.856 7.04079 147.998C7.66732 148.281 8.56588 148.67 9.72612 149.128C12.0463 150.045 15.4152 151.24 19.7498 152.427C28.4199 154.801 40.9592 157.143 56.6924 157.143C72.2077 157.143 83.0275 155.705 90.0881 154.209C93.6187 153.461 96.2084 152.698 97.9736 152.094C98.856 151.791 99.5319 151.528 100.016 151.327C100.258 151.226 100.451 151.142 100.599 151.074L100.786 150.987L100.854 150.955L100.881 150.942L100.893 150.936C100.896 150.934 100.904 150.93 98.369 145.809L100.904 150.93C101.59 150.591 102.2 150.118 102.699 149.539C110.738 140.207 113.63 128.473 114.289 116.479C114.842 106.414 113.841 95.6466 112.661 85.2505C112.596 84.9992 112.547 84.7403 112.516 84.4752L112.513 84.4452C112.025 80.2836 111.532 76.0775 111.125 71.9336C107.414 50.2191 109.645 35.1109 115.267 24.9573C116.795 22.1964 120.273 21.1975 123.034 22.7261C125.795 24.2548 126.794 27.7322 125.265 30.4932C121.354 37.5571 118.906 49.7867 122.424 70.2009C122.447 70.3387 122.466 70.4773 122.48 70.6165C122.656 72.4299 122.851 74.2595 123.056 76.1058C131.839 76.4097 140.576 75.6261 149.601 73.7553C151.699 73.3202 153.378 71.7479 153.948 69.6823C156.513 60.4053 158.39 46.1804 156.142 33.4626C155.011 27.0693 152.771 20.6785 148.692 15.5068C144.63 10.3568 138.931 6.66944 131.452 5.35441C131.08 5.23268 130.691 5.14787 130.289 5.10429ZM45.4769 45.3069C45.4769 41.362 48.6749 38.1641 52.6198 38.1641H74.4485C78.3934 38.1641 81.5913 41.362 81.5913 45.3069C81.5913 49.2517 78.3934 52.4498 74.4485 52.4498H52.6198C48.6749 52.4498 45.4769 49.2517 45.4769 45.3069ZM49.8436 74.0178C45.8986 74.0178 42.7007 77.2158 42.7007 81.1607C42.7007 85.1056 45.8986 88.3035 49.8436 88.3035H71.6722C75.6172 88.3035 78.8151 85.1056 78.8151 81.1607C78.8151 77.2158 75.6172 74.0178 71.6722 74.0178H49.8436ZM42.7007 117.013C42.7007 113.068 45.8986 109.87 49.8436 109.87H71.6722C75.6172 109.87 78.8151 113.068 78.8151 117.013C78.8151 120.958 75.6172 124.155 71.6722 124.155H49.8436C45.8986 124.155 42.7007 120.958 42.7007 117.013Z" fill="url(#paint0_linear_328_3330)"/>
<defs>
<linearGradient id="paint0_linear_328_3330" x1="156.625" y1="157.176" x2="-26.086" y2="54.3952" gradientUnits="userSpaceOnUse">
<stop stop-color="#FF51E3"/>
<stop offset="1" stop-color="#1B4DFF"/>
</linearGradient>
</defs>
</svg>
