<svg width="208" height="219" viewBox="0 0 208 219" fill="none" xmlns="http://www.w3.org/2000/svg">
<path fill-rule="evenodd" clip-rule="evenodd" d="M91.0716 26.1431H48.3242C40.0449 26.1431 32.5064 30.9125 28.9604 38.3941L10.6132 77.1046H91.0716V26.1431ZM7.14307 191.527V94.9618H99.9845H100H100.016H192.857V191.527C192.857 196.919 190.716 202.09 186.903 205.903C183.09 209.716 177.919 211.857 172.527 211.857H27.4728C22.0809 211.857 16.9101 209.716 13.0975 205.903C9.28494 202.09 7.14307 196.919 7.14307 191.527ZM189.387 77.1046H108.929V26.1431H151.676C159.956 26.1431 167.494 30.9125 171.04 38.3941L189.387 77.1046ZM140.718 128.995C144.266 124.259 143.303 117.544 138.567 113.996C133.831 110.449 127.115 111.412 123.568 116.148L91.4388 159.039L74.2809 146.186C69.5451 142.638 62.8298 143.602 59.2822 148.338C55.7345 153.074 56.6978 159.789 61.4338 163.336L87.1668 182.613C89.4411 184.316 92.2989 185.047 95.1118 184.643C97.9245 184.24 100.462 182.736 102.165 180.462L140.718 128.995Z" fill="url(#paint0_linear_105_2159)"/>
<ellipse cx="101.5" cy="151" rx="52.5" ry="54" fill="url(#paint1_linear_105_2159)"/>
<rect x="128" width="80" height="80" rx="40" fill="white"/>
<path d="M168 43.4998L178.75 54.2498C179.25 54.7498 179.833 54.9998 180.5 54.9998C181.167 54.9998 181.75 54.7498 182.25 54.2498C182.75 53.7498 183 53.1665 183 52.4998C183 51.8332 182.75 51.2498 182.25 50.7498L171.5 39.9998L182.25 29.2498C182.75 28.7498 183 28.1665 183 27.4998C183 26.8332 182.75 26.2498 182.25 25.7498C181.75 25.2498 181.167 24.9998 180.5 24.9998C179.833 24.9998 179.25 25.2498 178.75 25.7498L168 36.4998L157.25 25.7498C156.75 25.2498 156.167 24.9998 155.5 24.9998C154.833 24.9998 154.25 25.2498 153.75 25.7498C153.25 26.2498 153 26.8332 153 27.4998C153 28.1665 153.25 28.7498 153.75 29.2498L164.5 39.9998L153.75 50.7498C153.25 51.2498 153 51.8332 153 52.4998C153 53.1665 153.25 53.7498 153.75 54.2498C154.25 54.7498 154.833 54.9998 155.5 54.9998C156.167 54.9998 156.75 54.7498 157.25 54.2498L168 43.4998ZM168 73.3332C163.444 73.3332 159.139 72.4582 155.083 70.7082C151.028 68.9582 147.486 66.5693 144.458 63.5415C141.43 60.5137 139.042 56.972 137.292 52.9165C135.542 48.861 134.667 44.5553 134.667 39.9998C134.667 35.3887 135.542 31.0553 137.292 26.9998C139.042 22.9443 141.43 19.4165 144.458 16.4165C147.486 13.4165 151.028 11.0415 155.083 9.2915C159.139 7.5415 163.444 6.6665 168 6.6665C172.611 6.6665 176.944 7.5415 181 9.2915C185.055 11.0415 188.583 13.4165 191.583 16.4165C194.583 19.4165 196.958 22.9443 198.708 26.9998C200.458 31.0553 201.333 35.3887 201.333 39.9998C201.333 44.5553 200.458 48.861 198.708 52.9165C196.958 56.972 194.583 60.5137 191.583 63.5415C188.583 66.5693 185.055 68.9582 181 70.7082C176.944 72.4582 172.611 73.3332 168 73.3332Z" fill="#CA0F10"/>
<defs>
<linearGradient id="paint0_linear_105_2159" x1="192.229" y1="211.9" x2="-27.6998" y2="88.1859" gradientUnits="userSpaceOnUse">
<stop stop-color="#FF51E3"/>
<stop offset="1" stop-color="#1B4DFF"/>
</linearGradient>
<linearGradient id="paint1_linear_105_2159" x1="153.645" y1="205.025" x2="27.6411" y2="136.114" gradientUnits="userSpaceOnUse">
<stop stop-color="#FF51E3"/>
<stop offset="1" stop-color="#1B4DFF"/>
</linearGradient>
</defs>
</svg>
