<svg width="200" height="200" viewBox="0 0 200 200" fill="none" xmlns="http://www.w3.org/2000/svg">
<g clip-path="url(#clip0_159_5214)">
<path fill-rule="evenodd" clip-rule="evenodd" d="M100 0C73.4783 0 48.043 10.5357 29.2893 29.2893C10.5357 48.043 0 73.4783 0 100C0 126.522 10.5357 151.957 29.2893 170.711C48.043 189.464 73.4783 200 100 200C126.522 200 151.957 189.464 170.711 170.711C189.464 151.957 200 126.522 200 100C200 73.4783 189.464 48.043 170.711 29.2893C151.957 10.5357 126.522 0 100 0ZM21.072 126.737C25.1412 138.748 31.9374 149.788 41.0744 158.926C56.7025 174.553 77.8987 183.333 100 183.333C102.795 183.333 105.577 183.192 108.333 182.916V124.868C108.043 124.74 107.748 124.612 107.449 124.483C98.17 120.507 84.5575 116.667 66.6662 116.667C45.3102 116.667 30.0997 122.13 21.072 126.737ZM125 179.495C137.684 175.506 149.35 168.501 158.926 158.926C164.417 153.434 169.063 147.255 172.779 140.591C163.56 136.826 150.397 133.333 133.333 133.333C130.446 133.333 127.667 133.433 125 133.618V179.495ZM133.333 118.749C130.393 118.749 127.582 118.195 125 117.187V116.667H123.776C115.892 113.044 110.418 105.078 110.418 95.8342C110.418 83.1782 120.677 72.9187 133.333 72.9187C145.989 72.9187 156.248 83.1782 156.248 95.8342C156.248 108.489 145.989 118.749 133.333 118.749ZM66.6667 102.083C79.3232 102.083 89.5833 91.8233 89.5833 79.1667C89.5833 66.5102 79.3232 56.25 66.6667 56.25C54.0102 56.25 43.75 66.5102 43.75 79.1667C43.75 91.8233 54.0102 102.083 66.6667 102.083Z" fill="url(#paint0_linear_159_5214)"/>
</g>
<defs>
<linearGradient id="paint0_linear_159_5214" x1="199.326" y1="200.043" x2="-37.5201" y2="66.8124" gradientUnits="userSpaceOnUse">
<stop stop-color="#FF51E3"/>
<stop offset="1" stop-color="#1B4DFF"/>
</linearGradient>
<clipPath id="clip0_159_5214">
<rect width="200" height="200" fill="white"/>
</clipPath>
</defs>
</svg>
