<svg width="208" height="219" viewBox="0 0 208 219" fill="none" xmlns="http://www.w3.org/2000/svg">
<path fill-rule="evenodd" clip-rule="evenodd" d="M54.1114 38.3157C51.5585 44.1344 48.7839 52.4423 48.0839 62.2433C40.0534 63.4616 33.292 64.8454 27.8 66.1691C14.3757 69.4041 5.27791 80.6921 3.96621 94.0925C3.36137 100.272 2.78463 107.98 2.43241 117.12L2.46964 117.123C3.70348 117.235 5.5387 117.396 7.92645 117.59C12.7022 117.977 19.6873 118.495 28.4915 119.012C42.1997 119.819 60.3093 120.625 81.3493 120.943C81.4397 118.229 81.5835 115.975 81.7497 114.118C82.2627 108.386 86.8439 104.632 92.3743 104.498C94.401 104.45 96.9122 104.417 99.9997 104.417C103.087 104.417 105.598 104.45 107.625 104.498C113.156 104.632 117.736 108.386 118.25 114.118C118.416 115.975 118.56 118.229 118.65 120.943C139.69 120.625 157.799 119.819 171.508 119.012C180.312 118.495 187.297 117.977 192.073 117.59C194.46 117.396 196.296 117.235 197.529 117.123L197.567 117.12C197.215 107.98 196.638 100.272 196.033 94.0925C194.721 80.6921 185.623 69.4041 172.199 66.1691C166.707 64.8454 159.946 63.4616 151.916 62.2433C151.216 52.4423 148.441 44.1344 145.888 38.3157C141.826 29.0565 133.201 23.5325 123.986 22.4163C118.236 21.72 110.193 21.0833 99.9997 21.0833C89.8068 21.0833 81.7627 21.72 76.0135 22.4163C66.7985 23.5325 58.1739 29.0565 54.1114 38.3157ZM99.9997 41.9166C90.6756 41.9166 83.4689 42.4989 78.5189 43.0985C75.7743 43.4309 73.9668 44.9137 73.1893 46.6861C71.6652 50.1596 70.1181 54.6594 69.3139 59.7933C78.481 59.0445 88.7097 58.5833 99.9997 58.5833C111.29 58.5833 121.518 59.0445 130.686 59.7933C129.881 54.6594 128.334 50.1596 126.81 46.6861C126.033 44.9137 124.225 43.4309 121.481 43.0985C116.531 42.4989 109.323 41.9166 99.9997 41.9166ZM2.11934 129.645C2.09589 131.603 2.0835 133.612 2.0835 135.669C2.0835 154.984 3.17546 172.102 4.24737 184.258C5.49075 198.359 16.525 209.324 30.6626 210.411C45.3189 211.539 68.4314 212.752 100 212.752C131.569 212.752 154.681 211.539 169.338 210.411C183.475 209.324 194.51 198.359 195.753 184.258C196.825 172.102 197.917 154.984 197.917 135.669C197.917 133.612 197.904 131.603 197.881 129.645C196.665 129.753 195.057 129.892 193.083 130.052C188.223 130.445 181.146 130.97 172.242 131.493C158.344 132.311 139.986 133.128 118.659 133.447C118.57 136.287 118.422 138.63 118.25 140.551C117.737 146.283 113.156 150.037 107.626 150.171C105.599 150.22 103.087 150.252 100 150.252C96.9127 150.252 94.4014 150.22 92.3747 150.171C86.8443 150.037 82.2635 146.283 81.7502 140.551C81.5781 138.63 81.4302 136.287 81.341 133.447C60.0135 133.128 41.6561 132.311 27.758 131.493C18.8539 130.97 11.7764 130.445 6.91675 130.052C4.94337 129.892 3.33552 129.753 2.11934 129.645Z" fill="url(#paint0_linear_97_1912)"/>
<rect x="128" width="80" height="80" rx="40" fill="white"/>
<path d="M168 43.5L178.75 54.25C179.25 54.75 179.833 55 180.5 55C181.167 55 181.75 54.75 182.25 54.25C182.75 53.75 183 53.1667 183 52.5C183 51.8334 182.75 51.25 182.25 50.75L171.5 40L182.25 29.25C182.75 28.75 183 28.1667 183 27.5C183 26.8334 182.75 26.25 182.25 25.75C181.75 25.25 181.167 25 180.5 25C179.833 25 179.25 25.25 178.75 25.75L168 36.5L157.25 25.75C156.75 25.25 156.167 25 155.5 25C154.833 25 154.25 25.25 153.75 25.75C153.25 26.25 153 26.8334 153 27.5C153 28.1667 153.25 28.75 153.75 29.25L164.5 40L153.75 50.75C153.25 51.25 153 51.8334 153 52.5C153 53.1667 153.25 53.75 153.75 54.25C154.25 54.75 154.833 55 155.5 55C156.167 55 156.75 54.75 157.25 54.25L168 43.5ZM168 73.3334C163.444 73.3334 159.139 72.4584 155.083 70.7084C151.028 68.9584 147.486 66.5695 144.458 63.5417C141.43 60.5139 139.042 56.9722 137.292 52.9167C135.542 48.8612 134.667 44.5555 134.667 40C134.667 35.3889 135.542 31.0555 137.292 27C139.042 22.9445 141.43 19.4167 144.458 16.4167C147.486 13.4167 151.028 11.0417 155.083 9.29169C159.139 7.54169 163.444 6.66669 168 6.66669C172.611 6.66669 176.944 7.54169 181 9.29169C185.055 11.0417 188.583 13.4167 191.583 16.4167C194.583 19.4167 196.958 22.9445 198.708 27C200.458 31.0555 201.333 35.3889 201.333 40C201.333 44.5555 200.458 48.8612 198.708 52.9167C196.958 56.9722 194.583 60.5139 191.583 63.5417C188.583 66.5695 185.055 68.9584 181 70.7084C176.944 72.4584 172.611 73.3334 168 73.3334Z" fill="#CA0F10"/>
<defs>
<linearGradient id="paint0_linear_97_1912" x1="197.254" y1="212.792" x2="-32.2329" y2="80.8957" gradientUnits="userSpaceOnUse">
<stop stop-color="#FF51E3"/>
<stop offset="1" stop-color="#1B4DFF"/>
</linearGradient>
</defs>
</svg>
