<svg width="200" height="200" viewBox="0 0 200 200" fill="none" xmlns="http://www.w3.org/2000/svg">
<path fill-rule="evenodd" clip-rule="evenodd" d="M58.6224 13.4183C62.6411 9.39963 68.0915 7.14197 73.7746 7.14197H126.226C131.909 7.14197 137.359 9.39961 141.378 13.4183L186.582 58.6213C190.6 62.64 192.857 68.0904 192.857 73.7736V126.225C192.857 131.908 190.6 137.358 186.582 141.377L141.378 186.58C137.359 190.599 131.909 192.856 126.226 192.856H73.7746C68.0915 192.856 62.6411 190.599 58.6224 186.58L13.4194 141.377C9.40072 137.358 7.14307 131.908 7.14307 126.225V73.7736C7.14307 68.0904 9.40071 62.64 13.4194 58.6213L58.6224 13.4183ZM100 44.642C105.917 44.642 110.714 49.439 110.714 55.3563V101.785C110.714 107.702 105.917 112.499 100 112.499C94.0829 112.499 89.2859 107.702 89.2859 101.785V55.3563C89.2859 49.439 94.0829 44.642 100 44.642ZM114.286 141.071C114.286 148.96 107.89 155.356 100 155.356C92.1105 155.356 85.7145 148.96 85.7145 141.071C85.7145 133.181 92.1105 126.785 100 126.785C107.89 126.785 114.286 133.181 114.286 141.071Z" fill="url(#paint0_linear_328_2212)"/>
<defs>
<linearGradient id="paint0_linear_328_2212" x1="192.229" y1="192.9" x2="-27.6998" y2="69.1857" gradientUnits="userSpaceOnUse">
<stop stop-color="#FF51E3"/>
<stop offset="1" stop-color="#1B4DFF"/>
</linearGradient>
</defs>
</svg>
