<svg width="25" height="24" viewBox="0 0 25 24" fill="none" xmlns="http://www.w3.org/2000/svg">
<path d="M9.25 22H15.25C20.25 22 22.25 20 22.25 15V9C22.25 4 20.25 2 15.25 2H9.25C4.25 2 2.25 4 2.25 9V15C2.25 20 4.25 22 9.25 22Z" stroke="#292D32" stroke-width="1.5" stroke-linecap="round" stroke-linejoin="round"/>
<path d="M17.25 2.44V12.42C17.25 14.39 15.84 15.16 14.11 14.12L12.79 13.33C12.49 13.15 12.01 13.15 11.71 13.33L10.39 14.12C8.66 15.15 7.25 14.39 7.25 12.42V2.44" stroke="#292D32" stroke-width="1.5" stroke-linecap="round" stroke-linejoin="round"/>
<path d="M9.25 22H15.25C20.25 22 22.25 20 22.25 15V9C22.25 4 20.25 2 15.25 2H9.25C4.25 2 2.25 4 2.25 9V15C2.25 20 4.25 22 9.25 22Z" stroke="#292D32" stroke-width="1.5" stroke-linecap="round" stroke-linejoin="round"/>
<path d="M17.25 2.44V12.42C17.25 14.39 15.84 15.16 14.11 14.12L12.79 13.33C12.49 13.15 12.01 13.15 11.71 13.33L10.39 14.12C8.66 15.15 7.25 14.39 7.25 12.42V2.44" stroke="#292D32" stroke-width="1.5" stroke-linecap="round" stroke-linejoin="round"/>
</svg>
