<svg width="16" height="16" viewBox="0 0 16 16" fill="none" xmlns="http://www.w3.org/2000/svg">
<path d="M6.29119 8.95831H8.92661C9.06237 8.95831 9.17619 8.91208 9.26809 8.81967C9.35987 8.72735 9.40577 8.61289 9.40577 8.47626C9.40577 8.33977 9.35987 8.22624 9.26809 8.13574C9.17619 8.04524 9.06237 7.99997 8.92661 7.99997H6.29119C6.15543 7.99997 6.04164 8.0462 5.94986 8.13861C5.85796 8.23093 5.81202 8.34539 5.81202 8.48201C5.81202 8.61851 5.85796 8.73204 5.94986 8.82254C6.04164 8.91304 6.15543 8.95831 6.29119 8.95831ZM6.29119 7.52081H11.6419C11.7776 7.52081 11.8915 7.47458 11.9834 7.38217C12.0751 7.28985 12.121 7.17539 12.121 7.03876C12.121 6.90227 12.0751 6.78874 11.9834 6.69824C11.8915 6.60774 11.7776 6.56247 11.6419 6.56247H6.29119C6.15543 6.56247 6.04164 6.6087 5.94986 6.70111C5.85796 6.79343 5.81202 6.90789 5.81202 7.04451C5.81202 7.18101 5.85796 7.29454 5.94986 7.38504C6.04164 7.47554 6.15543 7.52081 6.29119 7.52081ZM6.29119 6.08331H11.6419C11.7776 6.08331 11.8915 6.03708 11.9834 5.94467C12.0751 5.85235 12.121 5.73789 12.121 5.60126C12.121 5.46477 12.0751 5.35124 11.9834 5.26074C11.8915 5.17024 11.7776 5.12497 11.6419 5.12497H6.29119C6.15543 5.12497 6.04164 5.1712 5.94986 5.26361C5.85796 5.35593 5.81202 5.47039 5.81202 5.60701C5.81202 5.74351 5.85796 5.85704 5.94986 5.94754C6.04164 6.03804 6.15543 6.08331 6.29119 6.08331ZM4.48633 12.4722C4.23077 12.4722 4.00716 12.3764 3.8155 12.1847C3.62383 11.993 3.52799 11.7694 3.52799 11.5139V2.56942C3.52799 2.31386 3.62383 2.09025 3.8155 1.89858C4.00716 1.70692 4.23077 1.61108 4.48633 1.61108H13.4308C13.6863 1.61108 13.9099 1.70692 14.1016 1.89858C14.2933 2.09025 14.3891 2.31386 14.3891 2.56942V11.5139C14.3891 11.7694 14.2933 11.993 14.1016 12.1847C13.9099 12.3764 13.6863 12.4722 13.4308 12.4722H4.48633ZM4.48633 11.5139H13.4308V2.56942H4.48633V11.5139ZM2.56966 14.3889C2.31411 14.3889 2.09049 14.293 1.89883 14.1014C1.70716 13.9097 1.61133 13.6861 1.61133 13.4305V4.00692C1.61133 3.87115 1.65754 3.75734 1.74997 3.66543C1.84229 3.57366 1.95675 3.52775 2.09337 3.52775C2.22988 3.52775 2.34339 3.57366 2.4339 3.66543C2.52441 3.75734 2.56966 3.87115 2.56966 4.00692V13.4305H11.9933C12.129 13.4305 12.2429 13.4768 12.3348 13.5692C12.4265 13.6615 12.4724 13.7759 12.4724 13.9126C12.4724 14.0491 12.4265 14.1626 12.3348 14.2531C12.2429 14.3436 12.129 14.3889 11.9933 14.3889H2.56966Z" fill="black"/>
</svg>
