<svg width="32" height="32" viewBox="0 0 32 32" fill="none" xmlns="http://www.w3.org/2000/svg">
<path d="M24 25.1468H22.9867C21.92 25.1468 20.9067 25.5601 20.16 26.3068L17.88 28.5601C16.84 29.5868 15.1466 29.5868 14.1066 28.5601L11.8267 26.3068C11.08 25.5601 10.0533 25.1468 9 25.1468H8C5.78667 25.1468 4 23.3735 4 21.1868V6.64014C4 4.45347 5.78667 2.68018 8 2.68018H24C26.2133 2.68018 28 4.45347 28 6.64014V21.1868C28 23.3602 26.2133 25.1468 24 25.1468Z" stroke="black" stroke-width="1.5" stroke-miterlimit="10" stroke-linecap="round" stroke-linejoin="round"/>
<path d="M16.3733 19.9469C16.1733 20.0135 15.84 20.0135 15.6267 19.9469C13.8933 19.3469 10 16.8802 10 12.6802C10 10.8268 11.4933 9.3335 13.3333 9.3335C14.4267 9.3335 15.3867 9.8535 16 10.6668C16.6133 9.8535 17.5733 9.3335 18.6667 9.3335C20.5067 9.3335 22 10.8268 22 12.6802C21.9867 16.8802 18.1067 19.3469 16.3733 19.9469Z" stroke="black" stroke-width="1.5" stroke-linecap="round" stroke-linejoin="round"/>
</svg>
