<svg width="16" height="17" viewBox="0 0 16 17" fill="none" xmlns="http://www.w3.org/2000/svg">
<path d="M8.68265 15.5196C10.1593 13.6716 13.5272 9.19255 13.5272 6.67671C13.5272 3.62545 11.0517 1.1499 8.00044 1.1499C4.94918 1.1499 2.47363 3.62545 2.47363 6.67671C2.47363 9.19255 5.84153 13.6716 7.31822 15.5196C7.67229 15.96 8.32859 15.96 8.68265 15.5196ZM8.00044 4.83444C9.41862 4.83444 10.305 6.36966 9.59589 7.59784C9.26679 8.16786 8.65864 8.519 8.00044 8.51897C6.58226 8.51903 5.69591 6.98385 6.40495 5.75564C6.73402 5.1856 7.34223 4.83444 8.00044 4.83444Z" fill="#292D32"/>
</svg>
