<svg width="32" height="32" viewBox="0 0 32 32" fill="none" xmlns="http://www.w3.org/2000/svg">
<path d="M12 14.6668V13.3335C12 11.1202 12.6667 9.3335 16 9.3335C19.3333 9.3335 20 11.1202 20 13.3335V14.6668" stroke="black" stroke-width="1.5" stroke-linecap="round" stroke-linejoin="round"/>
<path d="M16.0002 19.4668C16.442 19.4668 16.8001 19.1087 16.8001 18.6668C16.8001 18.225 16.442 17.8668 16.0002 17.8668C15.5583 17.8668 15.2002 18.225 15.2002 18.6668C15.2002 19.1087 15.5583 19.4668 16.0002 19.4668Z" stroke="black" stroke-width="1.5" stroke-linecap="round" stroke-linejoin="round"/>
<path d="M19.333 22.6667H12.6663C9.99967 22.6667 9.33301 22.0001 9.33301 19.3334V18.0001C9.33301 15.3334 9.99967 14.6667 12.6663 14.6667H19.333C21.9997 14.6667 22.6663 15.3334 22.6663 18.0001V19.3334C22.6663 22.0001 21.9997 22.6667 19.333 22.6667Z" stroke="black" stroke-width="1.5" stroke-linecap="round" stroke-linejoin="round"/>
<path d="M16.0003 29.3334C23.3641 29.3334 29.3337 23.3639 29.3337 16.0001C29.3337 8.63628 23.3641 2.66675 16.0003 2.66675C8.63653 2.66675 2.66699 8.63628 2.66699 16.0001C2.66699 23.3639 8.63653 29.3334 16.0003 29.3334Z" stroke="black" stroke-width="1.5" stroke-linecap="round" stroke-linejoin="round"/>
</svg>
