<svg width="28" height="28" viewBox="0 0 28 28" fill="none" xmlns="http://www.w3.org/2000/svg">
<path d="M22.5636 16.905L21.3969 14.9683C21.1519 14.5366 20.9303 13.72 20.9303 13.2416V10.29C20.9303 7.54831 19.3203 5.17998 16.9986 4.07165C16.3919 2.99831 15.2719 2.33331 13.9886 2.33331C12.7169 2.33331 11.5736 3.02165 10.9669 4.10665C8.69193 5.23831 7.11693 7.58331 7.11693 10.29V13.2416C7.11693 13.72 6.89526 14.5366 6.65026 14.9566L5.47193 16.905C5.00526 17.6866 4.90026 18.55 5.19193 19.3433C5.47193 20.125 6.13693 20.7316 7.00026 21.0233C9.26359 21.7933 11.6436 22.1666 14.0236 22.1666C16.4036 22.1666 18.7836 21.7933 21.0469 21.035C21.8636 20.7666 22.4936 20.1483 22.7969 19.3433C23.1003 18.5383 23.0186 17.6516 22.5636 16.905Z" fill="white"/>
<path d="M17.3016 23.345C16.8116 24.6983 15.5166 25.6666 14 25.6666C13.0783 25.6666 12.1683 25.2933 11.5266 24.6283C11.1533 24.2783 10.8733 23.8116 10.71 23.3333C10.8616 23.3566 11.0133 23.3683 11.1766 23.3916C11.445 23.4266 11.725 23.4616 12.005 23.485C12.67 23.5433 13.3466 23.5783 14.0233 23.5783C14.6883 23.5783 15.3533 23.5433 16.0066 23.485C16.2516 23.4616 16.4966 23.45 16.73 23.415C16.9166 23.3916 17.1033 23.3683 17.3016 23.345Z" fill="white"/>
</svg>
