<svg width="32" height="32" viewBox="0 0 32 32" fill="none" xmlns="http://www.w3.org/2000/svg">
<path d="M16 8.58679V13.0268" stroke="black" stroke-width="1.5" stroke-miterlimit="10" stroke-linecap="round"/>
<path d="M16.0265 2.66675C11.1199 2.66675 7.14653 6.64008 7.14653 11.5467V14.3467C7.14653 15.2534 6.7732 16.6134 6.30653 17.3867L4.6132 20.2134C3.5732 21.9601 4.2932 23.9067 6.2132 24.5467C12.5865 26.6667 19.4799 26.6667 25.8532 24.5467C27.6532 23.9467 28.4265 21.8401 27.4532 20.2134L25.7599 17.3867C25.2932 16.6134 24.9199 15.2401 24.9199 14.3467V11.5467C24.9065 6.66675 20.9065 2.66675 16.0265 2.66675Z" stroke="black" stroke-width="1.5" stroke-miterlimit="10" stroke-linecap="round"/>
<path d="M20.4396 25.0935C20.4396 27.5335 18.4396 29.5335 15.9996 29.5335C14.7862 29.5335 13.6662 29.0268 12.8662 28.2268C12.0662 27.4268 11.5596 26.3068 11.5596 25.0935" stroke="black" stroke-width="1.5" stroke-miterlimit="10"/>
</svg>
