<svg width="25" height="24" viewBox="0 0 25 24" fill="none" xmlns="http://www.w3.org/2000/svg">
<path d="M3.41992 7.44L12.2499 12.55L21.0199 7.46997" stroke="#292D32" stroke-width="1.5" stroke-linecap="round" stroke-linejoin="round"/>
<path d="M12.25 21.61V12.54" stroke="#292D32" stroke-width="1.5" stroke-linecap="round" stroke-linejoin="round"/>
<path d="M10.1801 2.48L4.84012 5.45003C3.63012 6.12003 2.64014 7.80001 2.64014 9.18001V14.83C2.64014 16.21 3.63012 17.89 4.84012 18.56L10.1801 21.53C11.3201 22.16 13.1901 22.16 14.3301 21.53L19.6701 18.56C20.8801 17.89 21.8701 16.21 21.8701 14.83V9.18001C21.8701 7.80001 20.8801 6.12003 19.6701 5.45003L14.3301 2.48C13.1801 1.84 11.3201 1.84 10.1801 2.48Z" stroke="#292D32" stroke-width="1.5" stroke-linecap="round" stroke-linejoin="round"/>
<path d="M17.2498 13.24V9.58002L7.75977 4.09998" stroke="#292D32" stroke-width="1.5" stroke-linecap="round" stroke-linejoin="round"/>
</svg>
