<svg width="25" height="24" viewBox="0 0 25 24" fill="none" xmlns="http://www.w3.org/2000/svg">
<path d="M22.4102 10.44L21.4302 14.62C20.5902 18.23 18.9302 19.69 15.8102 19.39C15.3102 19.35 14.7702 19.26 14.1902 19.12L12.5102 18.72C8.34018 17.73 7.05018 15.67 8.03018 11.49L9.01018 7.30001C9.21018 6.45001 9.45018 5.71001 9.75018 5.10001C10.9202 2.68001 12.9102 2.03001 16.2502 2.82001L17.9202 3.21001C22.1102 4.19001 23.3902 6.26001 22.4102 10.44Z" stroke="#292D32" stroke-width="1.5" stroke-linecap="round" stroke-linejoin="round"/>
<path d="M15.8099 19.39C15.1899 19.81 14.4099 20.16 13.4599 20.47L11.8799 20.99C7.90985 22.27 5.81985 21.2 4.52985 17.23L3.24985 13.28C1.96985 9.30998 3.02985 7.20998 6.99985 5.92998L8.57985 5.40998C8.98985 5.27998 9.37985 5.16998 9.74985 5.09998C9.44985 5.70998 9.20985 6.44998 9.00985 7.29998L8.02985 11.49C7.04985 15.67 8.33985 17.73 12.5099 18.72L14.1899 19.12C14.7699 19.26 15.3099 19.35 15.8099 19.39Z" stroke="#292D32" stroke-width="1.5" stroke-linecap="round" stroke-linejoin="round"/>
<path d="M13.3901 8.53003L18.2401 9.76003" stroke="#292D32" stroke-width="1.5" stroke-linecap="round" stroke-linejoin="round"/>
<path d="M12.4102 12.4L15.3102 13.14" stroke="#292D32" stroke-width="1.5" stroke-linecap="round" stroke-linejoin="round"/>
</svg>
