<svg width="200" height="200" viewBox="0 0 200 200" fill="none" xmlns="http://www.w3.org/2000/svg">
<path fill-rule="evenodd" clip-rule="evenodd" d="M58.6219 13.4184C62.6406 9.39975 68.091 7.14209 73.7741 7.14209H126.225C131.908 7.14209 137.359 9.39973 141.378 13.4184L186.581 58.6214C190.6 62.6401 192.857 68.0905 192.857 73.7737V126.225C192.857 131.908 190.6 137.358 186.581 141.377L141.378 186.58C137.359 190.599 131.908 192.856 126.225 192.856H73.7741C68.091 192.856 62.6406 190.599 58.6219 186.58L13.4189 141.377C9.40024 137.358 7.14258 131.908 7.14258 126.225V73.7737C7.14258 68.0905 9.40022 62.6401 13.4189 58.6214L58.6219 13.4184ZM99.9997 44.6421C105.917 44.6421 110.714 49.4391 110.714 55.3564V101.785C110.714 107.702 105.917 112.499 99.9997 112.499C94.0824 112.499 89.2854 107.702 89.2854 101.785V55.3564C89.2854 49.4391 94.0824 44.6421 99.9997 44.6421ZM114.285 141.071C114.285 148.96 107.889 155.356 99.9997 155.356C92.11 155.356 85.714 148.96 85.714 141.071C85.714 133.181 92.11 126.785 99.9997 126.785C107.889 126.785 114.285 133.181 114.285 141.071Z" fill="url(#paint0_linear_219_3348)"/>
<defs>
<linearGradient id="paint0_linear_219_3348" x1="192.228" y1="192.9" x2="-27.7003" y2="69.1858" gradientUnits="userSpaceOnUse">
<stop stop-color="#FF51E3"/>
<stop offset="1" stop-color="#1B4DFF"/>
</linearGradient>
</defs>
</svg>
