<svg width="28" height="29" viewBox="0 0 28 29" fill="none" xmlns="http://www.w3.org/2000/svg">
<path d="M24.791 22.0483L22.866 22.5033C22.4343 22.6083 22.096 22.935 22.0026 23.3666L21.5943 25.0816C21.3726 26.015 20.1826 26.3066 19.5643 25.5716L16.076 21.5583C15.796 21.2316 15.9476 20.7183 16.3676 20.6133C18.4326 20.1116 20.2876 18.9566 21.6526 17.3116C21.8743 17.0433 22.271 17.0083 22.516 17.2533L25.106 19.8433C25.9926 20.73 25.6776 21.8383 24.791 22.0483Z" fill="white"/>
<path d="M3.1497 22.0483L5.0747 22.5033C5.50637 22.6083 5.8447 22.935 5.93804 23.3666L6.34637 25.0816C6.56804 26.015 7.75803 26.3066 8.37637 25.5716L11.8647 21.5583C12.1447 21.2316 11.993 20.7183 11.573 20.6133C9.50803 20.1116 7.65303 18.9566 6.28803 17.3116C6.06637 17.0433 5.6697 17.0083 5.4247 17.2533L2.8347 19.8433C1.94804 20.73 2.26303 21.8383 3.1497 22.0483Z" fill="white"/>
<path d="M14.0007 2.8335C9.48565 2.8335 5.83398 6.48516 5.83398 11.0002C5.83398 12.6918 6.33565 14.2435 7.19898 15.5385C8.45898 17.4052 10.454 18.7235 12.7757 19.0618C13.1723 19.1318 13.5807 19.1668 14.0007 19.1668C14.4207 19.1668 14.829 19.1318 15.2257 19.0618C17.5473 18.7235 19.5423 17.4052 20.8023 15.5385C21.6657 14.2435 22.1673 12.6918 22.1673 11.0002C22.1673 6.48516 18.5157 2.8335 14.0007 2.8335ZM17.5707 10.7435L16.6023 11.7118C16.439 11.8752 16.3457 12.1902 16.404 12.4235L16.684 13.6252C16.9057 14.5702 16.404 14.9435 15.564 14.4418L14.3973 13.7535C14.1873 13.6252 13.8373 13.6252 13.6273 13.7535L12.4607 14.4418C11.6207 14.9318 11.119 14.5702 11.3407 13.6252L11.6207 12.4235C11.6673 12.2018 11.5857 11.8752 11.4223 11.7118L10.4307 10.7435C9.85898 10.1718 10.0457 9.60016 10.839 9.47183L12.0873 9.26183C12.2973 9.22683 12.5423 9.04016 12.6357 8.8535L13.324 7.47683C13.6973 6.73016 14.304 6.73016 14.6773 7.47683L15.3657 8.8535C15.459 9.04016 15.704 9.22683 15.9257 9.26183L17.174 9.47183C17.9557 9.60016 18.1423 10.1718 17.5707 10.7435Z" fill="white"/>
</svg>
