<svg width="14" height="17" viewBox="0 0 14 17" fill="none" xmlns="http://www.w3.org/2000/svg">
<path d="M12.396 13.2741L11.4335 13.5017C11.2176 13.5542 11.0485 13.7175 11.0018 13.9333L10.7976 14.7908C10.6868 15.2575 10.0918 15.4033 9.78264 15.0358L8.03847 13.0291C7.89847 12.8658 7.97431 12.6091 8.18431 12.5566C9.21681 12.3058 10.1443 11.7283 10.8268 10.9058C10.9376 10.7716 11.136 10.7541 11.2585 10.8766L12.5535 12.1716C12.9968 12.615 12.8393 13.1691 12.396 13.2741Z" fill="#7767BD"/>
<path d="M1.57485 13.2741L2.53735 13.5017C2.75318 13.5542 2.92235 13.7175 2.96902 13.9333L3.17318 14.7908C3.28402 15.2575 3.87902 15.4033 4.18818 15.0358L5.93235 13.0291C6.07235 12.8658 5.99652 12.6091 5.78652 12.5566C4.75402 12.3058 3.82652 11.7283 3.14402 10.9058C3.03318 10.7716 2.83485 10.7541 2.71235 10.8766L1.41735 12.1716C0.974018 12.615 1.13152 13.1691 1.57485 13.2741Z" fill="#7767BD"/>
<path d="M6.99984 3.66669C4.74234 3.66669 2.9165 5.49252 2.9165 7.75002C2.9165 8.59585 3.16734 9.37169 3.599 10.0192C4.229 10.9525 5.2265 11.6117 6.38734 11.7809C6.58567 11.8159 6.78984 11.8334 6.99984 11.8334C7.20984 11.8334 7.414 11.8159 7.61234 11.7809C8.77317 11.6117 9.77067 10.9525 10.4007 10.0192C10.8323 9.37169 11.0832 8.59585 11.0832 7.75002C11.0832 5.49252 9.25734 3.66669 6.99984 3.66669ZM8.78484 7.62169L8.30067 8.10585C8.219 8.18752 8.17234 8.34502 8.2015 8.46169L8.3415 9.06252C8.45234 9.53502 8.2015 9.72169 7.7815 9.47085L7.19817 9.12669C7.09317 9.06252 6.91817 9.06252 6.81317 9.12669L6.22984 9.47085C5.80984 9.71585 5.559 9.53502 5.66984 9.06252L5.80984 8.46169C5.83317 8.35085 5.79234 8.18752 5.71067 8.10585L5.21484 7.62169C4.929 7.33585 5.02234 7.05002 5.419 6.98585L6.04317 6.88085C6.14817 6.86335 6.27067 6.77002 6.31734 6.67669L6.6615 5.98835C6.84817 5.61502 7.1515 5.61502 7.33817 5.98835L7.68234 6.67669C7.729 6.77002 7.8515 6.86335 7.96234 6.88085L8.5865 6.98585C8.97734 7.05002 9.07067 7.33585 8.78484 7.62169Z" fill="#7767BD"/>
</svg>
