<svg width="20" height="20" viewBox="0 0 20 20" fill="none" xmlns="http://www.w3.org/2000/svg">
<path d="M9.58366 17.4998C13.9559 17.4998 17.5003 13.9554 17.5003 9.58317C17.5003 5.21092 13.9559 1.6665 9.58366 1.6665C5.21141 1.6665 1.66699 5.21092 1.66699 9.58317C1.66699 13.9554 5.21141 17.4998 9.58366 17.4998Z" stroke="black" stroke-width="2" stroke-linecap="round" stroke-linejoin="round"/>
<path d="M17.6266 19.0403C18.0171 19.4308 18.6502 19.4308 19.0408 19.0403C19.4313 18.6498 19.4313 18.0166 19.0408 17.6261L17.6266 19.0403ZM17.3741 15.9594L16.667 15.2523L15.2528 16.6665L15.9599 17.3736L17.3741 15.9594ZM19.0408 17.6261L17.3741 15.9594L15.9599 17.3736L17.6266 19.0403L19.0408 17.6261Z" fill="black"/>
</svg>
