<svg width="28" height="28" viewBox="0 0 28 28" fill="none" xmlns="http://www.w3.org/2000/svg">
<path d="M23.4497 10.7567C21.338 10.7567 20.4747 9.26336 21.5247 7.43169C22.1313 6.37003 21.7697 5.01669 20.708 4.41003L18.6897 3.25503C17.768 2.70669 16.578 3.03336 16.0297 3.95503L15.9013 4.17669C14.8513 6.00836 13.1247 6.00836 12.063 4.17669L11.9347 3.95503C11.4097 3.03336 10.2197 2.70669 9.29801 3.25503L7.27967 4.41003C6.21801 5.01669 5.85634 6.38169 6.46301 7.44336C7.52467 9.26336 6.66134 10.7567 4.54967 10.7567C3.33634 10.7567 2.33301 11.7484 2.33301 12.9734V15.0267C2.33301 16.24 3.32467 17.2434 4.54967 17.2434C6.66134 17.2434 7.52467 18.7367 6.46301 20.5684C5.85634 21.63 6.21801 22.9834 7.27967 23.59L9.29801 24.745C10.2197 25.2934 11.4097 24.9667 11.958 24.045L12.0863 23.8234C13.1363 21.9917 14.863 21.9917 15.9247 23.8234L16.053 24.045C16.6013 24.9667 17.7913 25.2934 18.713 24.745L20.7313 23.59C21.793 22.9834 22.1547 21.6184 21.548 20.5684C20.4863 18.7367 21.3497 17.2434 23.4613 17.2434C24.6747 17.2434 25.678 16.2517 25.678 15.0267V12.9734C25.6663 11.76 24.6747 10.7567 23.4497 10.7567ZM13.9997 17.7917C11.9113 17.7917 10.208 16.0884 10.208 14C10.208 11.9117 11.9113 10.2084 13.9997 10.2084C16.088 10.2084 17.7913 11.9117 17.7913 14C17.7913 16.0884 16.088 17.7917 13.9997 17.7917Z" fill="white"/>
</svg>
