<svg width="19" height="19" viewBox="0 0 19 19" fill="none" xmlns="http://www.w3.org/2000/svg">
<path d="M4.42396 6.79577L8.425 0.398893C8.50488 0.287085 8.59271 0.20323 8.68854 0.147331C8.78438 0.0914264 8.89616 0.0634766 9.02396 0.0634766C9.15175 0.0634766 9.26354 0.0914264 9.35938 0.147331C9.45521 0.20323 9.54304 0.287085 9.62292 0.398893L13.624 6.79577C13.7038 6.92356 13.7398 7.05131 13.7318 7.1791C13.7238 7.3069 13.6878 7.42669 13.624 7.53848C13.5601 7.65027 13.4754 7.73815 13.37 7.80202C13.2646 7.86589 13.1416 7.89785 13.001 7.89785H5.04688C4.90456 7.89785 4.77998 7.86489 4.67312 7.7989C4.56627 7.73311 4.48323 7.64629 4.42396 7.53848C4.36009 7.42669 4.32415 7.3069 4.31615 7.1791C4.30814 7.05131 4.34408 6.92356 4.42396 6.79577ZM14.4146 18.5833C13.2566 18.5833 12.2723 18.178 11.4617 17.3674C10.6511 16.5568 10.2458 15.5725 10.2458 14.4145C10.2458 13.2565 10.6511 12.2723 11.4617 11.4617C12.2723 10.651 13.2566 10.2458 14.4146 10.2458C15.5726 10.2458 16.5568 10.651 17.3674 11.4617C18.1781 12.2723 18.5833 13.2565 18.5833 14.4145C18.5833 15.5725 18.1781 16.5568 17.3674 17.3674C16.5568 18.178 15.5726 18.5833 14.4146 18.5833ZM0.375 17.2656V11.4197C0.375 11.2161 0.443919 11.0454 0.58176 10.9075C0.719439 10.7698 0.890104 10.701 1.09375 10.701H6.93958C7.14323 10.701 7.31396 10.7698 7.45181 10.9075C7.58948 11.0454 7.65833 11.2161 7.65833 11.4197V17.2656C7.65833 17.4692 7.58948 17.6399 7.45181 17.7775C7.31396 17.9154 7.14323 17.9843 6.93958 17.9843H1.09375C0.890104 17.9843 0.719439 17.9154 0.58176 17.7775C0.443919 17.6399 0.375 17.4692 0.375 17.2656Z" fill="black"/>
</svg>
