<svg width="20" height="20" viewBox="0 0 20 20" fill="none" xmlns="http://www.w3.org/2000/svg">
<path d="M10.9997 1.71717C10.8152 1.3344 10.4255 1.09082 9.9975 1.09082C9.56949 1.09082 9.18324 1.3344 8.99533 1.71717L6.75786 6.32087L1.76095 7.05858C1.34339 7.12121 0.99541 7.41351 0.86666 7.81368C0.73791 8.21385 0.842301 8.65578 1.14156 8.95156L4.76745 12.5392L3.91143 17.6092C3.84184 18.0267 4.01583 18.4512 4.36032 18.6983C4.70481 18.9454 5.16066 18.9767 5.53647 18.7783L10.001 16.3947L14.4655 18.7783C14.8413 18.9767 15.2971 18.9489 15.6416 18.6983C15.9861 18.4478 16.1601 18.0267 16.0905 17.6092L15.231 12.5392L18.8569 8.95156C19.1562 8.65578 19.264 8.21385 19.1318 7.81368C18.9996 7.41351 18.6551 7.12121 18.2375 7.05858L13.2371 6.32087L10.9997 1.71717Z" fill="#7767BD"/>
</svg>
