<svg width="20" height="20" viewBox="0 0 20 20" fill="none" xmlns="http://www.w3.org/2000/svg">
<path fill-rule="evenodd" clip-rule="evenodd" d="M3.92144 0.6716C3.12797 0.757654 2.48085 1.28971 2.18891 2.03252C0.833496 5.48123 0.833496 6.55702 0.833496 6.55702C0.833496 7.76819 1.85951 8.75002 3.12516 8.75002C4.39083 8.75002 5.41683 7.76819 5.41683 6.55702C5.41683 7.76819 6.44283 8.75002 7.7085 8.75002C8.97416 8.75002 10.0002 7.76819 10.0002 6.55702C10.0002 7.76819 11.0262 8.75002 12.2918 8.75002C13.5575 8.75002 14.5835 7.76819 14.5835 6.55702C14.5835 7.76819 15.6095 8.75002 16.8752 8.75002C18.1408 8.75002 19.1668 7.76819 19.1668 6.55702C19.1668 6.55702 19.1668 5.48123 17.8114 2.03252C17.5195 1.28971 16.8724 0.757654 16.0789 0.6716C14.9712 0.551466 13.0491 0.416687 10.0002 0.416687C6.95125 0.416687 5.02912 0.551466 3.92144 0.6716ZM1.4585 9.35773C1.95317 9.63498 2.52458 9.79194 3.12516 9.79194C3.99992 9.79194 4.81283 9.45898 5.41683 8.90627C6.02083 9.45898 6.83375 9.79194 7.7085 9.79194C8.58325 9.79194 9.39616 9.45898 10.0002 8.90627C10.6042 9.45898 11.4171 9.79194 12.2918 9.79194C13.1666 9.79194 13.9795 9.45898 14.5835 8.90627C15.1875 9.45898 16.0004 9.79194 16.8752 9.79194C17.4757 9.79194 18.0472 9.63498 18.5418 9.35773V12.5003C18.5418 14.3698 18.4666 15.7696 18.3822 16.7521C18.2638 18.1304 17.17 19.1406 15.8157 19.2236C14.5777 19.2994 12.6712 19.3753 10.0002 19.3753C7.32908 19.3753 5.42266 19.2994 4.18466 19.2236C2.83039 19.1406 1.73655 18.1304 1.61812 16.7521C1.53371 15.7696 1.4585 14.3698 1.4585 12.5003V9.35773ZM7.91658 12.0261C8.36308 11.9461 9.03233 11.8753 10.0002 11.8753C10.968 11.8753 11.6372 11.9461 12.0837 12.0261C12.386 12.0803 12.6179 12.3299 12.6422 12.7677C12.6767 13.3857 12.7085 14.3566 12.7085 15.8336C12.7085 16.3097 12.7052 16.7333 12.6995 17.1095C12.6948 17.4276 12.4386 17.686 12.1135 17.6914C11.472 17.7023 10.7684 17.7086 10.0002 17.7086C9.23195 17.7086 8.52833 17.7023 7.88683 17.6914C7.56175 17.686 7.30554 17.4276 7.30079 17.1095C7.29512 16.7333 7.29183 16.3097 7.29183 15.8336C7.29183 14.3566 7.32362 13.3857 7.35808 12.7677C7.38245 12.3299 7.61437 12.0803 7.91658 12.0261Z" fill="url(#paint0_linear_328_3405)"/>
<defs>
<linearGradient id="paint0_linear_328_3405" x1="19.1047" y1="19.3792" x2="-2.94984" y2="7.38211" gradientUnits="userSpaceOnUse">
<stop stop-color="#FF51E3"/>
<stop offset="1" stop-color="#1B4DFF"/>
</linearGradient>
</defs>
</svg>
