<svg width="210" height="211" viewBox="0 0 210 211" fill="none" xmlns="http://www.w3.org/2000/svg">
<path fill-rule="evenodd" clip-rule="evenodd" d="M0 46.3061C0 34.5031 9.79049 25.2856 21.4286 25.2856H142.857C154.496 25.2856 164.286 34.5031 164.286 46.3061V139.979C164.286 151.783 154.496 161 142.857 161H21.4286C9.7905 161 0 151.783 0 139.979V46.3061ZM36.0707 82.4285C30.1534 82.4285 25.3557 87.2255 25.3557 93.1428C25.3557 99.0601 30.1527 103.857 36.07 103.857C41.9873 103.857 46.785 99.0601 46.785 93.1428C46.785 87.2255 41.988 82.4285 36.0707 82.4285ZM128.216 82.4285C122.299 82.4285 117.501 87.2255 117.501 93.1428C117.501 99.0601 122.298 103.857 128.216 103.857C134.133 103.857 138.931 99.0601 138.931 93.1428C138.931 87.2255 134.134 82.4285 128.216 82.4285ZM60.7143 93.1428C60.7143 81.3081 70.3081 71.7142 82.1429 71.7142C93.9776 71.7142 103.571 81.3081 103.571 93.1428C103.571 104.978 93.9776 114.571 82.1429 114.571C70.3081 114.571 60.7143 104.978 60.7143 93.1428ZM200 85.9999C200 80.0826 195.203 75.2856 189.286 75.2856C183.369 75.2856 178.571 80.0826 178.571 85.9999V171.714C178.571 172.661 178.196 173.57 177.526 174.24C176.856 174.91 175.947 175.286 175 175.286H53.5714C47.6541 175.286 42.8571 180.083 42.8571 186C42.8571 191.917 47.6541 196.714 53.5714 196.714H175C181.63 196.714 187.989 194.08 192.677 189.391C197.366 184.703 200 178.344 200 171.714V85.9999Z" fill="url(#paint0_linear_328_3441)"/>
<rect x="130" width="80" height="80" rx="40" fill="white"/>
<path d="M169.999 43.4998L180.749 54.2498C181.249 54.7498 181.833 54.9998 182.499 54.9998C183.166 54.9998 183.749 54.7498 184.249 54.2498C184.749 53.7498 184.999 53.1665 184.999 52.4998C184.999 51.8332 184.749 51.2498 184.249 50.7498L173.499 39.9998L184.249 29.2498C184.749 28.7498 184.999 28.1665 184.999 27.4998C184.999 26.8332 184.749 26.2498 184.249 25.7498C183.749 25.2498 183.166 24.9998 182.499 24.9998C181.833 24.9998 181.249 25.2498 180.749 25.7498L169.999 36.4998L159.249 25.7498C158.749 25.2498 158.166 24.9998 157.499 24.9998C156.833 24.9998 156.249 25.2498 155.749 25.7498C155.249 26.2498 154.999 26.8332 154.999 27.4998C154.999 28.1665 155.249 28.7498 155.749 29.2498L166.499 39.9998L155.749 50.7498C155.249 51.2498 154.999 51.8332 154.999 52.4998C154.999 53.1665 155.249 53.7498 155.749 54.2498C156.249 54.7498 156.833 54.9998 157.499 54.9998C158.166 54.9998 158.749 54.7498 159.249 54.2498L169.999 43.4998ZM169.999 73.3332C165.444 73.3332 161.138 72.4582 157.083 70.7082C153.027 68.9582 149.486 66.5693 146.458 63.5415C143.43 60.5137 141.041 56.972 139.291 52.9165C137.541 48.861 136.666 44.5553 136.666 39.9998C136.666 35.3887 137.541 31.0553 139.291 26.9998C141.041 22.9443 143.43 19.4165 146.458 16.4165C149.486 13.4165 153.027 11.0415 157.083 9.2915C161.138 7.5415 165.444 6.6665 169.999 6.6665C174.611 6.6665 178.944 7.5415 182.999 9.2915C187.055 11.0415 190.583 13.4165 193.583 16.4165C196.583 19.4165 198.958 22.9443 200.708 26.9998C202.458 31.0553 203.333 35.3887 203.333 39.9998C203.333 44.5553 202.458 48.861 200.708 52.9165C198.958 56.972 196.583 60.5137 193.583 63.5415C190.583 66.5693 187.055 68.9582 182.999 70.7082C178.944 72.4582 174.611 73.3332 169.999 73.3332Z" fill="#CA0F10"/>
<defs>
<linearGradient id="paint0_linear_328_3441" x1="199.323" y1="196.75" x2="-18.6047" y2="53.7286" gradientUnits="userSpaceOnUse">
<stop stop-color="#FF51E3"/>
<stop offset="1" stop-color="#1B4DFF"/>
</linearGradient>
</defs>
</svg>
