<svg width="350" height="88" viewBox="0 0 350 88" fill="none" xmlns="http://www.w3.org/2000/svg">
<path d="M0 26.8556C0 13.9218 10.216 3.32071 23.1438 2.92733C58.3401 1.85633 126.36 0 175 0C223.64 0 291.66 1.85633 326.856 2.92733C339.784 3.32071 350 13.9218 350 26.8556V61.1444C350 74.0782 339.784 84.6793 326.856 85.0727C291.66 86.1437 223.64 88 175 88C126.36 88 58.3401 86.1437 23.1438 85.0727C10.216 84.6793 0 74.0782 0 61.1444V26.8556Z" fill="#4E38B2"/>
<path d="M18.6632 53.6836L19.8274 57.8318L22.3442 61.3288L18.1959 62.493L14.699 65.0099L13.5348 60.8616L11.0179 57.3646L15.1662 56.2004L18.6632 53.6836Z" fill="#B392FF"/>
<path d="M25.6824 3.20548L31.9432 6.72223L39.0306 7.87733L35.5138 14.1381L34.3587 21.2255L28.0979 17.7087L21.0105 16.5537L24.5273 10.2929L25.6824 3.20548Z" fill="#B392FF"/>
<path d="M241.653 16.6508L243.045 26.2791L251.261 31.4895L241.632 32.882L236.422 41.0975L235.029 31.4692L226.814 26.2589L236.442 24.8664L241.653 16.6508Z" fill="#B392FF"/>
<path d="M255.093 55.6473L258.301 60.9835L264.44 62.0216L259.104 65.2297L258.065 71.3687L254.857 66.0326L248.718 64.9944L254.054 61.7864L255.093 55.6473Z" fill="#B392FF"/>
<path d="M262.127 37.0189L264.533 41.021L269.138 41.7996L265.136 44.2057L264.357 48.81L261.951 44.8079L257.347 44.0293L261.349 41.6232L262.127 37.0189Z" fill="#FBF2A8"/>
<path d="M315.18 9.57633L316.383 11.5774L318.685 11.9667L316.684 13.1697L316.295 15.4718L315.091 13.4708L312.789 13.0815L314.79 11.8785L315.18 9.57633Z" fill="#FBF2A8"/>
<path d="M335.56 54.6836L336.724 58.8318L339.241 62.3288L335.092 63.493L331.595 66.0099L330.431 61.8616L327.914 58.3646L332.063 57.2004L335.56 54.6836Z" fill="#CCF3E1"/>
<path d="M332.151 10.2701L338.096 15.8974L344.263 15.4682L341.237 20.8589L343.78 28.6397L337.835 23.0124L331.668 23.4416L334.694 18.051L332.151 10.2701Z" fill="#FBF2A8"/>
<g clip-path="url(#clip0_328_3336)">
<path d="M300.433 23.2712C293.238 22.4266 287.511 22.0419 283.137 21.8949C279.932 21.7853 277.24 24.1553 276.839 27.2854C275.806 35.3639 274.506 46.8927 273.3 61.5467C272.918 66.189 275.747 70.5965 280.534 71.6018C283.747 72.2765 288.291 73.0652 294.423 73.7851C300.588 74.5087 305.237 74.7963 308.556 74.8856C313.461 75.0193 317.265 71.3779 317.971 66.7483C320.187 52.234 321.591 40.7299 322.456 32.6402C322.791 29.5023 320.721 26.5746 317.579 25.9379C313.289 25.068 307.627 24.1157 300.432 23.2711L300.433 23.2712Z" fill="white"/>
<path d="M305.615 74.7662C302.977 74.6278 299.752 74.3784 295.887 73.9512L301.817 23.435C305.438 23.8783 308.651 24.3494 311.478 24.8174L305.615 74.7648L305.615 74.7662Z" fill="#FFC754"/>
<path d="M271.537 36.3672C271.901 33.1386 272.288 29.9127 272.7 26.6901C273.368 21.4694 277.873 17.4682 283.284 17.6501C287.781 17.8018 293.625 18.1959 300.928 19.0532C308.232 19.9106 314.008 20.8804 318.417 21.7742C323.723 22.8503 327.18 27.7847 326.62 33.0195C326.32 35.8428 325.951 39.0765 325.51 42.7028C327.385 42.1159 328.988 40.7253 329.623 38.5798C330.15 36.7948 330.713 34.3096 331.1 31.0122C331.487 27.7163 331.515 25.1669 331.415 23.3084C331.24 20.0616 328.705 17.8891 325.853 17.4421C321.783 16.8057 313.917 15.6635 301.497 14.2056C289.078 12.7477 281.16 12.0372 277.054 11.7152C274.176 11.4882 271.207 13.0146 270.284 16.1325C269.757 17.9174 269.194 20.4041 268.807 23.7C268.42 26.9974 268.392 29.5453 268.492 31.404C268.612 33.6381 269.849 35.3621 271.537 36.3672Z" fill="#FFC754"/>
<path fill-rule="evenodd" clip-rule="evenodd" d="M281.553 59.5754C281.607 58.4151 281.704 57.2572 281.844 56.104C282.015 54.645 282.198 53.5144 282.365 52.6595C282.685 51.0048 284.224 50.0683 285.805 50.2539L287.653 50.4708C289.232 50.6562 290.512 51.9236 290.442 53.6077C290.404 54.4776 290.321 55.6199 290.15 57.079C290.019 58.2332 289.845 59.3821 289.629 60.5234C289.308 62.1782 287.77 63.1147 286.189 62.9291L284.341 62.7122C282.761 62.5268 281.482 61.2595 281.551 59.5752L281.553 59.5754Z" fill="#FFC754"/>
</g>
<path d="M30.24 35.96C30.24 37.7 29.8 39.02 28.96 39.94C28.1 40.86 26.88 41.32 25.28 41.32C23.72 41.32 22.52 40.88 21.64 39.96C20.76 39.06 20.32 37.78 20.32 36.12H23.68C23.68 37.68 24.2 38.44 25.28 38.44C25.76 38.44 26.16 38.26 26.44 37.86C26.72 37.48 26.88 36.9 26.88 36.12V26.92H30.24V35.96ZM39.7589 30.88C40.5989 31.38 41.2589 32.06 41.7189 32.9C42.1589 33.76 42.3989 34.7 42.3989 35.72C42.3989 36.76 42.1589 37.7 41.7189 38.54C41.2589 39.4 40.5989 40.08 39.7589 40.58C38.9189 41.08 37.9189 41.32 36.7989 41.32C35.6589 41.32 34.6589 41.08 33.8189 40.58C32.9789 40.08 32.3189 39.4 31.8789 38.54C31.4189 37.7 31.1989 36.76 31.1989 35.72C31.1989 34.7 31.4189 33.76 31.8789 32.9C32.3189 32.06 32.9789 31.38 33.8189 30.88C34.6589 30.38 35.6589 30.12 36.7989 30.12C37.9189 30.12 38.9189 30.38 39.7589 30.88ZM38.5589 37.78C38.9789 37.24 39.1989 36.56 39.1989 35.72C39.1989 34.9 38.9789 34.22 38.5589 33.66C38.1389 33.12 37.5589 32.84 36.7989 32.84C36.0389 32.84 35.4389 33.12 35.0189 33.66C34.5989 34.22 34.3989 34.9 34.3989 35.72C34.3989 36.56 34.5989 37.24 35.0189 37.78C35.4389 38.34 36.0389 38.6 36.7989 38.6C37.5589 38.6 38.1389 38.34 38.5589 37.78ZM43.3623 26.6H46.5623V29.16H43.3623V26.6ZM43.3623 30.44H46.5623V41H43.3623V30.44ZM57.8633 31.26C58.5433 32.02 58.8833 33.14 58.8833 34.6V41H55.6833V35.88C55.6833 34.74 55.5433 33.94 55.2833 33.5C55.0233 33.06 54.6033 32.84 54.0033 32.84C53.5633 32.84 53.1433 33.02 52.7633 33.36C52.3833 33.72 52.0833 34.2 51.8633 34.82C51.6233 35.46 51.5233 36.16 51.5233 36.94V41H48.3233V30.44H51.5233V30.94C51.5233 31.36 51.4233 31.74 51.2633 32.08C51.1033 32.38 51.0433 32.58 51.0433 32.7C51.0433 32.82 51.0833 32.88 51.1633 32.9C51.1833 32.92 51.2233 32.92 51.2633 32.92C51.3833 32.92 51.4833 32.82 51.5833 32.6C51.8833 31.96 52.3433 31.38 52.9433 30.88C53.5433 30.38 54.2433 30.12 55.0833 30.12C56.2433 30.12 57.1833 30.5 57.8633 31.26ZM74.173 30.88C75.013 31.38 75.673 32.06 76.133 32.9C76.573 33.76 76.813 34.7 76.813 35.72C76.813 36.76 76.573 37.7 76.133 38.54C75.673 39.4 75.013 40.08 74.173 40.58C73.333 41.08 72.333 41.32 71.213 41.32C70.073 41.32 69.073 41.08 68.233 40.58C67.393 40.08 66.733 39.4 66.293 38.54C65.833 37.7 65.613 36.76 65.613 35.72C65.613 34.7 65.833 33.76 66.293 32.9C66.733 32.06 67.393 31.38 68.233 30.88C69.073 30.38 70.073 30.12 71.213 30.12C72.333 30.12 73.333 30.38 74.173 30.88ZM72.973 37.78C73.393 37.24 73.613 36.56 73.613 35.72C73.613 34.9 73.393 34.22 72.973 33.66C72.553 33.12 71.973 32.84 71.213 32.84C70.453 32.84 69.853 33.12 69.433 33.66C69.013 34.22 68.813 34.9 68.813 35.72C68.813 36.56 69.013 37.24 69.433 37.78C69.853 38.34 70.453 38.6 71.213 38.6C71.973 38.6 72.553 38.34 72.973 37.78ZM78.7889 40.18C78.1089 39.42 77.7689 38.32 77.7689 36.84V30.44H80.9689V35.56C80.9689 36.72 81.0889 37.5 81.3489 37.94C81.6089 38.38 82.0489 38.6 82.6489 38.6C83.0889 38.6 83.4889 38.44 83.8689 38.08C84.2489 37.74 84.5489 37.26 84.7889 36.62C85.0089 36 85.1289 35.3 85.1289 34.5V30.44H88.3289V41H85.1289V40.5C85.1289 40.1 85.2089 39.72 85.3889 39.36C85.5289 39.08 85.6089 38.86 85.6089 38.74C85.6089 38.64 85.5689 38.58 85.4889 38.54C85.4489 38.54 85.4289 38.52 85.3889 38.52C85.2689 38.52 85.1489 38.64 85.0689 38.84C84.7289 39.5 84.2689 40.08 83.6689 40.58C83.0689 41.08 82.3689 41.32 81.5689 41.32C80.3889 41.32 79.4689 40.94 78.7889 40.18ZM93.0806 32.7C93.1806 32.7 93.2806 32.62 93.3806 32.42C93.6006 31.9 93.8406 31.5 94.1006 31.2C94.3606 30.9 94.7206 30.68 95.2006 30.52C95.6806 30.36 96.3206 30.28 97.1406 30.28V33.36C96.9806 33.36 96.7806 33.34 96.5006 33.34C95.3206 33.34 94.5006 33.62 94.0206 34.18C93.5406 34.74 93.3006 35.66 93.3006 36.9V41H90.1006V30.44H93.3006V30.92C93.3006 31.24 93.2006 31.6 93.0206 31.96C92.9006 32.2 92.8606 32.38 92.8606 32.46C92.8606 32.62 92.9206 32.7 93.0406 32.7H93.0806ZM107.183 38.48C107.503 38.78 108.003 38.92 108.723 38.92C109.363 38.92 109.843 38.84 110.143 38.66C110.423 38.5 110.583 38.26 110.583 37.96C110.583 37.68 110.363 37.46 109.943 37.32C109.523 37.18 108.823 37.06 107.843 36.94C106.223 36.76 105.163 36.36 104.643 35.72C104.123 35.08 103.863 34.36 103.863 33.56C103.863 32.96 104.043 32.38 104.423 31.86C104.783 31.34 105.343 30.92 106.083 30.6C106.803 30.28 107.683 30.12 108.703 30.12C110.043 30.12 111.143 30.44 112.023 31.06C112.903 31.68 113.383 32.6 113.463 33.8H110.303C110.263 32.96 109.703 32.52 108.643 32.52C108.083 32.52 107.683 32.6 107.443 32.76C107.183 32.92 107.063 33.14 107.063 33.42C107.063 33.64 107.183 33.82 107.443 33.96C107.703 34.12 108.223 34.22 109.023 34.28C110.563 34.44 111.743 34.78 112.563 35.32C113.363 35.86 113.783 36.68 113.783 37.76C113.783 38.44 113.563 39.06 113.163 39.6C112.743 40.14 112.143 40.56 111.383 40.86C110.603 41.18 109.683 41.32 108.643 41.32C107.043 41.32 105.803 40.98 104.943 40.28C104.063 39.58 103.603 38.6 103.543 37.32H106.703C106.703 37.8 106.863 38.18 107.183 38.48ZM115.762 40.18C115.082 39.42 114.742 38.32 114.742 36.84V30.44H117.942V35.56C117.942 36.72 118.062 37.5 118.322 37.94C118.582 38.38 119.022 38.6 119.622 38.6C120.062 38.6 120.462 38.44 120.842 38.08C121.222 37.74 121.522 37.26 121.762 36.62C121.982 36 122.102 35.3 122.102 34.5V30.44H125.302V41H122.102V40.5C122.102 40.1 122.182 39.72 122.362 39.36C122.502 39.08 122.582 38.86 122.582 38.74C122.582 38.64 122.542 38.58 122.462 38.54C122.422 38.54 122.402 38.52 122.362 38.52C122.242 38.52 122.122 38.64 122.042 38.84C121.702 39.5 121.242 40.08 120.642 40.58C120.042 41.08 119.342 41.32 118.542 41.32C117.362 41.32 116.442 40.94 115.762 40.18ZM130.053 31.64C130.013 31.7 129.973 31.8 129.893 31.94C129.813 32.1 129.773 32.22 129.773 32.3C129.773 32.38 129.813 32.42 129.893 32.46C129.913 32.48 129.953 32.48 130.013 32.48C130.133 32.48 130.233 32.38 130.353 32.16C131.073 30.8 132.193 30.12 133.673 30.12C134.613 30.12 135.433 30.38 136.133 30.86C136.813 31.36 137.353 32.04 137.713 32.88C138.073 33.72 138.273 34.68 138.273 35.72C138.273 36.78 138.073 37.74 137.713 38.58C137.353 39.42 136.813 40.1 136.133 40.58C135.433 41.08 134.613 41.32 133.673 41.32C132.173 41.32 131.073 40.64 130.353 39.26C130.293 39.16 130.233 39.08 130.193 39.02C130.133 38.98 130.073 38.96 129.993 38.98C129.873 39.02 129.833 39.1 129.833 39.2C129.833 39.32 129.893 39.5 130.033 39.76C130.193 40.04 130.273 40.34 130.273 40.62V41H127.073V26.6H130.273V30.76C130.273 31.06 130.193 31.36 130.053 31.64ZM134.473 37.78C134.873 37.24 135.073 36.56 135.073 35.72C135.073 34.9 134.873 34.22 134.473 33.66C134.073 33.12 133.513 32.84 132.753 32.84C132.013 32.84 131.413 33.12 130.953 33.68C130.493 34.24 130.273 34.92 130.273 35.72C130.273 36.52 130.493 37.2 130.953 37.76C131.413 38.32 132.013 38.6 132.753 38.6C133.513 38.6 134.073 38.34 134.473 37.78ZM142.554 38.48C142.874 38.78 143.374 38.92 144.094 38.92C144.734 38.92 145.214 38.84 145.514 38.66C145.794 38.5 145.954 38.26 145.954 37.96C145.954 37.68 145.734 37.46 145.314 37.32C144.894 37.18 144.194 37.06 143.214 36.94C141.594 36.76 140.534 36.36 140.014 35.72C139.494 35.08 139.234 34.36 139.234 33.56C139.234 32.96 139.414 32.38 139.794 31.86C140.154 31.34 140.714 30.92 141.454 30.6C142.174 30.28 143.054 30.12 144.074 30.12C145.414 30.12 146.514 30.44 147.394 31.06C148.274 31.68 148.754 32.6 148.834 33.8H145.674C145.634 32.96 145.074 32.52 144.014 32.52C143.454 32.52 143.054 32.6 142.814 32.76C142.554 32.92 142.434 33.14 142.434 33.42C142.434 33.64 142.554 33.82 142.814 33.96C143.074 34.12 143.594 34.22 144.394 34.28C145.934 34.44 147.114 34.78 147.934 35.32C148.734 35.86 149.154 36.68 149.154 37.76C149.154 38.44 148.934 39.06 148.534 39.6C148.114 40.14 147.514 40.56 146.754 40.86C145.974 41.18 145.054 41.32 144.014 41.32C142.414 41.32 141.174 40.98 140.314 40.28C139.434 39.58 138.974 38.6 138.914 37.32H142.074C142.074 37.8 142.234 38.18 142.554 38.48ZM150.473 32.9C150.913 32.06 151.573 31.38 152.433 30.88C153.273 30.38 154.293 30.12 155.473 30.12C156.493 30.12 157.393 30.34 158.153 30.76C158.913 31.18 159.513 31.74 159.953 32.42C160.373 33.1 160.613 33.84 160.673 34.62L157.513 34.64C157.413 34.12 157.193 33.7 156.833 33.36C156.473 33.02 156.033 32.84 155.493 32.84C154.733 32.84 154.133 33.12 153.673 33.68C153.213 34.24 152.993 34.92 152.993 35.72C152.993 36.52 153.213 37.2 153.673 37.76C154.133 38.32 154.733 38.6 155.493 38.6C156.033 38.6 156.473 38.44 156.833 38.08C157.193 37.74 157.413 37.3 157.513 36.78L160.673 36.8C160.613 37.6 160.373 38.34 159.953 39.02C159.513 39.72 158.913 40.28 158.153 40.7C157.393 41.12 156.493 41.32 155.473 41.32C154.313 41.32 153.313 41.08 152.453 40.58C151.593 40.08 150.933 39.4 150.473 38.56C150.013 37.72 149.793 36.76 149.793 35.72C149.793 34.68 150.013 33.74 150.473 32.9ZM164.624 32.7C164.724 32.7 164.824 32.62 164.924 32.42C165.144 31.9 165.384 31.5 165.644 31.2C165.904 30.9 166.264 30.68 166.744 30.52C167.224 30.36 167.864 30.28 168.684 30.28V33.36C168.524 33.36 168.324 33.34 168.044 33.34C166.864 33.34 166.044 33.62 165.564 34.18C165.084 34.74 164.844 35.66 164.844 36.9V41H161.644V30.44H164.844V30.92C164.844 31.24 164.744 31.6 164.564 31.96C164.444 32.2 164.404 32.38 164.404 32.46C164.404 32.62 164.464 32.7 164.584 32.7H164.624ZM169.886 26.6H173.086V29.16H169.886V26.6ZM169.886 30.44H173.086V41H169.886V30.44ZM177.827 31.64C177.787 31.7 177.747 31.8 177.667 31.94C177.587 32.1 177.547 32.22 177.547 32.3C177.547 32.38 177.587 32.42 177.667 32.46C177.687 32.48 177.727 32.48 177.787 32.48C177.907 32.48 178.007 32.38 178.127 32.16C178.847 30.8 179.967 30.12 181.447 30.12C182.387 30.12 183.207 30.38 183.907 30.86C184.587 31.36 185.127 32.04 185.487 32.88C185.847 33.72 186.047 34.68 186.047 35.72C186.047 36.78 185.847 37.74 185.487 38.58C185.127 39.42 184.587 40.1 183.907 40.58C183.207 41.08 182.387 41.32 181.447 41.32C179.947 41.32 178.847 40.64 178.127 39.26C178.067 39.16 178.007 39.08 177.967 39.02C177.907 38.98 177.847 38.96 177.767 38.98C177.647 39.02 177.607 39.1 177.607 39.2C177.607 39.32 177.667 39.5 177.807 39.76C177.967 40.04 178.047 40.34 178.047 40.62V41H174.847V26.6H178.047V30.76C178.047 31.06 177.967 31.36 177.827 31.64ZM182.247 37.78C182.647 37.24 182.847 36.56 182.847 35.72C182.847 34.9 182.647 34.22 182.247 33.66C181.847 33.12 181.287 32.84 180.527 32.84C179.787 32.84 179.187 33.12 178.727 33.68C178.267 34.24 178.047 34.92 178.047 35.72C178.047 36.52 178.267 37.2 178.727 37.76C179.187 38.32 179.787 38.6 180.527 38.6C181.287 38.6 181.847 38.34 182.247 37.78ZM197.663 36.52H190.003C190.103 37.2 190.383 37.76 190.823 38.16C191.263 38.56 191.803 38.76 192.463 38.76C192.943 38.76 193.343 38.66 193.663 38.42C193.983 38.2 194.203 37.88 194.343 37.48H197.523C197.283 38.58 196.743 39.5 195.883 40.22C195.003 40.96 193.883 41.32 192.483 41.32C191.283 41.32 190.263 41.08 189.423 40.58C188.563 40.1 187.923 39.42 187.483 38.58C187.043 37.74 186.843 36.78 186.843 35.72C186.843 34.64 187.063 33.66 187.503 32.82C187.943 31.98 188.583 31.32 189.423 30.84C190.263 30.36 191.263 30.12 192.423 30.12C193.343 30.12 194.223 30.32 195.023 30.7C195.823 31.1 196.483 31.68 196.983 32.48C197.463 33.28 197.723 34.24 197.723 35.4C197.723 35.84 197.703 36.22 197.663 36.52ZM190.083 34.6H194.583C194.523 33.96 194.303 33.48 193.943 33.12C193.563 32.78 193.083 32.6 192.483 32.6C191.163 32.6 190.363 33.28 190.083 34.6ZM201.674 32.7C201.774 32.7 201.874 32.62 201.974 32.42C202.194 31.9 202.434 31.5 202.694 31.2C202.954 30.9 203.314 30.68 203.794 30.52C204.274 30.36 204.914 30.28 205.734 30.28V33.36C205.574 33.36 205.374 33.34 205.094 33.34C203.914 33.34 203.094 33.62 202.614 34.18C202.134 34.74 201.894 35.66 201.894 36.9V41H198.694V30.44H201.894V30.92C201.894 31.24 201.794 31.6 201.614 31.96C201.494 32.2 201.454 32.38 201.454 32.46C201.454 32.62 201.514 32.7 201.634 32.7H201.674ZM209.526 38.48C209.846 38.78 210.346 38.92 211.066 38.92C211.706 38.92 212.186 38.84 212.486 38.66C212.766 38.5 212.926 38.26 212.926 37.96C212.926 37.68 212.706 37.46 212.286 37.32C211.866 37.18 211.166 37.06 210.186 36.94C208.566 36.76 207.506 36.36 206.986 35.72C206.466 35.08 206.206 34.36 206.206 33.56C206.206 32.96 206.386 32.38 206.766 31.86C207.126 31.34 207.686 30.92 208.426 30.6C209.146 30.28 210.026 30.12 211.046 30.12C212.386 30.12 213.486 30.44 214.366 31.06C215.246 31.68 215.726 32.6 215.806 33.8H212.646C212.606 32.96 212.046 32.52 210.986 32.52C210.426 32.52 210.026 32.6 209.786 32.76C209.526 32.92 209.406 33.14 209.406 33.42C209.406 33.64 209.526 33.82 209.786 33.96C210.046 34.12 210.566 34.22 211.366 34.28C212.906 34.44 214.086 34.78 214.906 35.32C215.706 35.86 216.126 36.68 216.126 37.76C216.126 38.44 215.906 39.06 215.506 39.6C215.086 40.14 214.486 40.56 213.726 40.86C212.946 41.18 212.026 41.32 210.986 41.32C209.386 41.32 208.146 40.98 207.286 40.28C206.406 39.58 205.946 38.6 205.886 37.32H209.046C209.046 37.8 209.206 38.18 209.526 38.48ZM220.725 31.78C220.705 32.66 220.665 33.36 220.585 33.92C220.505 34.48 220.345 35.24 220.125 36.2H218.205C217.965 35.24 217.825 34.48 217.745 33.92C217.665 33.36 217.605 32.66 217.585 31.78C217.565 30.92 217.565 29.3 217.565 26.92H220.765C220.765 29.3 220.745 30.92 220.725 31.78ZM217.405 37.48H220.925V41H217.405V37.48Z" fill="white"/>
<path d="M26.058 55.021C26.552 55.203 26.955 55.463 27.254 55.827C27.54 56.191 27.696 56.672 27.696 57.27C27.696 57.79 27.553 58.258 27.28 58.687C26.994 59.116 26.578 59.454 26.032 59.714C25.486 59.974 24.823 60.104 24.056 60.104C23.25 60.104 22.574 59.961 22.028 59.649C21.482 59.337 21.066 58.934 20.806 58.427C20.546 57.92 20.416 57.374 20.416 56.776H21.716C21.729 57.348 21.911 57.855 22.275 58.297C22.639 58.739 23.224 58.96 24.056 58.96C24.862 58.96 25.447 58.804 25.811 58.479C26.162 58.154 26.344 57.777 26.344 57.348C26.344 56.932 26.175 56.62 25.837 56.386C25.499 56.152 24.901 55.983 24.043 55.879C22.938 55.749 22.106 55.489 21.56 55.073C21.001 54.67 20.728 54.085 20.728 53.318C20.728 52.837 20.858 52.395 21.118 52.005C21.378 51.615 21.768 51.316 22.275 51.082C22.782 50.861 23.38 50.744 24.069 50.744C24.784 50.744 25.382 50.887 25.876 51.147C26.357 51.42 26.721 51.771 26.955 52.213C27.189 52.655 27.319 53.136 27.345 53.656H26.084C26.084 53.37 26.006 53.084 25.876 52.811C25.733 52.551 25.512 52.33 25.2 52.148C24.888 51.979 24.511 51.888 24.043 51.888C23.341 51.888 22.847 52.031 22.535 52.291C22.223 52.564 22.067 52.876 22.067 53.24C22.067 53.578 22.197 53.864 22.483 54.098C22.769 54.332 23.328 54.501 24.173 54.605C24.927 54.709 25.564 54.852 26.058 55.021ZM29.3733 59.415C28.9443 58.96 28.7363 58.258 28.7363 57.296V53.344H29.9843V57.036C29.9843 57.764 30.1143 58.284 30.3873 58.57C30.6603 58.869 31.0373 59.012 31.5183 59.012C31.8433 59.012 32.1553 58.908 32.4673 58.7C32.7793 58.492 33.0263 58.18 33.2213 57.79C33.4163 57.4 33.5203 56.958 33.5203 56.451V53.344H34.7683V60H33.5203V59.558C33.5203 59.246 33.5593 58.96 33.6633 58.674C33.6893 58.596 33.7153 58.531 33.7153 58.492C33.7153 58.453 33.6893 58.427 33.6503 58.401H33.6243C33.5853 58.401 33.5463 58.44 33.5073 58.518C33.2993 58.921 33.0003 59.285 32.6103 59.61C32.2073 59.948 31.7393 60.104 31.2063 60.104C30.4133 60.104 29.8023 59.883 29.3733 59.415ZM37.451 54.579C37.438 54.605 37.425 54.631 37.412 54.683C37.386 54.735 37.386 54.774 37.386 54.8C37.386 54.826 37.412 54.852 37.451 54.852L37.49 54.865C37.529 54.865 37.568 54.826 37.607 54.722C37.815 54.28 38.101 53.916 38.491 53.643C38.881 53.383 39.323 53.24 39.843 53.24C40.402 53.24 40.909 53.396 41.351 53.682C41.793 53.981 42.144 54.397 42.404 54.917C42.651 55.437 42.781 56.022 42.781 56.672C42.781 57.322 42.651 57.92 42.404 58.44C42.144 58.96 41.793 59.376 41.351 59.662C40.909 59.961 40.402 60.104 39.843 60.104C39.336 60.104 38.894 59.974 38.504 59.701C38.114 59.428 37.815 59.064 37.607 58.596C37.568 58.505 37.529 58.466 37.477 58.479C37.425 58.492 37.399 58.518 37.399 58.57C37.399 58.622 37.412 58.674 37.451 58.739C37.529 59.012 37.581 59.246 37.581 59.441V60H36.333V50.64H37.581V53.864C37.581 54.085 37.529 54.319 37.451 54.579ZM41.026 58.31C41.364 57.868 41.533 57.322 41.533 56.672C41.533 56.022 41.364 55.489 41.026 55.047C40.688 54.605 40.207 54.384 39.583 54.384C39.193 54.384 38.855 54.488 38.543 54.696C38.231 54.904 37.997 55.19 37.828 55.541C37.659 55.892 37.581 56.269 37.581 56.672C37.581 57.088 37.659 57.465 37.828 57.816C37.997 58.167 38.231 58.44 38.543 58.648C38.855 58.856 39.193 58.96 39.583 58.96C40.207 58.96 40.688 58.752 41.026 58.31ZM45.0143 58.284C45.1183 58.492 45.3133 58.661 45.5733 58.804C45.8333 58.947 46.1583 59.012 46.5613 59.012C47.1333 59.012 47.5493 58.921 47.8093 58.739C48.0563 58.557 48.1863 58.336 48.1863 58.076C48.1863 57.881 48.1083 57.725 47.9783 57.608C47.8483 57.491 47.6273 57.4 47.3413 57.322C47.0553 57.257 46.6393 57.192 46.1063 57.14C45.2873 57.062 44.7023 56.854 44.3513 56.516C43.9873 56.191 43.8183 55.788 43.8183 55.294C43.8183 54.956 43.9223 54.618 44.1303 54.306C44.3383 53.994 44.6373 53.734 45.0533 53.539C45.4693 53.344 45.9633 53.24 46.5483 53.24C47.3543 53.24 47.9913 53.448 48.4593 53.864C48.9273 54.28 49.1743 54.8 49.2263 55.45H48.0043C47.9783 55.164 47.8483 54.917 47.6273 54.683C47.3933 54.449 47.0293 54.332 46.5093 54.332C46.0153 54.332 45.6513 54.423 45.4173 54.592C45.1833 54.761 45.0663 54.969 45.0663 55.203C45.0663 55.437 45.1703 55.632 45.4043 55.762C45.6253 55.905 46.0803 56.009 46.7563 56.074C47.6663 56.178 48.3423 56.36 48.7843 56.646C49.2133 56.932 49.4343 57.348 49.4343 57.881C49.4343 58.557 49.1613 59.103 48.6413 59.506C48.1213 59.909 47.4063 60.104 46.5093 60.104C45.6123 60.104 44.9103 59.896 44.4163 59.454C43.9093 59.025 43.6363 58.44 43.6103 57.686H44.8323C44.8323 57.881 44.8973 58.076 45.0143 58.284ZM50.6527 54.943C50.9127 54.423 51.2767 54.007 51.7707 53.695C52.2647 53.396 52.8497 53.24 53.5257 53.24C54.0977 53.24 54.6047 53.37 55.0467 53.604C55.4887 53.838 55.8267 54.163 56.0737 54.553C56.3077 54.943 56.4507 55.372 56.5027 55.84H55.2807C55.2157 55.437 55.0337 55.099 54.7347 54.813C54.4227 54.527 54.0327 54.384 53.5387 54.384C53.1227 54.384 52.7717 54.488 52.4597 54.696C52.1477 54.904 51.9137 55.19 51.7577 55.528C51.5887 55.879 51.5107 56.256 51.5107 56.672C51.5107 57.088 51.5887 57.478 51.7577 57.816C51.9137 58.167 52.1477 58.44 52.4597 58.648C52.7717 58.856 53.1227 58.96 53.5387 58.96C54.0327 58.96 54.4227 58.83 54.7347 58.544C55.0337 58.258 55.2157 57.92 55.2807 57.504H56.5027C56.4507 57.972 56.3077 58.414 56.0737 58.804C55.8267 59.194 55.4887 59.519 55.0597 59.753C54.6177 59.987 54.1107 60.104 53.5257 60.104C52.8627 60.104 52.2907 59.961 51.7967 59.649C51.3027 59.35 50.9127 58.934 50.6527 58.414C50.3927 57.894 50.2627 57.309 50.2627 56.672C50.2627 56.048 50.3927 55.463 50.6527 54.943ZM58.7038 54.891C58.7428 54.891 58.7818 54.852 58.8208 54.774C58.9768 54.384 59.1328 54.085 59.3018 53.877C59.4578 53.669 59.6918 53.5 60.0038 53.396C60.3158 53.292 60.7448 53.24 61.2908 53.24V54.514C61.1868 54.514 61.0438 54.501 60.8618 54.501C60.0818 54.501 59.5488 54.683 59.2498 55.047C58.9378 55.411 58.7948 55.996 58.7948 56.815V60H57.5468V53.344H58.7948V53.786C58.7948 54.046 58.7428 54.345 58.6518 54.657C58.6258 54.735 58.6258 54.774 58.6258 54.8C58.6258 54.852 58.6388 54.891 58.6908 54.891H58.7038ZM62.281 50.64H63.633V52.096H62.281V50.64ZM62.333 53.344H63.581V60H62.333V53.344ZM66.2566 54.579C66.2436 54.605 66.2306 54.631 66.2176 54.683C66.1916 54.735 66.1916 54.774 66.1916 54.8C66.1916 54.826 66.2176 54.852 66.2566 54.852L66.2956 54.865C66.3346 54.865 66.3736 54.826 66.4126 54.722C66.6206 54.28 66.9066 53.916 67.2966 53.643C67.6866 53.383 68.1286 53.24 68.6486 53.24C69.2076 53.24 69.7146 53.396 70.1566 53.682C70.5986 53.981 70.9496 54.397 71.2096 54.917C71.4566 55.437 71.5866 56.022 71.5866 56.672C71.5866 57.322 71.4566 57.92 71.2096 58.44C70.9496 58.96 70.5986 59.376 70.1566 59.662C69.7146 59.961 69.2076 60.104 68.6486 60.104C68.1416 60.104 67.6996 59.974 67.3096 59.701C66.9196 59.428 66.6206 59.064 66.4126 58.596C66.3736 58.505 66.3346 58.466 66.2826 58.479C66.2306 58.492 66.2046 58.518 66.2046 58.57C66.2046 58.622 66.2176 58.674 66.2566 58.739C66.3346 59.012 66.3866 59.246 66.3866 59.441V60H65.1386V50.64H66.3866V53.864C66.3866 54.085 66.3346 54.319 66.2566 54.579ZM69.8316 58.31C70.1696 57.868 70.3386 57.322 70.3386 56.672C70.3386 56.022 70.1696 55.489 69.8316 55.047C69.4936 54.605 69.0126 54.384 68.3886 54.384C67.9986 54.384 67.6606 54.488 67.3486 54.696C67.0366 54.904 66.8026 55.19 66.6336 55.541C66.4646 55.892 66.3866 56.269 66.3866 56.672C66.3866 57.088 66.4646 57.465 66.6336 57.816C66.8026 58.167 67.0366 58.44 67.3486 58.648C67.6606 58.856 67.9986 58.96 68.3886 58.96C69.0126 58.96 69.4936 58.752 69.8316 58.31ZM78.6678 57.036H73.7018C73.7408 57.595 73.9488 58.05 74.3128 58.414C74.6768 58.778 75.1448 58.96 75.7298 58.96C76.1588 58.96 76.4968 58.869 76.7438 58.661C76.9908 58.453 77.1728 58.154 77.3028 57.751H78.5898C78.4338 58.427 78.1218 58.999 77.6278 59.441C77.1338 59.883 76.4968 60.104 75.7038 60.104C75.0278 60.104 74.4428 59.961 73.9488 59.649C73.4548 59.35 73.0908 58.934 72.8438 58.414C72.5838 57.894 72.4668 57.322 72.4668 56.672C72.4668 56.022 72.5968 55.424 72.8698 54.904C73.1298 54.384 73.5068 53.981 74.0008 53.682C74.4948 53.396 75.0538 53.24 75.6778 53.24C76.1978 53.24 76.6788 53.37 77.1468 53.604C77.6148 53.838 77.9918 54.215 78.2778 54.709C78.5638 55.216 78.7068 55.84 78.7068 56.581C78.7068 56.737 78.6938 56.893 78.6678 57.036ZM77.4588 55.996C77.4068 55.502 77.2378 55.099 76.9388 54.787C76.6268 54.488 76.2368 54.332 75.7428 54.332C75.1578 54.332 74.7028 54.488 74.3908 54.787C74.0788 55.099 73.8708 55.502 73.7668 55.996H77.4588ZM85.9901 54.436V57.92C85.9901 58.31 86.0421 58.57 86.1591 58.7C86.2761 58.843 86.5101 58.908 86.8741 58.908H87.8621V60H86.7701C86.0681 60 85.5481 59.857 85.2231 59.558C84.8981 59.272 84.7421 58.765 84.7421 58.05V54.436H83.4941V53.344H84.7421V51.472H85.9901V53.344H87.8621V54.436H85.9901ZM93.4153 53.695C93.9093 54.007 94.2863 54.423 94.5463 54.943C94.8063 55.463 94.9363 56.048 94.9363 56.672C94.9363 57.309 94.8063 57.894 94.5463 58.414C94.2863 58.934 93.9093 59.35 93.4153 59.649C92.9213 59.961 92.3623 60.104 91.7123 60.104C91.0623 60.104 90.4903 59.961 89.9963 59.649C89.5023 59.35 89.1383 58.934 88.8783 58.414C88.6183 57.894 88.4883 57.309 88.4883 56.672C88.4883 56.048 88.6183 55.463 88.8783 54.943C89.1383 54.423 89.5023 54.007 89.9963 53.695C90.4903 53.396 91.0623 53.24 91.7123 53.24C92.3623 53.24 92.9213 53.396 93.4153 53.695ZM93.1553 58.31C93.5063 57.868 93.6883 57.322 93.6883 56.672C93.6883 56.022 93.5063 55.489 93.1553 55.047C92.7913 54.605 92.3103 54.384 91.7123 54.384C91.1013 54.384 90.6203 54.605 90.2693 55.047C89.9053 55.489 89.7363 56.022 89.7363 56.672C89.7363 57.322 89.9053 57.868 90.2693 58.31C90.6203 58.752 91.1013 58.96 91.7123 58.96C92.3103 58.96 92.7913 58.752 93.1553 58.31ZM106.128 57.036H101.162C101.201 57.595 101.409 58.05 101.773 58.414C102.137 58.778 102.605 58.96 103.19 58.96C103.619 58.96 103.957 58.869 104.204 58.661C104.451 58.453 104.633 58.154 104.763 57.751H106.05C105.894 58.427 105.582 58.999 105.088 59.441C104.594 59.883 103.957 60.104 103.164 60.104C102.488 60.104 101.903 59.961 101.409 59.649C100.915 59.35 100.551 58.934 100.304 58.414C100.044 57.894 99.9267 57.322 99.9267 56.672C99.9267 56.022 100.057 55.424 100.33 54.904C100.59 54.384 100.967 53.981 101.461 53.682C101.955 53.396 102.514 53.24 103.138 53.24C103.658 53.24 104.139 53.37 104.607 53.604C105.075 53.838 105.452 54.215 105.738 54.709C106.024 55.216 106.167 55.84 106.167 56.581C106.167 56.737 106.154 56.893 106.128 57.036ZM104.919 55.996C104.867 55.502 104.698 55.099 104.399 54.787C104.087 54.488 103.697 54.332 103.203 54.332C102.618 54.332 102.163 54.488 101.851 54.787C101.539 55.099 101.331 55.502 101.227 55.996H104.919ZM112.593 53.929C113.022 54.397 113.243 55.099 113.243 56.048V60H111.995V56.308C111.995 55.58 111.852 55.073 111.579 54.774C111.306 54.488 110.929 54.332 110.461 54.332C110.123 54.332 109.811 54.449 109.499 54.657C109.187 54.865 108.94 55.164 108.745 55.554C108.55 55.944 108.459 56.399 108.459 56.893V60H107.211V53.344H108.459V53.786C108.459 54.098 108.407 54.397 108.316 54.67C108.29 54.761 108.264 54.826 108.264 54.865C108.264 54.917 108.277 54.943 108.329 54.943H108.355C108.394 54.943 108.433 54.904 108.472 54.826C108.563 54.592 108.719 54.358 108.94 54.111C109.148 53.864 109.421 53.656 109.733 53.487C110.045 53.331 110.396 53.24 110.773 53.24C111.553 53.24 112.164 53.474 112.593 53.929ZM114.756 50.64H116.108V52.096H114.756V50.64ZM116.056 60.546C116.056 61.261 115.887 61.768 115.562 62.054C115.237 62.353 114.73 62.496 114.028 62.496H113.144V61.404H113.924C114.275 61.404 114.509 61.339 114.626 61.196C114.743 61.066 114.808 60.806 114.808 60.416V53.344H116.056V60.546ZM122.031 53.695C122.525 54.007 122.902 54.423 123.162 54.943C123.422 55.463 123.551 56.048 123.551 56.672C123.551 57.309 123.422 57.894 123.162 58.414C122.902 58.934 122.525 59.35 122.031 59.649C121.537 59.961 120.978 60.104 120.328 60.104C119.678 60.104 119.106 59.961 118.612 59.649C118.118 59.35 117.754 58.934 117.494 58.414C117.234 57.894 117.104 57.309 117.104 56.672C117.104 56.048 117.234 55.463 117.494 54.943C117.754 54.423 118.118 54.007 118.612 53.695C119.106 53.396 119.678 53.24 120.328 53.24C120.978 53.24 121.537 53.396 122.031 53.695ZM121.771 58.31C122.122 57.868 122.304 57.322 122.304 56.672C122.304 56.022 122.122 55.489 121.771 55.047C121.407 54.605 120.926 54.384 120.328 54.384C119.717 54.384 119.236 54.605 118.885 55.047C118.521 55.489 118.352 56.022 118.352 56.672C118.352 57.322 118.521 57.868 118.885 58.31C119.236 58.752 119.717 58.96 120.328 58.96C120.926 58.96 121.407 58.752 121.771 58.31ZM126.905 58.258C126.97 58.44 127.009 58.674 127.009 58.96C127.009 59.012 127.009 59.064 127.022 59.09C127.035 59.116 127.061 59.129 127.113 59.129C127.152 59.129 127.178 59.116 127.191 59.09C127.204 59.064 127.217 59.012 127.217 58.96C127.217 58.726 127.256 58.492 127.334 58.258L129.063 53.344H130.415L127.529 60.793C127.295 61.417 126.996 61.846 126.645 62.106C126.281 62.366 125.813 62.496 125.215 62.496H124.357V61.404H124.955C125.267 61.404 125.514 61.391 125.683 61.339C125.852 61.287 125.982 61.222 126.06 61.118C126.138 61.027 126.229 60.884 126.307 60.702L126.489 60.26L123.759 53.344H125.111L126.905 58.258ZM144.143 53.877C144.559 54.293 144.767 54.982 144.767 55.944V60H143.519V55.788C143.519 54.826 143.077 54.332 142.206 54.332C141.946 54.332 141.712 54.41 141.478 54.566C141.244 54.722 141.062 54.93 140.919 55.216C140.776 55.502 140.711 55.84 140.711 56.23V60H139.463V55.944C139.463 55.424 139.359 55.021 139.177 54.748C138.982 54.475 138.683 54.332 138.267 54.332C137.994 54.332 137.734 54.423 137.487 54.605C137.227 54.787 137.032 55.047 136.876 55.385C136.72 55.723 136.655 56.1 136.655 56.516V60H135.407V53.344H136.655V53.786C136.655 54.046 136.603 54.332 136.512 54.631C136.512 54.657 136.499 54.683 136.486 54.722C136.473 54.761 136.473 54.787 136.486 54.813C136.486 54.839 136.512 54.852 136.538 54.852H136.577C136.616 54.852 136.655 54.826 136.681 54.748C136.837 54.293 137.097 53.929 137.461 53.656C137.825 53.383 138.228 53.24 138.683 53.24C139.099 53.24 139.463 53.383 139.775 53.643C140.087 53.903 140.282 54.241 140.386 54.657C140.399 54.735 140.438 54.761 140.516 54.761C140.581 54.761 140.633 54.735 140.659 54.657C140.828 54.215 141.075 53.864 141.4 53.617C141.725 53.37 142.089 53.24 142.505 53.24C143.181 53.24 143.727 53.461 144.143 53.877ZM150.735 53.695C151.229 54.007 151.606 54.423 151.866 54.943C152.126 55.463 152.256 56.048 152.256 56.672C152.256 57.309 152.126 57.894 151.866 58.414C151.606 58.934 151.229 59.35 150.735 59.649C150.241 59.961 149.682 60.104 149.032 60.104C148.382 60.104 147.81 59.961 147.316 59.649C146.822 59.35 146.458 58.934 146.198 58.414C145.938 57.894 145.808 57.309 145.808 56.672C145.808 56.048 145.938 55.463 146.198 54.943C146.458 54.423 146.822 54.007 147.316 53.695C147.81 53.396 148.382 53.24 149.032 53.24C149.682 53.24 150.241 53.396 150.735 53.695ZM150.475 58.31C150.826 57.868 151.008 57.322 151.008 56.672C151.008 56.022 150.826 55.489 150.475 55.047C150.111 54.605 149.63 54.384 149.032 54.384C148.421 54.384 147.94 54.605 147.589 55.047C147.225 55.489 147.056 56.022 147.056 56.672C147.056 57.322 147.225 57.868 147.589 58.31C147.94 58.752 148.421 58.96 149.032 58.96C149.63 58.96 150.111 58.752 150.475 58.31ZM154.452 54.891C154.491 54.891 154.53 54.852 154.569 54.774C154.725 54.384 154.881 54.085 155.05 53.877C155.206 53.669 155.44 53.5 155.752 53.396C156.064 53.292 156.493 53.24 157.039 53.24V54.514C156.935 54.514 156.792 54.501 156.61 54.501C155.83 54.501 155.297 54.683 154.998 55.047C154.686 55.411 154.543 55.996 154.543 56.815V60H153.295V53.344H154.543V53.786C154.543 54.046 154.491 54.345 154.4 54.657C154.374 54.735 154.374 54.774 154.374 54.8C154.374 54.852 154.387 54.891 154.439 54.891H154.452ZM163.447 57.036H158.481C158.52 57.595 158.728 58.05 159.092 58.414C159.456 58.778 159.924 58.96 160.509 58.96C160.938 58.96 161.276 58.869 161.523 58.661C161.77 58.453 161.952 58.154 162.082 57.751H163.369C163.213 58.427 162.901 58.999 162.407 59.441C161.913 59.883 161.276 60.104 160.483 60.104C159.807 60.104 159.222 59.961 158.728 59.649C158.234 59.35 157.87 58.934 157.623 58.414C157.363 57.894 157.246 57.322 157.246 56.672C157.246 56.022 157.376 55.424 157.649 54.904C157.909 54.384 158.286 53.981 158.78 53.682C159.274 53.396 159.833 53.24 160.457 53.24C160.977 53.24 161.458 53.37 161.926 53.604C162.394 53.838 162.771 54.215 163.057 54.709C163.343 55.216 163.486 55.84 163.486 56.581C163.486 56.737 163.473 56.893 163.447 57.036ZM162.238 55.996C162.186 55.502 162.017 55.099 161.718 54.787C161.406 54.488 161.016 54.332 160.522 54.332C159.937 54.332 159.482 54.488 159.17 54.787C158.858 55.099 158.65 55.502 158.546 55.996H162.238ZM170.015 54.579C170.002 54.605 169.989 54.631 169.976 54.683C169.95 54.735 169.95 54.774 169.95 54.8C169.95 54.826 169.976 54.852 170.015 54.852L170.054 54.865C170.093 54.865 170.132 54.826 170.171 54.722C170.379 54.28 170.665 53.916 171.055 53.643C171.445 53.383 171.887 53.24 172.407 53.24C172.966 53.24 173.473 53.396 173.915 53.682C174.357 53.981 174.708 54.397 174.968 54.917C175.215 55.437 175.345 56.022 175.345 56.672C175.345 57.322 175.215 57.92 174.968 58.44C174.708 58.96 174.357 59.376 173.915 59.662C173.473 59.961 172.966 60.104 172.407 60.104C171.9 60.104 171.458 59.974 171.068 59.701C170.678 59.428 170.379 59.064 170.171 58.596C170.132 58.505 170.093 58.466 170.041 58.479C169.989 58.492 169.963 58.518 169.963 58.57C169.963 58.622 169.976 58.674 170.015 58.739C170.093 59.012 170.145 59.246 170.145 59.441V60H168.897V50.64H170.145V53.864C170.145 54.085 170.093 54.319 170.015 54.579ZM173.59 58.31C173.928 57.868 174.097 57.322 174.097 56.672C174.097 56.022 173.928 55.489 173.59 55.047C173.252 54.605 172.771 54.384 172.147 54.384C171.757 54.384 171.419 54.488 171.107 54.696C170.795 54.904 170.561 55.19 170.392 55.541C170.223 55.892 170.145 56.269 170.145 56.672C170.145 57.088 170.223 57.465 170.392 57.816C170.561 58.167 170.795 58.44 171.107 58.648C171.419 58.856 171.757 58.96 172.147 58.96C172.771 58.96 173.252 58.752 173.59 58.31ZM182.427 57.036H177.461C177.5 57.595 177.708 58.05 178.072 58.414C178.436 58.778 178.904 58.96 179.489 58.96C179.918 58.96 180.256 58.869 180.503 58.661C180.75 58.453 180.932 58.154 181.062 57.751H182.349C182.193 58.427 181.881 58.999 181.387 59.441C180.893 59.883 180.256 60.104 179.463 60.104C178.787 60.104 178.202 59.961 177.708 59.649C177.214 59.35 176.85 58.934 176.603 58.414C176.343 57.894 176.226 57.322 176.226 56.672C176.226 56.022 176.356 55.424 176.629 54.904C176.889 54.384 177.266 53.981 177.76 53.682C178.254 53.396 178.813 53.24 179.437 53.24C179.957 53.24 180.438 53.37 180.906 53.604C181.374 53.838 181.751 54.215 182.037 54.709C182.323 55.216 182.466 55.84 182.466 56.581C182.466 56.737 182.453 56.893 182.427 57.036ZM181.218 55.996C181.166 55.502 180.997 55.099 180.698 54.787C180.386 54.488 179.996 54.332 179.502 54.332C178.917 54.332 178.462 54.488 178.15 54.787C177.838 55.099 177.63 55.502 177.526 55.996H181.218ZM188.892 53.929C189.321 54.397 189.542 55.099 189.542 56.048V60H188.294V56.308C188.294 55.58 188.151 55.073 187.878 54.774C187.605 54.488 187.228 54.332 186.76 54.332C186.422 54.332 186.11 54.449 185.798 54.657C185.486 54.865 185.239 55.164 185.044 55.554C184.849 55.944 184.758 56.399 184.758 56.893V60H183.51V53.344H184.758V53.786C184.758 54.098 184.706 54.397 184.615 54.67C184.589 54.761 184.563 54.826 184.563 54.865C184.563 54.917 184.576 54.943 184.628 54.943H184.654C184.693 54.943 184.732 54.904 184.771 54.826C184.862 54.592 185.018 54.358 185.239 54.111C185.447 53.864 185.72 53.656 186.032 53.487C186.344 53.331 186.695 53.24 187.072 53.24C187.852 53.24 188.463 53.474 188.892 53.929ZM196.785 57.036H191.819C191.858 57.595 192.066 58.05 192.43 58.414C192.794 58.778 193.262 58.96 193.847 58.96C194.276 58.96 194.614 58.869 194.861 58.661C195.108 58.453 195.29 58.154 195.42 57.751H196.707C196.551 58.427 196.239 58.999 195.745 59.441C195.251 59.883 194.614 60.104 193.821 60.104C193.145 60.104 192.56 59.961 192.066 59.649C191.572 59.35 191.208 58.934 190.961 58.414C190.701 57.894 190.584 57.322 190.584 56.672C190.584 56.022 190.714 55.424 190.987 54.904C191.247 54.384 191.624 53.981 192.118 53.682C192.612 53.396 193.171 53.24 193.795 53.24C194.315 53.24 194.796 53.37 195.264 53.604C195.732 53.838 196.109 54.215 196.395 54.709C196.681 55.216 196.824 55.84 196.824 56.581C196.824 56.737 196.811 56.893 196.785 57.036ZM195.576 55.996C195.524 55.502 195.355 55.099 195.056 54.787C194.744 54.488 194.354 54.332 193.86 54.332C193.275 54.332 192.82 54.488 192.508 54.787C192.196 55.099 191.988 55.502 191.884 55.996H195.576ZM199.701 51.94C199.584 52.083 199.532 52.343 199.532 52.72V53.344H201.404V54.436H199.532V60H198.284V54.436H197.244V53.344H198.284V52.59C198.284 51.888 198.44 51.381 198.765 51.082C199.09 50.796 199.61 50.64 200.312 50.64H201.404V51.732H200.416C200.052 51.732 199.818 51.81 199.701 51.94ZM202.501 50.64H203.853V52.096H202.501V50.64ZM202.553 53.344H203.801V60H202.553V53.344ZM207.129 54.436V57.92C207.129 58.31 207.181 58.57 207.298 58.7C207.415 58.843 207.649 58.908 208.013 58.908H209.001V60H207.909C207.207 60 206.687 59.857 206.362 59.558C206.037 59.272 205.881 58.765 205.881 58.05V54.436H204.633V53.344H205.881V51.472H207.129V53.344H209.001V54.436H207.129ZM211.45 58.284C211.554 58.492 211.749 58.661 212.009 58.804C212.269 58.947 212.594 59.012 212.997 59.012C213.569 59.012 213.985 58.921 214.245 58.739C214.492 58.557 214.622 58.336 214.622 58.076C214.622 57.881 214.544 57.725 214.414 57.608C214.284 57.491 214.063 57.4 213.777 57.322C213.491 57.257 213.075 57.192 212.542 57.14C211.723 57.062 211.138 56.854 210.787 56.516C210.423 56.191 210.254 55.788 210.254 55.294C210.254 54.956 210.358 54.618 210.566 54.306C210.774 53.994 211.073 53.734 211.489 53.539C211.905 53.344 212.399 53.24 212.984 53.24C213.79 53.24 214.427 53.448 214.895 53.864C215.363 54.28 215.61 54.8 215.662 55.45H214.44C214.414 55.164 214.284 54.917 214.063 54.683C213.829 54.449 213.465 54.332 212.945 54.332C212.451 54.332 212.087 54.423 211.853 54.592C211.619 54.761 211.502 54.969 211.502 55.203C211.502 55.437 211.606 55.632 211.84 55.762C212.061 55.905 212.516 56.009 213.192 56.074C214.102 56.178 214.778 56.36 215.22 56.646C215.649 56.932 215.87 57.348 215.87 57.881C215.87 58.557 215.597 59.103 215.077 59.506C214.557 59.909 213.842 60.104 212.945 60.104C212.048 60.104 211.346 59.896 210.852 59.454C210.345 59.025 210.072 58.44 210.046 57.686H211.268C211.268 57.881 211.333 58.076 211.45 58.284ZM218.57 58.336V60H216.906V58.336H218.57Z" fill="white"/>
<defs>
<clipPath id="clip0_328_3336">
<rect width="64" height="64" fill="white" transform="translate(269.949 8.48749) rotate(6.69503)"/>
</clipPath>
</defs>
</svg>
