<svg width="32" height="32" viewBox="0 0 32 32" fill="none" xmlns="http://www.w3.org/2000/svg">
<path d="M9.46387 25.8036H4.01744C3.43964 25.8036 2.88552 25.574 2.47696 25.1655C2.06839 24.7571 1.83887 24.2028 1.83887 23.6251V4.01793C1.83887 3.44013 2.06839 2.88601 2.47696 2.47744C2.88552 2.06888 3.43964 1.83936 4.01744 1.83936H17.0889L23.6246 8.37507V10.5536" stroke="black" stroke-width="1.5" stroke-linecap="round" stroke-linejoin="round"/>
<path d="M29.9862 28.2221C30.0932 28.4195 30.149 28.6404 30.149 28.8648C30.149 29.0894 30.0932 29.3101 29.9862 29.5074C29.886 29.7044 29.7331 29.8695 29.5446 29.9848C29.3564 30.1002 29.1396 30.1612 28.9187 30.161H16.1306C15.9097 30.1612 15.6931 30.1002 15.5047 29.9848C15.3163 29.8695 15.1635 29.7044 15.0631 29.5074C14.9563 29.3101 14.9004 29.0894 14.9004 28.8648C14.9004 28.6404 14.9563 28.4195 15.0631 28.2221L21.4899 16.6322C21.5782 16.4157 21.7289 16.2305 21.923 16.1001C22.117 15.9697 22.3454 15.9001 22.5791 15.9001C22.8128 15.9001 23.0414 15.9697 23.2355 16.1001C23.4294 16.2305 23.5801 16.4157 23.6684 16.6322L29.9862 28.2221Z" stroke="black" stroke-width="1.5" stroke-linecap="round" stroke-linejoin="round"/>
<path d="M22.5352 23.625V21.4465" stroke="black" stroke-width="1.5" stroke-linecap="round" stroke-linejoin="round"/>
<path d="M22.5244 27.1657C22.374 27.1657 22.252 27.0437 22.252 26.8931C22.252 26.7426 22.374 26.6206 22.5244 26.6206" stroke="black" stroke-width="1.5" stroke-linecap="round" stroke-linejoin="round"/>
<path d="M22.5244 27.1657C22.675 27.1657 22.797 27.0437 22.797 26.8931C22.797 26.7426 22.675 26.6206 22.5244 26.6206" stroke="black" stroke-width="1.5" stroke-linecap="round" stroke-linejoin="round"/>
</svg>
