<svg width="350" height="142" viewBox="0 0 350 142" fill="none" xmlns="http://www.w3.org/2000/svg">
<rect x="0.5" y="0.5" width="349" height="141" rx="7.5" fill="white"/>
<rect x="0.5" y="0.5" width="349" height="141" rx="7.5" stroke="#B8B8B8" stroke-dasharray="6 6"/>
<g clip-path="url(#clip0_97_1805)">
<path d="M185.976 52.8639C185.56 52.8639 185.161 53.0293 184.867 53.3233C184.573 53.6173 184.408 54.0161 184.408 54.4319V59.7318L182.087 57.4111C181.268 56.5981 180.16 56.1421 179.006 56.1421C177.852 56.1421 176.744 56.5982 175.925 57.4111L174.827 58.5245L170.939 54.6201C170.119 53.8071 169.012 53.351 167.858 53.351C166.703 53.351 165.596 53.8071 164.776 54.6201L162.456 56.9565V48.1599C162.456 47.7441 162.621 47.3453 162.915 47.0511C163.209 46.7571 163.608 46.5919 164.024 46.5919H176.568C176.984 46.5919 177.383 46.4267 177.677 46.1327C177.971 45.8386 178.136 45.4398 178.136 45.0239C178.136 44.6081 177.971 44.2093 177.677 43.9151C177.383 43.6211 176.984 43.4559 176.568 43.4559H164.024C162.776 43.4559 161.58 43.9515 160.698 44.8337C159.815 45.7159 159.32 46.9123 159.32 48.1599V67.3209C159.324 68.4757 159.784 69.5821 160.601 70.3986C161.418 71.2151 162.524 71.6758 163.679 71.6799H183.185C183.61 71.6765 184.032 71.6131 184.439 71.4918C185.344 71.2378 186.142 70.6938 186.708 69.9433C187.275 69.1926 187.579 68.2769 187.575 67.3366V54.4319C187.575 54.2234 187.534 54.0169 187.453 53.8245C187.372 53.6322 187.254 53.4581 187.105 53.3119C186.956 53.1659 186.779 53.0511 186.585 52.9742C186.392 52.8971 186.184 52.8598 185.976 52.8639ZM164.024 68.5439C163.608 68.5439 163.209 68.3787 162.915 68.0847C162.621 67.7907 162.456 67.3918 162.456 66.9759V61.3782L166.987 56.8466C167.216 56.6189 167.527 56.4909 167.85 56.4909C168.173 56.4909 168.483 56.6189 168.712 56.8466L180.425 68.5439H164.024ZM184.408 66.9759C184.398 67.2795 184.3 67.5737 184.126 67.8226L177.038 60.7039L178.152 59.6063C178.264 59.4915 178.398 59.4005 178.546 59.3382C178.694 59.2759 178.853 59.2439 179.014 59.2439C179.174 59.2439 179.334 59.2759 179.482 59.3382C179.63 59.4005 179.764 59.4915 179.876 59.6063L184.408 64.1693V66.9759ZM189.112 43.4559H187.544V41.8879C187.544 41.4721 187.379 41.0733 187.085 40.7791C186.791 40.4851 186.392 40.3199 185.976 40.3199C185.56 40.3199 185.161 40.4851 184.867 40.7791C184.573 41.0733 184.408 41.4721 184.408 41.8879V43.4559H182.84C182.424 43.4559 182.025 43.6211 181.731 43.9151C181.437 44.2093 181.272 44.6081 181.272 45.0239C181.272 45.4398 181.437 45.8386 181.731 46.1327C182.025 46.4267 182.424 46.5919 182.84 46.5919H184.408V48.1599C184.408 48.5758 184.573 48.9746 184.867 49.2687C185.161 49.5627 185.56 49.7279 185.976 49.7279C186.392 49.7279 186.791 49.5627 187.085 49.2687C187.379 48.9746 187.544 48.5758 187.544 48.1599V46.5919H189.112C189.528 46.5919 189.926 46.4267 190.221 46.1327C190.515 45.8386 190.68 45.4398 190.68 45.0239C190.68 44.6081 190.515 44.2093 190.221 43.9151C189.927 43.6211 189.528 43.4559 189.112 43.4559Z" fill="#333030"/>
</g>
<path d="M121.629 89.44C122.061 88.576 122.685 87.888 123.517 87.376C124.333 86.864 125.309 86.608 126.429 86.608C127.517 86.608 128.429 86.832 129.165 87.264C129.901 87.696 130.461 88.24 130.845 88.912C131.213 89.584 131.421 90.256 131.485 90.96H129.837C129.773 90.48 129.613 90.016 129.357 89.568C129.085 89.12 128.701 88.752 128.221 88.464C127.741 88.176 127.149 88.016 126.477 88.016C125.677 88.016 125.005 88.208 124.429 88.592C123.853 88.976 123.405 89.504 123.101 90.16C122.797 90.832 122.653 91.568 122.653 92.368C122.653 93.184 122.797 93.92 123.101 94.576C123.405 95.248 123.853 95.76 124.429 96.144C125.005 96.528 125.677 96.72 126.477 96.72C127.149 96.72 127.741 96.576 128.221 96.288C128.701 96 129.085 95.616 129.357 95.168C129.613 94.72 129.773 94.256 129.837 93.776H131.485C131.421 94.48 131.213 95.168 130.845 95.84C130.461 96.512 129.901 97.056 129.165 97.488C128.429 97.92 127.517 98.128 126.429 98.128C125.309 98.128 124.333 97.888 123.517 97.376C122.685 96.864 122.061 96.176 121.629 95.296C121.197 94.432 120.989 93.456 120.989 92.368C120.989 91.296 121.197 90.32 121.629 89.44ZM134.552 86.48V98H133.016V86.48H134.552ZM136.405 86.48H138.069V88.272H136.405V86.48ZM136.469 89.808H138.005V98H136.469V89.808ZM139.765 91.776C140.085 91.136 140.533 90.624 141.141 90.24C141.749 89.872 142.469 89.68 143.301 89.68C144.005 89.68 144.629 89.84 145.173 90.128C145.717 90.416 146.133 90.816 146.437 91.296C146.725 91.776 146.901 92.304 146.965 92.88H145.461C145.381 92.384 145.157 91.968 144.789 91.616C144.405 91.264 143.925 91.088 143.317 91.088C142.805 91.088 142.373 91.216 141.989 91.472C141.605 91.728 141.317 92.08 141.125 92.496C140.917 92.928 140.821 93.392 140.821 93.904C140.821 94.416 140.917 94.896 141.125 95.312C141.317 95.744 141.605 96.08 141.989 96.336C142.373 96.592 142.805 96.72 143.317 96.72C143.925 96.72 144.405 96.56 144.789 96.208C145.157 95.856 145.381 95.44 145.461 94.928H146.965C146.901 95.504 146.725 96.048 146.437 96.528C146.133 97.008 145.717 97.408 145.189 97.696C144.645 97.984 144.021 98.128 143.301 98.128C142.485 98.128 141.781 97.952 141.173 97.568C140.565 97.2 140.085 96.688 139.765 96.048C139.445 95.408 139.285 94.688 139.285 93.904C139.285 93.136 139.445 92.416 139.765 91.776ZM153.563 98L150.651 94.288L149.787 95.152V98H148.251V86.48H149.787V92.336C149.787 92.608 149.755 92.832 149.707 92.992C149.659 93.168 149.579 93.344 149.451 93.504C149.435 93.52 149.403 93.552 149.371 93.616C149.339 93.68 149.339 93.728 149.403 93.76C149.403 93.776 149.435 93.776 149.467 93.776C149.499 93.776 149.531 93.76 149.563 93.728C149.595 93.696 149.611 93.664 149.627 93.648L153.211 89.808H155.163L151.611 93.344L155.419 98H153.563ZM163.867 91.152V95.44C163.867 95.92 163.931 96.24 164.075 96.4C164.219 96.576 164.507 96.656 164.955 96.656H166.171V98H164.827C163.963 98 163.323 97.824 162.923 97.456C162.523 97.104 162.331 96.48 162.331 95.6V91.152H160.795V89.808H162.331V87.504H163.867V89.808H166.171V91.152H163.867ZM173.006 90.24C173.614 90.624 174.078 91.136 174.398 91.776C174.718 92.416 174.878 93.136 174.878 93.904C174.878 94.688 174.718 95.408 174.398 96.048C174.078 96.688 173.614 97.2 173.006 97.568C172.398 97.952 171.71 98.128 170.91 98.128C170.11 98.128 169.406 97.952 168.798 97.568C168.19 97.2 167.742 96.688 167.422 96.048C167.102 95.408 166.942 94.688 166.942 93.904C166.942 93.136 167.102 92.416 167.422 91.776C167.742 91.136 168.19 90.624 168.798 90.24C169.406 89.872 170.11 89.68 170.91 89.68C171.71 89.68 172.398 89.872 173.006 90.24ZM172.686 95.92C173.118 95.376 173.342 94.704 173.342 93.904C173.342 93.104 173.118 92.448 172.686 91.904C172.238 91.36 171.646 91.088 170.91 91.088C170.158 91.088 169.566 91.36 169.134 91.904C168.686 92.448 168.478 93.104 168.478 93.904C168.478 94.704 168.686 95.376 169.134 95.92C169.566 96.464 170.158 96.72 170.91 96.72C171.646 96.72 172.238 96.464 172.686 95.92ZM182.06 97.28C181.532 96.72 181.276 95.856 181.276 94.672V89.808H182.812V94.352C182.812 95.248 182.972 95.888 183.308 96.24C183.644 96.608 184.108 96.784 184.7 96.784C185.1 96.784 185.484 96.656 185.868 96.4C186.252 96.144 186.556 95.76 186.796 95.28C187.036 94.8 187.164 94.256 187.164 93.632V89.808H188.7V98H187.164V97.456C187.164 97.072 187.212 96.72 187.34 96.368C187.372 96.272 187.404 96.192 187.404 96.144C187.404 96.096 187.372 96.064 187.324 96.032H187.292C187.244 96.032 187.196 96.08 187.148 96.176C186.892 96.672 186.524 97.12 186.044 97.52C185.548 97.936 184.972 98.128 184.316 98.128C183.34 98.128 182.588 97.856 182.06 97.28ZM192.002 91.328C191.986 91.36 191.97 91.392 191.954 91.456C191.922 91.52 191.922 91.568 191.922 91.6C191.922 91.632 191.954 91.664 192.002 91.664L192.05 91.68C192.098 91.68 192.146 91.632 192.194 91.504C192.45 90.96 192.802 90.512 193.282 90.176C193.762 89.856 194.306 89.68 194.946 89.68C195.634 89.68 196.258 89.872 196.802 90.224C197.346 90.592 197.778 91.104 198.098 91.744C198.402 92.384 198.562 93.104 198.562 93.904C198.562 94.704 198.402 95.44 198.098 96.08C197.778 96.72 197.346 97.232 196.802 97.584C196.258 97.952 195.634 98.128 194.946 98.128C194.322 98.128 193.778 97.968 193.298 97.632C192.818 97.296 192.45 96.848 192.194 96.272C192.146 96.16 192.098 96.112 192.034 96.128C191.97 96.144 191.938 96.176 191.938 96.24C191.938 96.304 191.954 96.368 192.002 96.448C192.098 96.784 192.162 97.072 192.162 97.312V101.072H190.626V89.808H192.162V90.448C192.162 90.72 192.098 91.008 192.002 91.328ZM196.402 95.92C196.818 95.376 197.026 94.704 197.026 93.904C197.026 93.104 196.818 92.448 196.402 91.904C195.986 91.36 195.394 91.088 194.626 91.088C194.146 91.088 193.73 91.216 193.346 91.472C192.962 91.728 192.674 92.08 192.466 92.512C192.258 92.944 192.162 93.408 192.162 93.904C192.162 94.416 192.258 94.88 192.466 95.312C192.674 95.744 192.962 96.08 193.346 96.336C193.73 96.592 194.146 96.72 194.626 96.72C195.394 96.72 195.986 96.464 196.402 95.92ZM201.505 86.48V98H199.969V86.48H201.505ZM208.849 90.24C209.457 90.624 209.921 91.136 210.241 91.776C210.561 92.416 210.721 93.136 210.721 93.904C210.721 94.688 210.561 95.408 210.241 96.048C209.921 96.688 209.457 97.2 208.849 97.568C208.241 97.952 207.553 98.128 206.753 98.128C205.953 98.128 205.249 97.952 204.641 97.568C204.033 97.2 203.585 96.688 203.265 96.048C202.945 95.408 202.785 94.688 202.785 93.904C202.785 93.136 202.945 92.416 203.265 91.776C203.585 91.136 204.033 90.624 204.641 90.24C205.249 89.872 205.953 89.68 206.753 89.68C207.553 89.68 208.241 89.872 208.849 90.24ZM208.529 95.92C208.961 95.376 209.185 94.704 209.185 93.904C209.185 93.104 208.961 92.448 208.529 91.904C208.081 91.36 207.489 91.088 206.753 91.088C206.001 91.088 205.409 91.36 204.977 91.904C204.529 92.448 204.321 93.104 204.321 93.904C204.321 94.704 204.529 95.376 204.977 95.92C205.409 96.464 206.001 96.72 206.753 96.72C207.489 96.72 208.081 96.464 208.529 95.92ZM214.683 93.152L215.611 93.104C216.315 93.088 216.827 93.04 217.147 92.944C217.467 92.864 217.627 92.672 217.627 92.368C217.595 91.472 216.907 91.024 215.547 91.024C214.859 91.024 214.363 91.152 214.059 91.376C213.739 91.6 213.563 91.936 213.499 92.368H211.995C212.123 91.472 212.523 90.8 213.163 90.352C213.803 89.904 214.619 89.68 215.611 89.68C216.683 89.68 217.547 89.952 218.187 90.48C218.827 91.008 219.163 91.952 219.163 93.328V98H217.627V97.216C217.627 96.928 217.675 96.608 217.803 96.256C217.803 96.224 217.819 96.192 217.835 96.128C217.835 96.08 217.835 96.032 217.835 96C217.835 95.968 217.819 95.952 217.787 95.936L217.739 95.92C217.675 95.92 217.643 95.952 217.627 96C217.611 96.064 217.595 96.096 217.595 96.096C217.355 96.72 216.971 97.216 216.443 97.584C215.899 97.952 215.275 98.128 214.555 98.128C214.043 98.128 213.563 98.032 213.131 97.824C212.699 97.616 212.363 97.328 212.107 96.96C211.851 96.592 211.739 96.176 211.739 95.712C211.739 94.144 212.715 93.296 214.683 93.152ZM216.859 94.048C216.539 94.144 216.059 94.224 215.419 94.304C215.291 94.32 215.083 94.352 214.779 94.384C214.267 94.464 213.883 94.608 213.643 94.8C213.387 94.992 213.275 95.28 213.275 95.632C213.275 95.952 213.387 96.224 213.627 96.432C213.867 96.656 214.219 96.752 214.699 96.752C215.195 96.752 215.659 96.656 216.107 96.432C216.555 96.208 216.907 95.872 217.195 95.392C217.483 94.912 217.627 94.32 217.627 93.584C217.435 93.808 217.179 93.968 216.859 94.048ZM228.503 98H226.967V97.312C226.967 97.024 227.015 96.736 227.127 96.448C227.159 96.368 227.191 96.304 227.191 96.24C227.191 96.176 227.159 96.144 227.095 96.128H227.063C226.999 96.128 226.967 96.176 226.935 96.272C226.743 96.848 226.391 97.312 225.895 97.632C225.399 97.968 224.823 98.128 224.183 98.128C223.479 98.128 222.855 97.952 222.311 97.584C221.767 97.232 221.335 96.72 221.031 96.08C220.711 95.44 220.567 94.704 220.567 93.904C220.567 93.104 220.711 92.384 221.031 91.744C221.335 91.104 221.767 90.592 222.311 90.224C222.855 89.872 223.479 89.68 224.183 89.68C224.823 89.68 225.399 89.856 225.911 90.176C226.407 90.512 226.743 90.96 226.935 91.504C226.967 91.648 227.031 91.696 227.127 91.664C227.175 91.664 227.207 91.632 227.207 91.568C227.207 91.536 227.191 91.488 227.175 91.44C227.143 91.392 227.127 91.36 227.127 91.328C227.015 91.056 226.967 90.768 226.967 90.448V86.48H228.503V98ZM225.767 96.336C226.151 96.08 226.439 95.744 226.647 95.312C226.855 94.88 226.967 94.416 226.967 93.904C226.967 93.408 226.855 92.944 226.647 92.512C226.439 92.08 226.151 91.728 225.767 91.472C225.383 91.216 224.967 91.088 224.503 91.088C223.735 91.088 223.143 91.36 222.727 91.904C222.311 92.448 222.103 93.104 222.103 93.904C222.103 94.704 222.311 95.376 222.727 95.92C223.143 96.464 223.735 96.72 224.503 96.72C224.967 96.72 225.383 96.592 225.767 96.336Z" fill="#4E38B2"/>
<path d="M120.477 100.4H131.997V101.2H120.477V100.4ZM131.992 100.4H135.576V101.2H131.992V100.4ZM135.445 100.4H139.029V101.2H135.445V100.4ZM138.773 100.4H147.477V101.2H138.773V100.4ZM147.227 100.4H155.419V101.2H147.227V100.4ZM155.414 100.4H166.939V101.2H155.414V100.4ZM166.43 100.4H175.39V101.2H166.43V100.4ZM175.383 100.4H189.724V101.2H175.383V100.4ZM189.602 100.4H199.074V101.2H189.602V100.4ZM198.945 100.4H202.529V101.2H198.945V100.4ZM202.273 100.4H211.233V101.2H202.273V100.4ZM211.227 100.4H220.187V101.2H211.227V100.4ZM220.055 100.4H229.527V101.2H220.055V100.4Z" fill="#4E38B2"/>
<defs>
<clipPath id="clip0_97_1805">
<rect width="32" height="32" fill="white" transform="translate(159 40)"/>
</clipPath>
</defs>
</svg>
