<svg width="25" height="24" viewBox="0 0 25 24" fill="none" xmlns="http://www.w3.org/2000/svg">
<path d="M13.8335 9H7.8335" stroke="#292D32" stroke-opacity="0.8" stroke-width="1.5" stroke-linecap="round" stroke-linejoin="round"/>
<path d="M22.8337 10.9699V13.03C22.8337 13.58 22.3937 14.0299 21.8337 14.0499H19.8737C18.7937 14.0499 17.8037 13.2599 17.7137 12.1799C17.6537 11.5499 17.8937 10.9599 18.3137 10.5499C18.6837 10.1699 19.1937 9.94995 19.7537 9.94995H21.8337C22.3937 9.96995 22.8337 10.4199 22.8337 10.9699Z" stroke="#292D32" stroke-opacity="0.8" stroke-width="1.5" stroke-linecap="round" stroke-linejoin="round"/>
<path d="M18.3135 10.55C17.8935 10.96 17.6535 11.55 17.7135 12.18C17.8035 13.26 18.7935 14.05 19.8735 14.05H21.8335V15.5C21.8335 18.5 19.8335 20.5 16.8335 20.5H7.8335C4.8335 20.5 2.8335 18.5 2.8335 15.5V8.5C2.8335 5.78 4.4735 3.88 7.0235 3.56C7.2835 3.52 7.5535 3.5 7.8335 3.5H16.8335C17.0935 3.5 17.3435 3.50999 17.5835 3.54999C20.1635 3.84999 21.8335 5.76 21.8335 8.5V9.95001H19.7535C19.1935 9.95001 18.6835 10.17 18.3135 10.55Z" stroke="#292D32" stroke-opacity="0.8" stroke-width="1.5" stroke-linecap="round" stroke-linejoin="round"/>
</svg>
