<svg width="25" height="24" viewBox="0 0 25 24" fill="none" xmlns="http://www.w3.org/2000/svg">
<path d="M22.8337 10.97V13.03C22.8337 13.58 22.3937 14.03 21.8337 14.05H19.8737C18.7937 14.05 17.8037 13.26 17.7137 12.18C17.6537 11.55 17.8937 10.96 18.3137 10.55C18.6837 10.17 19.1937 9.94995 19.7537 9.94995H21.8337C22.3937 9.96995 22.8337 10.42 22.8337 10.97Z" fill="#292D32"/>
<path d="M21.3035 15.55H19.8735C17.9735 15.55 16.3735 14.12 16.2135 12.3C16.1235 11.26 16.5035 10.22 17.2635 9.48C17.9035 8.82 18.7935 8.45 19.7535 8.45H21.3035C21.5935 8.45 21.8335 8.21 21.8035 7.92C21.5835 5.49 19.9735 3.83 17.5835 3.55C17.3435 3.51 17.0935 3.5 16.8335 3.5H7.8335C7.5535 3.5 7.2835 3.52 7.0235 3.56C4.4735 3.88 2.8335 5.78 2.8335 8.5V15.5C2.8335 18.26 5.0735 20.5 7.8335 20.5H16.8335C19.6335 20.5 21.5635 18.75 21.8035 16.08C21.8335 15.79 21.5935 15.55 21.3035 15.55ZM13.8335 9.75H7.8335C7.4235 9.75 7.0835 9.41 7.0835 9C7.0835 8.59 7.4235 8.25 7.8335 8.25H13.8335C14.2435 8.25 14.5835 8.59 14.5835 9C14.5835 9.41 14.2435 9.75 13.8335 9.75Z" fill="#292D32"/>
</svg>
