<svg width="32" height="32" viewBox="0 0 32 32" fill="none" xmlns="http://www.w3.org/2000/svg">
<path d="M11.0977 23.6251V19.2679C11.0977 18.6663 11.5854 18.1786 12.1869 18.1786H19.8119C20.4135 18.1786 20.9012 18.6663 20.9012 19.2679V23.6251C20.9012 24.2266 20.4135 24.7144 19.8119 24.7144H12.1869C11.5854 24.7144 11.0977 24.2266 11.0977 23.6251Z" stroke="black" stroke-width="1.5" stroke-linejoin="round"/>
<path d="M12.7314 18.1787V16.0001C12.7314 14.1953 14.1945 12.7322 15.9993 12.7322C17.8041 12.7322 19.2672 14.1953 19.2672 16.0001V18.1787" stroke="black" stroke-width="1.5" stroke-linecap="round" stroke-linejoin="round"/>
<path d="M1.83887 8.36121H30.1603" stroke="black" stroke-width="1.5" stroke-linecap="round" stroke-linejoin="round"/>
<path d="M27.9817 1.83936H4.01744C2.81425 1.83936 1.83887 2.81473 1.83887 4.01793V27.9822C1.83887 29.1854 2.81425 30.1608 4.01744 30.1608H27.9817C29.185 30.1608 30.1603 29.1854 30.1603 27.9822V4.01793C30.1603 2.81473 29.185 1.83936 27.9817 1.83936Z" stroke="black" stroke-width="1.5" stroke-linecap="round" stroke-linejoin="round"/>
</svg>
