<svg width="32" height="32" viewBox="0 0 32 32" fill="none" xmlns="http://www.w3.org/2000/svg">
<path d="M4.01367 14.9601V20.9467C4.01367 26.9334 6.41367 29.3334 12.4003 29.3334H19.587C25.5737 29.3334 27.9737 26.9334 27.9737 20.9467V14.9601" stroke="black" stroke-width="1.5" stroke-linecap="round" stroke-linejoin="round"/>
<path d="M16 16.0001C18.44 16.0001 20.24 14.0134 20 11.5734L19.12 2.66675H12.8933L12 11.5734C11.76 14.0134 13.56 16.0001 16 16.0001Z" stroke="black" stroke-width="1.5" stroke-linecap="round" stroke-linejoin="round"/>
<path d="M24.4131 16.0001C27.1064 16.0001 29.0797 13.8134 28.8131 11.1334L28.4397 7.46675C27.9597 4.00008 26.6264 2.66675 23.1331 2.66675H19.0664L19.9997 12.0134C20.2264 14.2134 22.2131 16.0001 24.4131 16.0001Z" stroke="black" stroke-width="1.5" stroke-linecap="round" stroke-linejoin="round"/>
<path d="M7.51984 16.0001C9.71984 16.0001 11.7065 14.2134 11.9198 12.0134L12.2132 9.06675L12.8532 2.66675H8.78651C5.29318 2.66675 3.95984 4.00008 3.47984 7.46675L3.11984 11.1334C2.85318 13.8134 4.82651 16.0001 7.51984 16.0001Z" stroke="black" stroke-width="1.5" stroke-linecap="round" stroke-linejoin="round"/>
<path d="M16.0003 22.6667C13.7737 22.6667 12.667 23.7734 12.667 26.0001V29.3334H19.3337V26.0001C19.3337 23.7734 18.227 22.6667 16.0003 22.6667Z" stroke="black" stroke-width="1.5" stroke-linecap="round" stroke-linejoin="round"/>
</svg>
